<svg xmlns="http://www.w3.org/2000/svg" width="3001" height="3001" fill="none" viewBox="0 0 3001 3001" id="financial-strategy">
  <g clip-path="url(#clip0_101_35571)">
    <path fill="#F1F1F1" fill-rule="evenodd" d="M1122.37 817.481C1122.37 792.256 1142.82 771.807 1168.04 771.807H2510.45C2535.68 771.807 2556.13 792.256 2556.13 817.481V2586.19C2556.13 2611.41 2535.68 2631.86 2510.45 2631.86H1168.04C1142.82 2631.86 1122.37 2611.41 1122.37 2586.19V817.481ZM1168.04 787.032C1151.23 787.032 1137.59 800.664 1137.59 817.481V2586.19C1137.59 2603 1151.23 2616.64 1168.04 2616.64H2510.45C2527.27 2616.64 2540.9 2603 2540.9 2586.19V817.481C2540.9 800.664 2527.27 787.032 2510.45 787.032H1168.04Z" clip-rule="evenodd"></path>
    <path fill="#F15846" fill-rule="evenodd" d="M353.756 697.303C395.457 813.727 506.769 897.018 637.535 897.018C803.964 897.018 938.882 762.1 938.882 595.671C938.882 429.242 803.964 294.325 637.535 294.325C599.652 294.325 563.403 301.315 530.005 314.076L630.185 591.996L353.756 697.303Z" clip-rule="evenodd"></path>
    <path fill="#F1F1F1" fill-rule="evenodd" d="M486.329 334.948L575.061 563.095L342.991 659.638C338.535 639.022 336.188 617.621 336.188 595.671C336.188 484.351 396.55 387.128 486.329 334.948Z" clip-rule="evenodd"></path>
    <path fill="#fff" d="M630.186 633.733C630.186 612.712 647.227 595.671 668.248 595.671H2348.75C2369.78 595.671 2386.82 612.712 2386.82 633.733V2439.19C2386.82 2460.21 2369.78 2477.25 2348.75 2477.25H668.248C647.227 2477.25 630.186 2460.21 630.186 2439.19V633.733Z"></path>
    <path fill="#3E3D3D" fill-rule="evenodd" d="M622.573 633.733C622.573 608.508 643.023 588.059 668.248 588.059H2348.75C2373.98 588.059 2394.43 608.508 2394.43 633.733V2439.19C2394.43 2464.41 2373.98 2484.86 2348.75 2484.86H668.248C643.023 2484.86 622.573 2464.41 622.573 2439.19V633.733ZM668.248 603.284C651.431 603.284 637.798 616.917 637.798 633.733V2439.19C637.798 2456.01 651.431 2469.64 668.248 2469.64H2348.75C2365.57 2469.64 2379.2 2456.01 2379.2 2439.19V633.733C2379.2 616.917 2365.57 603.284 2348.75 603.284H668.248Z" clip-rule="evenodd"></path>
    <path fill="#46A4BC" d="M751.46 1620.98C654.441 1612.17 544.437 1617.31 501.563 1620.98C497.888 1630.78 490.538 1651.12 490.538 1654.06C490.538 1657.73 512.588 1760.63 512.588 1775.33C512.588 1787.09 644.886 1807.18 711.035 1815.76C764.935 1754.51 848.479 1629.8 751.46 1620.98Z"></path>
    <path fill="#EFCB96" d="M523.612 1470.31H729.409V1720.21H523.612V1470.31Z"></path>
    <path fill="#E5E5E5" fill-rule="evenodd" d="M1971.55 882.581C1815.41 882.581 1688.84 1009.15 1688.84 1165.29C1688.84 1321.43 1815.41 1448 1971.55 1448C2127.68 1448 2254.25 1321.43 2254.25 1165.29C2254.25 1009.15 2127.68 882.581 1971.55 882.581ZM1673.61 1165.29C1673.61 1000.75 1807 867.356 1971.55 867.356C2136.09 867.356 2269.48 1000.75 2269.48 1165.29C2269.48 1329.83 2136.09 1463.22 1971.55 1463.22C1807 1463.22 1673.61 1329.83 1673.61 1165.29Z" clip-rule="evenodd"></path>
    <path fill="#3E3D3D" fill-rule="evenodd" d="M909.219 1389.2H1453.64V1617.57H909.219V1389.2ZM924.444 1404.42V1602.35H1438.41V1404.42H924.444Z" clip-rule="evenodd"></path>
    <path fill="#53B3CC" fill-rule="evenodd" d="M1306.38 1496.3H1012.38V1481.07H1306.38V1496.3Z" clip-rule="evenodd"></path>
    <path fill="#EFCB96" d="M1299.03 1558.51C1304.91 1584.97 1294.13 1598.94 1288 1602.61L1310.05 1654.06L1383.55 1683.46C1390.9 1673.66 1412.22 1649.65 1438.68 1632.01C1471.75 1609.96 1493.8 1562.19 1497.48 1540.14C1500.42 1522.5 1488.9 1515.64 1482.78 1514.41C1485.72 1502.65 1474.2 1494.81 1468.08 1492.36C1465.14 1477.66 1449.7 1473.99 1442.35 1473.99L1475.27 1414.14C1479.55 1406.35 1477.33 1396.6 1470.1 1391.43C1462.71 1386.16 1452.52 1387.4 1446.61 1394.29L1346.8 1510.74L1323.21 1445.85C1319.89 1436.72 1310.31 1431.46 1300.82 1433.57C1291.37 1435.67 1284.92 1444.42 1285.81 1454.06C1288.83 1486.82 1294.1 1536.34 1299.03 1558.51Z"></path>
    <path fill="#3E3D3D" d="M369.263 2591.17L354.563 2826.37H957.256L942.556 2591.17H369.263Z"></path>
    <path fill="#53B3CC" d="M957.256 2447.85C948.436 2397.87 953.581 2128.13 957.256 1999.51C1009.93 2035.03 1123.36 2104.61 1155.7 2098.73C1188.04 2092.85 1208.38 2061.98 1214.5 2047.28L1387.23 1694.48C1357.83 1635.68 1301.48 1606.28 1276.98 1598.93L1107.93 1812.08C1083.43 1786.36 1019 1724.62 957.256 1683.46C895.517 1642.3 791.883 1624.66 751.459 1620.98C740.434 1647.93 705.889 1701.83 626.51 1701.83C547.131 1701.83 512.586 1647.93 501.561 1620.98C383.963 1654.06 306.789 1676.11 266.364 1731.23C225.939 1786.36 203.889 1914.98 178.164 2006.86C152.44 2098.73 163.465 2161.2 181.839 2183.25C196.539 2200.89 303.113 2308.2 354.562 2359.65C353.338 2406.2 349.418 2511.79 343.538 2561.77C336.188 2624.25 394.988 2627.92 450.112 2616.9C505.236 2605.87 799.233 2609.55 891.107 2616.9C982.981 2624.25 968.281 2510.32 957.256 2447.85Z"></path>
    <path fill="#3E3D3D" fill-rule="evenodd" d="M-2.17017 2826.37C-2.17017 2822.17 1.23802 2818.76 5.44222 2818.76H2927.03C2931.24 2818.76 2934.65 2822.17 2934.65 2826.37C2934.65 2830.58 2931.24 2833.98 2927.03 2833.98H5.44222C1.23802 2833.98 -2.17017 2830.58 -2.17017 2826.37Z" clip-rule="evenodd"></path>
    <path fill="#EFCB96" d="M611.811 2407.64C579.471 2384.12 541.986 2378.03 527.287 2367L571.386 2451.74L611.811 2407.64Z"></path>
    <path fill="#fff" d="M662.639 2334.05C676.293 2318.06 700.318 2316.17 716.302 2329.83L879.242 2469.02C895.225 2482.67 897.113 2506.7 883.46 2522.68L703.754 2733.05C690.1 2749.03 666.075 2750.92 650.092 2737.27L487.152 2598.07C471.169 2584.42 469.28 2560.39 482.934 2544.41L662.639 2334.05Z"></path>
    <path fill="#EFCB96" d="M755.134 1253.49C805.113 1397.55 758.809 1475.21 729.409 1496.04L523.611 1521.76L483.187 1496.04L435.412 1404.16L505.236 1253.49C567.711 1193.46 705.154 1109.43 755.134 1253.49Z"></path>
    <path fill="#3E3D3D" d="M514.91 1529.92C477.171 1519.77 419.578 1482.91 417.038 1404.16C413.363 1290.24 424.388 1198.36 501.562 1191.01C505.237 1162.84 526.551 1105.02 582.411 1099.14C652.235 1091.79 740.434 1099.14 784.534 1077.09C828.633 1055.04 839.658 1077.09 854.358 1091.79C869.058 1106.49 880.082 1238.79 747.784 1253.49C715.923 1257.03 690.883 1257.8 670.61 1257.34C639.985 1257.28 577.266 1266.72 571.386 1304.94C564.036 1352.71 571.386 1400.49 556.686 1400.49C541.986 1400.49 553.011 1374.76 523.611 1352.71C507.687 1351.49 475.837 1359.33 475.837 1400.49C475.837 1426.33 491.295 1439.04 506.74 1444.62C519.252 1449.13 530.961 1459.62 530.961 1472.92V1516.43C530.961 1525.27 523.443 1532.21 514.91 1529.92Z"></path>
    <path fill="#FAC22F" d="M2011.97 1698.16H2166.32V2234.7H2011.97V1698.16ZM1740.02 1845.16H1894.37V2234.7H1740.02V1845.16ZM1468.08 1977.46H1622.42V2234.7H1468.08V1977.46Z"></path>
    <path fill="#F1F1F1" fill-rule="evenodd" d="M2243.23 1602.87H1615.07V1587.65H2258.46V2312.14H1280.39V2124.45H1295.62V2296.91H2243.23V1602.87Z" clip-rule="evenodd"></path>
    <path fill="#3E3D3D" fill-rule="evenodd" d="M1784.12 1757.22H1475.43V1742H1784.12V1757.22ZM1622.42 1867.47H1475.43V1852.24H1622.42V1867.47ZM1541.57 845.831H916.832V830.606H1541.57V845.831ZM1541.57 1025.9H916.832V1010.68H1541.57V1025.9ZM1541.57 1205.98H916.832V1190.75H1541.57V1205.98Z" clip-rule="evenodd"></path>
    <path fill="#F15846" fill-rule="evenodd" d="M2772.54 1515.36C2777.87 1506.52 2789.37 1503.67 2798.22 1509L2850.71 1540.65C2859.56 1545.98 2862.41 1557.48 2857.08 1566.33V1566.33C2852.71 1573.57 2853.83 1582.79 2859.21 1589.32C2874.3 1607.62 2885.65 1628.41 2892.95 1650.48C2895.61 1658.53 2902.83 1664.38 2911.3 1664.54V1664.54C2921.65 1664.74 2929.88 1673.29 2929.68 1683.64L2928.52 1744.88C2928.33 1755.21 2919.79 1763.43 2909.45 1763.24V1763.24C2901 1763.08 2893.57 1768.65 2890.6 1776.57C2886.56 1787.36 2881.47 1797.93 2875.31 1808.16C2869.15 1818.38 2862.17 1827.82 2854.52 1836.43C2848.9 1842.75 2847.44 1851.92 2851.53 1859.32V1859.32C2856.53 1868.37 2853.24 1879.76 2844.19 1884.76L2790.58 1914.37C2781.52 1919.38 2770.12 1916.09 2765.11 1907.03V1907.03C2761.02 1899.61 2752.47 1895.97 2744.11 1897.37C2721.19 1901.22 2697.5 1900.9 2674.28 1896.09C2665.99 1894.38 2657.31 1897.69 2652.94 1904.94V1904.94C2647.61 1913.79 2636.11 1916.64 2627.26 1911.3L2574.77 1879.66C2565.92 1874.32 2563.07 1862.82 2568.41 1853.98V1853.98C2572.78 1846.73 2571.66 1837.51 2566.27 1830.98C2551.18 1812.68 2539.83 1791.89 2532.54 1769.82C2529.88 1761.78 2522.66 1755.92 2514.19 1755.76V1755.76C2503.84 1755.56 2495.61 1747.01 2495.8 1736.67L2496.96 1675.43C2497.16 1665.09 2505.69 1656.87 2516.03 1657.07V1657.07C2524.49 1657.23 2531.91 1651.66 2534.88 1643.73C2538.92 1632.94 2544.01 1622.37 2550.17 1612.15C2556.34 1601.92 2563.31 1592.49 2570.97 1583.87C2576.59 1577.55 2578.05 1568.39 2573.96 1560.98V1560.98C2568.96 1551.93 2572.24 1540.54 2581.29 1535.54L2634.9 1505.93C2643.96 1500.92 2655.36 1504.21 2660.37 1513.27V1513.27C2664.47 1520.69 2673.02 1524.34 2681.37 1522.93C2704.3 1519.08 2727.98 1519.41 2751.21 1524.21C2759.49 1525.93 2768.17 1522.61 2772.54 1515.36V1515.36ZM2804.68 1765.58C2774.07 1816.35 2708.09 1832.7 2657.32 1802.09C2606.54 1771.48 2590.2 1705.5 2620.81 1654.73C2651.42 1603.95 2717.39 1587.61 2768.17 1618.22C2818.94 1648.83 2835.29 1714.8 2804.68 1765.58Z" clip-rule="evenodd"></path>
    <path fill="#F1F1F1" fill-rule="evenodd" d="M2691.73 2064.64C2695.52 2058.37 2703.66 2056.35 2709.93 2060.13L2747.13 2082.55C2753.41 2086.33 2755.42 2094.48 2751.64 2100.75V2100.75C2748.55 2105.89 2749.34 2112.43 2753.16 2117.05C2763.85 2130.02 2771.89 2144.75 2777.06 2160.39C2778.95 2166.09 2784.06 2170.25 2790.07 2170.36V2170.36C2797.4 2170.5 2803.23 2176.56 2803.1 2183.89L2802.27 2227.29C2802.14 2234.61 2796.09 2240.44 2788.76 2240.3V2240.3C2782.77 2240.19 2777.51 2244.13 2775.4 2249.75C2772.54 2257.39 2768.93 2264.89 2764.56 2272.13C2760.2 2279.38 2755.25 2286.07 2749.83 2292.17C2745.85 2296.65 2744.81 2303.15 2747.71 2308.4V2308.4C2751.25 2314.81 2748.93 2322.88 2742.51 2326.42L2704.52 2347.41C2698.1 2350.96 2690.02 2348.63 2686.47 2342.21V2342.21C2683.57 2336.95 2677.51 2334.36 2671.58 2335.36C2655.34 2338.09 2638.55 2337.86 2622.1 2334.45C2616.22 2333.24 2610.07 2335.59 2606.98 2340.72V2340.72C2603.2 2346.99 2595.05 2349.01 2588.78 2345.23L2551.58 2322.81C2545.31 2319.03 2543.29 2310.88 2547.07 2304.61V2304.61C2550.16 2299.47 2549.37 2292.94 2545.55 2288.31C2534.86 2275.34 2526.82 2260.61 2521.65 2244.97C2519.76 2239.27 2514.65 2235.11 2508.64 2235V2235C2501.31 2234.86 2495.47 2228.8 2495.61 2221.47L2496.43 2178.07C2496.57 2170.75 2502.62 2164.92 2509.95 2165.06V2165.06C2515.94 2165.17 2521.2 2161.23 2523.31 2155.61C2526.17 2147.97 2529.78 2140.47 2534.15 2133.23C2538.51 2125.98 2543.46 2119.29 2548.88 2113.19C2552.86 2108.71 2553.9 2102.21 2551 2096.96V2096.96C2547.46 2090.55 2549.78 2082.48 2556.2 2078.94L2594.19 2057.95C2600.61 2054.4 2608.69 2056.73 2612.24 2063.15V2063.15C2615.14 2068.41 2621.2 2071 2627.13 2070C2643.37 2067.27 2660.16 2067.5 2676.62 2070.91C2682.49 2072.12 2688.64 2069.77 2691.73 2064.64V2064.64ZM2714.51 2241.96C2692.82 2277.94 2646.06 2289.53 2610.08 2267.83C2574.09 2246.14 2562.51 2199.39 2584.2 2163.4C2605.9 2127.42 2652.65 2115.83 2688.63 2137.53C2724.62 2159.22 2736.2 2205.97 2714.51 2241.96Z" clip-rule="evenodd"></path>
    <path fill="#F15846" d="M1997.27 694.895C1997.27 713.162 1982.46 727.97 1964.19 727.97C1945.93 727.97 1931.12 713.162 1931.12 694.895C1931.12 676.628 1945.93 661.82 1964.19 661.82C1982.46 661.82 1997.27 676.628 1997.27 694.895Z"></path>
    <path fill="#53B3CC" d="M2217.77 694.895C2217.77 713.162 2202.96 727.97 2184.69 727.97C2166.43 727.97 2151.62 713.162 2151.62 694.895C2151.62 676.628 2166.43 661.82 2184.69 661.82C2202.96 661.82 2217.77 676.628 2217.77 694.895Z"></path>
    <path fill="#FAC22F" d="M1776.77 694.895C1776.77 713.162 1761.97 727.97 1743.7 727.97C1725.43 727.97 1710.62 713.162 1710.62 694.895C1710.62 676.628 1725.43 661.82 1743.7 661.82C1761.97 661.82 1776.77 676.628 1776.77 694.895Z"></path>
    <path fill="#F15846" d="M2203.07 2741.85H2739.61V2822.7H2203.07V2741.85Z"></path>
    <path fill="#53B3CC" d="M2136.92 2661H2673.46V2741.85H2136.92V2661Z"></path>
    <path fill="#FAC22F" d="M2173.67 2580.15H2710.21V2661H2173.67V2580.15Z"></path>
    <path fill="#EFCB96" d="M516.261 2355.98C504.501 2376.56 477.061 2406.2 464.812 2418.45C483.186 2433.15 479.511 2451.53 497.886 2488.28C516.261 2525.02 567.71 2539.72 600.785 2547.07C627.245 2552.95 636.31 2547.07 637.535 2543.4C649.294 2543.4 652.234 2533.6 652.234 2528.7C663.259 2528.7 668.159 2514 659.584 2506.65C677.224 2500.77 666.934 2489.5 659.584 2484.6C615.485 2480.93 593.435 2458.88 578.735 2425.8C566.975 2399.34 532.186 2368.23 516.261 2355.98Z"></path>
    <path fill="#46A4BC" fill-rule="evenodd" d="M961.063 1911.31V1999.51H953.45V1911.31H961.063ZM358.425 2092.27L372.836 1976.98L380.39 1977.93L365.978 2093.22C363.57 2112.49 369.011 2131.91 381.077 2147.13L531.905 2337.3L519.525 2357.93L512.997 2354.02L522.667 2337.9L375.113 2151.86C361.776 2135.04 355.763 2113.57 358.425 2092.27Z" clip-rule="evenodd"></path>
    <path fill="#FAC22F" fill-rule="evenodd" d="M2386.82 486.079H1115.28V448.017H2386.82V486.079Z" clip-rule="evenodd"></path>
    <path fill="#53B3CC" d="M2489.71 1165.29C2489.71 1325.63 2359.73 1455.61 2199.39 1455.61C2039.05 1455.61 1909.07 1325.63 1909.07 1165.29C1909.07 1004.95 2039.05 874.968 2199.39 874.968C2359.73 874.968 2489.71 1004.95 2489.71 1165.29Z"></path>
    <path fill="#fff" fill-rule="evenodd" d="M2195.72 962.38C2208.33 962.38 2218.55 972.604 2218.55 985.217V1002.92C2267.46 1004.07 2306.75 1044.08 2306.75 1093.26H2261.08C2261.08 1068.58 2241.07 1048.57 2216.39 1048.57H2179.55C2152.38 1048.57 2130.36 1070.59 2130.36 1097.76C2130.36 1124.93 2152.38 1146.95 2179.55 1146.95H2216.39C2266.3 1146.95 2306.75 1187.41 2306.75 1237.32C2306.75 1286.5 2267.46 1326.51 2218.55 1327.66V1345.36C2218.55 1357.98 2208.33 1368.2 2195.72 1368.2C2183.1 1368.2 2172.88 1357.98 2172.88 1345.36V1327.68H2166.04C2121.11 1327.68 2084.68 1291.26 2084.68 1246.32H2130.36C2130.36 1266.03 2146.33 1282.01 2166.04 1282.01H2216.39C2241.07 1282.01 2261.08 1262 2261.08 1237.32C2261.08 1212.64 2241.07 1192.63 2216.39 1192.63H2179.55C2127.15 1192.63 2084.68 1150.16 2084.68 1097.76C2084.68 1047.61 2123.6 1006.55 2172.88 1003.13V985.217C2172.88 972.604 2183.1 962.38 2195.72 962.38Z" clip-rule="evenodd"></path>
  </g>
  <defs>
    <clipPath id="clip0_101_35571">
      <rect width="3000" height="3000" fill="#fff" transform="translate(.235 .81)"></rect>
    </clipPath>
  </defs>
</svg>
