<?xml version="1.0" encoding="utf-8"?>
<!-- Generator: Adobe Illustrator 27.5.0, SVG Export Plug-In . SVG Version: 6.00 Build 0)  -->
<svg version="1.1" xmlns="http://www.w3.org/2000/svg" xmlns:xlink="http://www.w3.org/1999/xlink" x="0px" y="0px"
	 viewBox="0 0 3710 3710" style="enable-background:new 0 0 3710 3710;" xml:space="preserve">
<g id="Background">
	<g>
		<g>
			<rect style="fill:#FFFFFF;" width="3710" height="3710"/>
		</g>
	</g>
</g>
<g id="Illustration">
	<g>
		<path style="fill:#F4F7FA;" d="M1148.493,617.716c-95.858,134.197,12.564,354.539-128.632,454.739
			c-137.444,97.537-303.304-66.455-432.751,17.388c-192.028,124.375-163.287,703.041,111.743,1065.282
			c82.711,108.938,152.329,151.718,182.072,274.252c63.868,263.11-171.941,416.743-128.744,546.995
			c97.263,293.28,1637.786,554.725,2266.188-316.99c293.489-407.127,342.987-998.96,89.352-1451.524
			C2649.406,390.08,1363.583,316.603,1148.493,617.716z"/>
		<g>
			<g>
				
					<linearGradient id="SVGID_1_" gradientUnits="userSpaceOnUse" x1="974.5458" y1="2898.821" x2="1130.1719" y2="2544.8474" gradientTransform="matrix(1 0 0 1 12.5415 0)">
					<stop  offset="0" style="stop-color:#AA80F9"/>
					<stop  offset="0.9964" style="stop-color:#6165D7"/>
				</linearGradient>
				<path style="fill:url(#SVGID_1_);" d="M1514.959,2939.739l-768.725-236.472c-74.886-23.036-132.76-98.932-132.76-170.339v-0.785
					c0-71.406,57.874-117.668,132.76-102.359l826.336,158.452L1514.959,2939.739z"/>
				<g>
					
						<linearGradient id="SVGID_00000145754259994679355030000000697642461514577541_" gradientUnits="userSpaceOnUse" x1="-1500.0054" y1="2736.918" x2="-3.0672" y2="2736.918" gradientTransform="matrix(-1 0 0 1 1404.4067 0)">
						<stop  offset="0" style="stop-color:#D8DEE8"/>
						<stop  offset="1" style="stop-color:#FFFFFF"/>
					</linearGradient>
					<path style="fill:url(#SVGID_00000145754259994679355030000000697642461514577541_);" d="M2904.412,2843.397l-1351.219,81.575
						c-80.175,4.84-145.719-52.017-145.719-127.035v-50.892c0-75.018,65.543-138.575,145.719-141.93l1351.219-56.54V2843.397z"/>
					
						<linearGradient id="SVGID_00000163751149792838655660000008443008399458320032_" gradientUnits="userSpaceOnUse" x1="1360.8428" y1="2737.5359" x2="2919.7598" y2="2737.5359" gradientTransform="matrix(1 0 0 1 12.5415 0)">
						<stop  offset="0" style="stop-color:#AA80F9"/>
						<stop  offset="0.9964" style="stop-color:#6165D7"/>
					</linearGradient>
					<path style="fill:url(#SVGID_00000163751149792838655660000008443008399458320032_);" d="M2916.792,2858.362l-1352.836,83.01
						c-104.563,6.416-190.572-68.047-190.572-166.06v-1.077c0-98.014,86.009-181.272,190.572-185.551l1352.836-55.354
						c8.569-0.351,15.509,6.393,15.509,15.062c0,8.669-6.94,15.994-15.509,16.362l-1352.836,58.028
						c-84.186,3.611-153.284,70.713-153.284,149.548v1.075c0,78.836,69.099,138.87,153.284,133.871l1352.836-80.336
						c8.569-0.509,15.509,6.107,15.509,14.775S2925.361,2857.836,2916.792,2858.362z"/>
				</g>
			</g>
			<g>
				
					<linearGradient id="SVGID_00000168817740525741010920000010937436236587895690_" gradientUnits="userSpaceOnUse" x1="1205.3055" y1="1915.9014" x2="924.697" y2="2861.1118" gradientTransform="matrix(1 0 0 1 12.5415 0)">
					<stop  offset="0" style="stop-color:#FFC444"/>
					<stop  offset="0.9964" style="stop-color:#F36F56"/>
				</linearGradient>
				<path style="fill:url(#SVGID_00000168817740525741010920000010937436236587895690_);" d="M1548.29,2588.236l-802.055-158.452
					c-74.886-15.309-132.76-114.368-132.76-221.586v-1.178c0-107.218,57.874-191.58,132.76-187.872l852.483,42.211L1548.29,2588.236
					z"/>
				<g>
					
						<linearGradient id="SVGID_00000118359525275666823600000016427337781148698527_" gradientUnits="userSpaceOnUse" x1="-1500.0054" y1="2314.1963" x2="-3.0672" y2="2314.1963" gradientTransform="matrix(-1 0 0 1 1404.4067 0)">
						<stop  offset="0" style="stop-color:#D8DEE8"/>
						<stop  offset="1" style="stop-color:#FFFFFF"/>
					</linearGradient>
					<path style="fill:url(#SVGID_00000118359525275666823600000016427337781148698527_);" d="M2904.412,2510.225l-1279.054,50.438
						c-119.655,4.719-217.884-82.721-217.884-195.362v-76.414c0-112.641,98.229-205.095,217.884-206.485l1279.054-14.855V2510.225z"
						/>
					
						<linearGradient id="SVGID_00000105407095913542845720000011419161045330594714_" gradientUnits="userSpaceOnUse" x1="1360.8428" y1="2317.0417" x2="2919.7598" y2="2317.0417" gradientTransform="matrix(1 0 0 1 12.5415 0)">
						<stop  offset="0" style="stop-color:#FFC444"/>
						<stop  offset="0.9964" style="stop-color:#F36F56"/>
					</linearGradient>
					<path style="fill:url(#SVGID_00000105407095913542845720000011419161045330594714_);" d="M2916.792,2533.328l-1352.836,55.354
						c-104.563,4.279-190.572-111.932-190.572-259.101v-1.617c0-147.169,86.009-267.778,190.572-268.847l1352.836-13.83
						c8.569-0.088,15.509,10.394,15.509,23.41c0,13.016-6.94,23.66-15.509,23.773l-1352.836,17.845
						c-84.186,1.11-153.284,98.325-153.284,216.698v1.614c0,118.373,69.099,212.054,153.284,208.86l1352.836-51.34
						c8.569-0.325,15.509,9.963,15.509,22.98C2932.301,2522.142,2925.361,2532.978,2916.792,2533.328z"/>
				</g>
			</g>
			<g>
				<g>
					
						<linearGradient id="SVGID_00000159434093760310669610000012248245025710509198_" gradientUnits="userSpaceOnUse" x1="623.4892" y1="1880.3688" x2="1462.3662" y2="1880.3688" gradientTransform="matrix(1 0 0 1 12.5415 0)">
						<stop  offset="0" style="stop-color:#FF9085"/>
						<stop  offset="1" style="stop-color:#FB6FBB"/>
					</linearGradient>
					<path style="fill:url(#SVGID_00000159434093760310669610000012248245025710509198_);" d="M1474.908,2038.374l-736.625-32.8
						c-57.468-2.559-102.252-49.343-102.252-104.594v-37.481c0-55.251,44.784-102.235,102.252-105.05l736.625-36.085V2038.374z"/>
					
						<linearGradient id="SVGID_00000080894075294318273040000005394094092291403920_" gradientUnits="userSpaceOnUse" x1="570.5588" y1="1874.0289" x2="940.843" y2="1878.0758" gradientTransform="matrix(1 0 0 1 12.5415 0)">
						<stop  offset="0" style="stop-color:#AA80F9"/>
						<stop  offset="0.9964" style="stop-color:#6165D7"/>
					</linearGradient>
					<path style="fill:url(#SVGID_00000080894075294318273040000005394094092291403920_);" d="M1390.464,2060.126l-644.23-40.979
						c-74.886-3.708-132.76-64.667-132.76-136.074v-0.785c0-71.406,57.874-132.605,132.76-136.624l642.206-40.05
						c12.338-0.662,126.519,6.433,126.519,15.851c0,9.418-95.97,18.422-108.308,18.961l-660.417,31.677
						c-60.695,2.652-108.062,52.007-108.062,110.13v0.792c0,58.123,47.366,107.281,108.062,109.682l660.417,33.02
						c12.338,0.488,108.308,5.011,108.308,14.429C1514.959,2049.576,1402.801,2060.737,1390.464,2060.126z"/>
				</g>
				<g>
					
						<linearGradient id="SVGID_00000067237619315271186890000003456407248142788226_" gradientUnits="userSpaceOnUse" x1="-1500.0054" y1="1882.2356" x2="-3.0672" y2="1882.2356" gradientTransform="matrix(-1 0 0 1 1404.4067 0)">
						<stop  offset="0" style="stop-color:#D8DEE8"/>
						<stop  offset="1" style="stop-color:#FFFFFF"/>
					</linearGradient>
					<polygon style="fill:url(#SVGID_00000067237619315271186890000003456407248142788226_);" points="2904.412,2029.689 
						1407.474,2043.514 1407.474,1720.957 2904.412,1734.868 					"/>
					
						<linearGradient id="SVGID_00000010279436989661212370000002301123436403236030_" gradientUnits="userSpaceOnUse" x1="1360.8428" y1="1728.174" x2="2919.7598" y2="1728.174" gradientTransform="matrix(1 0 0 1 12.5415 0)">
						<stop  offset="0" style="stop-color:#AA80F9"/>
						<stop  offset="0.9964" style="stop-color:#6165D7"/>
					</linearGradient>
					<path style="fill:url(#SVGID_00000010279436989661212370000002301123436403236030_);" d="M2916.792,1751.677l-1524.745-12.568
						c-10.303-0.085-18.664-7.871-18.664-17.391s8.361-17.151,18.664-17.046l1524.745,15.581
						c8.569,0.088,15.509,7.186,15.509,15.855S2925.361,1751.747,2916.792,1751.677z"/>
					
						<linearGradient id="SVGID_00000167365851297042918520000001449173421509330592_" gradientUnits="userSpaceOnUse" x1="1360.8428" y1="2037.3694" x2="2919.7598" y2="2037.3694" gradientTransform="matrix(1 0 0 1 12.5415 0)">
						<stop  offset="0" style="stop-color:#AA80F9"/>
						<stop  offset="0.9964" style="stop-color:#6165D7"/>
					</linearGradient>
					<path style="fill:url(#SVGID_00000167365851297042918520000001449173421509330592_);" d="M2916.792,2045.287l-1524.745,15.588
						c-10.303,0.105-18.664-7.526-18.664-17.046c0-9.519,8.361-17.306,18.664-17.391l1524.745-12.575
						c8.569-0.071,15.509,6.9,15.509,15.568S2925.361,2045.199,2916.792,2045.287z"/>
				</g>
			</g>
			<path style="opacity:0.5;fill:#FFFFFF;" d="M1294.129,2469.151l-172.304-34.461c-39.9-107.875-36.906-205.854,0-322.455
				l172.304,14.769C1258.622,2250.584,1263.991,2363.192,1294.129,2469.151z"/>
			
				<linearGradient id="SVGID_00000079468948984313376580000003008981373544552859_" gradientUnits="userSpaceOnUse" x1="868.282" y1="2082.519" x2="807.1948" y2="1992.0782" gradientTransform="matrix(1 0 0 1 12.5415 0)">
				<stop  offset="0" style="stop-color:#FFC444"/>
				<stop  offset="0.9964" style="stop-color:#F36F56"/>
			</linearGradient>
			<path style="opacity:0.3;fill:url(#SVGID_00000079468948984313376580000003008981373544552859_);" d="M949.52,2031.006
				l-4.923-179.689L773.524,2021.16c0,0-87.383,39.384-72.614,120.613l100.921-29.538l93.537,39.384
				C895.368,2151.619,897.761,2064.073,949.52,2031.006z"/>
			
				<linearGradient id="SVGID_00000157282191047582356800000001860858441236868516_" gradientUnits="userSpaceOnUse" x1="851.408" y1="2057.5369" x2="762.1628" y2="1925.4076" gradientTransform="matrix(1 0 0 1 12.5415 0)">
				<stop  offset="0" style="stop-color:#AA80F9"/>
				<stop  offset="0.9964" style="stop-color:#6165D7"/>
			</linearGradient>
			<path style="fill:url(#SVGID_00000157282191047582356800000001860858441236868516_);" d="M755.063,1856.241l189.535-4.923
				c0,0-91.075,61.537-49.23,300.301c0,0-81.229-31.999-115.69-76.306l-78.768,66.46
				C700.91,2141.773,654.142,1937.47,755.063,1856.241z"/>
		</g>
		<g>
			
				<linearGradient id="SVGID_00000139282588133203291910000012873577700003883417_" gradientUnits="userSpaceOnUse" x1="946.923" y1="702.8055" x2="1906.858" y2="1354.8363" gradientTransform="matrix(1 0 0 1 93.6256 0)">
				<stop  offset="0" style="stop-color:#311944"/>
				<stop  offset="1" style="stop-color:#6B3976"/>
			</linearGradient>
			<path style="fill:url(#SVGID_00000139282588133203291910000012873577700003883417_);" d="M1093.288,1049.632
				c-18.058-11.708-1.604-45.768-0.632-118.925c1.192-89.65-22.619-106.356-3.494-141.528
				c23.385-43.01,82.253-60.808,121.254-61.647c8.602-0.184,10.612-4.882,82.676,13.781c129.832,33.625,162.334-2.42,220.475,33.585
				c56.172,34.788,31.574,72.886,86.122,113.682c88.418,66.129,181.396-5.364,244.588,49.951
				c59.771,52.321,61.148,185.623-1.722,258.369c-71.271,82.469-199.787,57.692-285.926,41.339
				c-18.124-3.439-109.663-22.663-204.974-93.01c-52.724-38.918-88.928-80.478-111.96-111.099
				c-5.405-6.083-13.841-13.454-24.975-14.641c-13.368-1.427-24.106,6.75-29.281,10.334
				C1158.265,1048.64,1111.027,1061.132,1093.288,1049.632z"/>
			
				<linearGradient id="SVGID_00000062188202545761736750000009120369672487417000_" gradientUnits="userSpaceOnUse" x1="873.857" y1="1204.2935" x2="1172.731" y2="1204.2935">
				<stop  offset="0.0036" style="stop-color:#E38DDD"/>
				<stop  offset="1" style="stop-color:#9571F6"/>
			</linearGradient>
			<path style="fill:url(#SVGID_00000062188202545761736750000009120369672487417000_);" d="M1165.847,1000.5
				c-23.219-21.154-106.079,19.617-160.992,73.729c-64.514,63.573-59.552,115.117-115.854,194.094
				c-27.986,39.263-21.125,184.578,54.166,135.415c52.302-34.153,79.214-79.406,130.901-168.518
				C1125.942,1145.785,1194.872,1026.944,1165.847,1000.5z"/>
			
				<linearGradient id="SVGID_00000113325506097762109140000015711492155002822301_" gradientUnits="userSpaceOnUse" x1="128.5435" y1="2467.3252" x2="269.6169" y2="2467.3252" gradientTransform="matrix(0.831 -0.5562 0.5562 0.831 -842.4217 279.3084)">
				<stop  offset="0" style="stop-color:#311944"/>
				<stop  offset="1" style="stop-color:#6B3976"/>
			</linearGradient>
			<path style="fill:url(#SVGID_00000113325506097762109140000015711492155002822301_);" d="M658.725,2243.388l26.404-56.098
				c3.751-7.969,9.599-14.768,16.919-19.667l13.073-8.75c0,0,31.252-0.83,36.115,18.814c1.046,24.946-47.432,80.684-78.09,102.818
				c-5.091,3.674-12.347,8.572-16.758,6.051C648.922,2282.288,654.16,2259.343,658.725,2243.388z"/>
			
				<linearGradient id="SVGID_00000125574972508435099220000000189641485841464216_" gradientUnits="userSpaceOnUse" x1="581.5657" y1="2289.4531" x2="811.7739" y2="1598.8267" gradientTransform="matrix(1 0 0 1 93.6256 0)">
				<stop  offset="0" style="stop-color:#FFC444"/>
				<stop  offset="0.9964" style="stop-color:#F36F56"/>
			</linearGradient>
			<path style="fill:url(#SVGID_00000125574972508435099220000000189641485841464216_);" d="M708.342,2128.372
				c4.158,24.061-1.102,36.606-6.772,43.633c-3.99,4.945-36.37,58.335-23.07,66.956c6.002,3.89,47.139-47.192,51.129-55.019
				c3.613-7.088,5.962-5.415,6.173-24.727c0.137-12.714,2.723-22.947,4.755-29.35
				C729.818,2129.367,719.081,2128.871,708.342,2128.372z"/>
			
				<linearGradient id="SVGID_00000080173832358589054720000010646266986081960633_" gradientUnits="userSpaceOnUse" x1="542.9663" y1="1972.3118" x2="622.0297" y2="1972.3118" gradientTransform="matrix(1 0 0 1 93.6256 0)">
				<stop  offset="0" style="stop-color:#311944"/>
				<stop  offset="1" style="stop-color:#6B3976"/>
			</linearGradient>
			<path style="fill:url(#SVGID_00000080173832358589054720000010646266986081960633_);" d="M661.583,1937.68
				c0,0-29.224,34.87-24.468,73.098c4.755,38.225,55.935-17.662,63.068-36.55c7.137-18.886,15.472-45.796,15.472-45.796
				S679.767,1906.104,661.583,1937.68z"/>
			
				<linearGradient id="SVGID_00000181796038688869298810000001916566685808976061_" gradientUnits="userSpaceOnUse" x1="497.1436" y1="2189.4053" x2="626.2458" y2="1802.0974" gradientTransform="matrix(1 0 0 1 93.6256 0)">
				<stop  offset="0" style="stop-color:#FFC444"/>
				<stop  offset="0.9964" style="stop-color:#F36F56"/>
			</linearGradient>
			<path style="fill:url(#SVGID_00000181796038688869298810000001916566685808976061_);" d="M672.731,1883.12
				c0,0,7.928,40.624-7.193,62.065c-7.531,10.679-17.69,19.737-14.703,28.43c2.002,5.825,9.603,10.011,16.042,9.35
				c12.328-1.266,19.161-20.165,23.982-33.495c7.118-19.689,11.087-61.819,11.087-61.819L672.731,1883.12z"/>
			
				<linearGradient id="SVGID_00000097481013322711923060000003763755883345508248_" gradientUnits="userSpaceOnUse" x1="656.222" y1="1536.882" x2="752.5161" y2="2093.5835" gradientTransform="matrix(1 0 0 1 93.6256 0)">
				<stop  offset="0" style="stop-color:#40447E"/>
				<stop  offset="0.9964" style="stop-color:#3C3B6B"/>
			</linearGradient>
			<path style="fill:url(#SVGID_00000097481013322711923060000003763755883345508248_);" d="M696.022,1917.365
				c-8.988-3.272-17.975-6.547-26.962-9.82c-14.021-32.024-31.132-84.623-25.417-148.556
				c14.699-164.415,166.764-251.539,183.657-260.863c41.431,20.788,83.396,50.113,84.916,87.082
				c1.907,46.408-61.314,70.939-120.744,138.8C755.799,1764.74,717.681,1825.434,696.022,1917.365z"/>
			
				<linearGradient id="SVGID_00000087380205091808152030000012587633229342333374_" gradientUnits="userSpaceOnUse" x1="792.2122" y1="2196.6553" x2="929.1316" y2="1763.3284" gradientTransform="matrix(1 0 0 1 93.6256 0)">
				<stop  offset="0" style="stop-color:#40447E"/>
				<stop  offset="0.9964" style="stop-color:#3C3B6B"/>
			</linearGradient>
			<path style="fill:url(#SVGID_00000087380205091808152030000012587633229342333374_);" d="M705.71,2147.178
				c-29.694-115.998-22.107-210.656-13.542-265.187c12.948-82.419,39.283-250.068,151.213-312.582
				c24.443-13.652,59.385-25.876,101.973-63.83c35.565-31.694,58.17-65.028,71.809-88.512
				c149.694-43.913,287.766-26.117,348.693,54.166c7.039,9.278,24.664,29.399,28.074,59.069
				c7.694,66.943-58.083,147.536-131.891,164.366c-93.804,21.391-53.811-7.346-136.92,24.701
				c-23.247,8.964-151.668-0.699-191.089,43.729c-50.148,56.517-64.039,72.964-74.705,93.832
				c-31.757,62.14-55.839,108.012-59.352,167.462c-0.817,13.849-1.307,41.83-17.528,72.007
				c-12.452,23.166-29.331,38.611-41.888,48.152C728.94,2145.426,717.325,2146.304,705.71,2147.178z"/>
			
				<linearGradient id="SVGID_00000158028949337419335070000009991906312760892075_" gradientUnits="userSpaceOnUse" x1="791.6056" y1="2196.4653" x2="928.5251" y2="1763.1379" gradientTransform="matrix(1 0 0 1 93.6256 0)">
				<stop  offset="0" style="stop-color:#40447E"/>
				<stop  offset="0.9964" style="stop-color:#3C3B6B"/>
			</linearGradient>
			<path style="opacity:0.3;fill:url(#SVGID_00000158028949337419335070000009991906312760892075_);" d="M1393.929,1530.302
				c-3.409-29.67-21.034-49.791-28.074-59.069c-60.926-80.282-198.998-98.078-348.693-54.166
				c-13.638,23.484-36.243,56.818-71.806,88.512c-42.589,37.954-77.531,50.178-101.975,63.83
				c-68.35,38.174-104.75,115.54-125.708,188.775c31.096-48.213,57.713-61.031,78.312-61.26
				c29.486-0.327,42.66,24.881,77.864,21.441c33.655-3.289,39.453-31.305,76.736-38.367c32.11-6.082,55.857,11.505,80.659,23.133
				c103.06,48.316,225.842-16.099,231.467-18.685C1323.31,1656.583,1402.009,1600.61,1393.929,1530.302z"/>
			
				<linearGradient id="SVGID_00000059993598410513670400000016486381818966848134_" gradientUnits="userSpaceOnUse" x1="984.8883" y1="1480.6948" x2="1080.9606" y2="2036.1138" gradientTransform="matrix(1 0 0 1 93.6256 0)">
				<stop  offset="0" style="stop-color:#40447E"/>
				<stop  offset="0.9964" style="stop-color:#3C3B6B"/>
			</linearGradient>
			<path style="fill:url(#SVGID_00000059993598410513670400000016486381818966848134_);" d="M783.27,1621.291
				c16.943-0.9,43.035-1.421,74.507,1.689c149.363,14.76,190.539,88.642,313.984,106.67c29.202,4.266,159.221,23.255,215.536-51.908
				c40.429-53.963,34.312-146.946-9.909-183.517c-18.715-15.477-37.245-15.047-157.103-13.964
				c-45.138,0.409-90.278,0.555-135.415,1.13c-191.067,2.435-227.607-10.797-262.372,20.805
				C806.28,1516.938,782.565,1548.603,783.27,1621.291z"/>
			<g>
				<g>
					
						<linearGradient id="SVGID_00000010269942379837577460000017063389998078657931_" gradientUnits="userSpaceOnUse" x1="1187.6086" y1="1214.7523" x2="1305.918" y2="1755.5942">
						<stop  offset="0.0036" style="stop-color:#E38DDD"/>
						<stop  offset="1" style="stop-color:#9571F6"/>
					</linearGradient>
					<path style="fill:url(#SVGID_00000010269942379837577460000017063389998078657931_);" d="M1186.633,1008.253
						c0,0,150.816-43.982,217.237,31.207c12.194,13.804,21.836,31.957,28.851,66.997c35.752,178.565-99.475,285.817-46.198,380.02
						c21.156,37.409,58.419,48.679,84.9,115.909c4.483,11.381,20.698,52.55,5.819,65.521c-13.104,11.424-34.654-12.696-72.935-8.037
						c-40.539,4.932-50.01,36.074-77.285,31.54c-17.783-2.958-25.449-18.14-51.648-55.993
						c-37.928-54.801-56.892-82.201-70.486-91.809c-53.637-37.907-95.093,11.528-156.259-26.008
						c-22.144-13.591-104.191-119.227-80.053-90.208l0,0c57.454-71.677,70.806-130.811,72.178-171.927
						c1.506-45.076-11.488-65.563,0-118.849c0,0,12.818-59.455,59.062-110.509
						C1106.453,1018.778,1114.367,1011.145,1186.633,1008.253z"/>
				</g>
			</g>
			<g>
				
					<linearGradient id="SVGID_00000124160121731582769150000002841546445514512310_" gradientUnits="userSpaceOnUse" x1="843.8235" y1="1231.3835" x2="853.6346" y2="970.0482" gradientTransform="matrix(-0.984 0.1784 0.1784 0.984 1842.0619 -244.2395)">
					<stop  offset="0" style="stop-color:#FFC444"/>
					<stop  offset="0.9964" style="stop-color:#F36F56"/>
				</linearGradient>
				<path style="fill:url(#SVGID_00000124160121731582769150000002841546445514512310_);" d="M1235.056,910.431
					c-2.043,9.542-12.439,60.747,8.511,73.921c4.541,2.858,13.266,4.492,30.719,7.764c11.426,2.141,21.013,3.454,27.775,4.263
					c-0.977,8.586-3.869,22.561-13.778,35.275c-27.777,35.636-83.472,26.415-91.415,24.968
					c-28.015-5.101-55.583-13.757-62.241-19.047c-10.137-8.055-18.108-14.099-22.822-20.239
					c10.842-5.239,32.729-19.056,47.419-23.578c10.978-3.377,21.282-5.787,30.656-7.517c1.539-9.891,3.082-19.782,4.623-29.674
					C1208.021,941.188,1221.539,925.81,1235.056,910.431z"/>
				
					<linearGradient id="SVGID_00000100350870945444604770000007749551134294990767_" gradientUnits="userSpaceOnUse" x1="840.7616" y1="1000.6754" x2="836.562" y2="1339.0356" gradientTransform="matrix(-0.984 0.1784 0.1784 0.984 1842.0619 -244.2395)">
					<stop  offset="0" style="stop-color:#FFC444"/>
					<stop  offset="0.9964" style="stop-color:#F36F56"/>
				</linearGradient>
				<path style="fill:url(#SVGID_00000100350870945444604770000007749551134294990767_);" d="M1236.037,935.95
					c0,0-3.786,37.524-40.262,44.136c-32.661,5.922-57.246-73.002-40.532-93.416c5.576-6.81,19.339-13.288,31.272-12.945
					c8.391,0.243,36.737,11.039,40.693,39.4c5.646-5.947,12.679-7.656,16.147-5.166c4.4,3.159,2.043,12.345,1.508,14.426
					C1243.013,929.596,1238.306,934.065,1236.037,935.95z"/>
			</g>
			
				<linearGradient id="SVGID_00000015340780327215989150000009166358565371413154_" gradientUnits="userSpaceOnUse" x1="964.1762" y1="1462.8196" x2="1483.3947" y2="1462.8196">
				<stop  offset="0" style="stop-color:#AA80F9"/>
				<stop  offset="0.9964" style="stop-color:#6165D7"/>
			</linearGradient>
			<path style="opacity:0.3;fill:url(#SVGID_00000015340780327215989150000009166358565371413154_);" d="M968.575,1427.392
				c6.913-8.625,13.154-17.057,18.846-25.308c31.687-10.617,59.101-14.567,81.214-15.641c49.882-2.419,77.196,9.317,111.15-11.115
				c38.541-23.194,31.719-55.389,68.913-73.36c39.145-18.913,66.823,2.46,104.481-4.445c22.742-4.17,50.444-19.378,78.713-63.744
				c-21.647,106.816-84.608,183.317-45.369,252.698c21.156,37.409,58.419,48.679,84.9,115.909
				c4.483,11.381,20.698,52.55,5.819,65.521c-13.105,11.424-34.654-12.696-72.935-8.037c-40.539,4.932-50.011,36.074-77.285,31.54
				c-17.783-2.958-25.449-18.14-51.648-55.993c-37.928-54.801-56.892-82.201-70.486-91.809
				c-53.637-37.907-95.094,11.528-156.259-26.008C1026.484,1504.009,944.437,1398.373,968.575,1427.392z"/>
			<g>
				
					<linearGradient id="SVGID_00000050630699858616674750000014981911284816172944_" gradientUnits="userSpaceOnUse" x1="1369.3873" y1="1174.9883" x2="1487.6965" y2="1715.8298">
					<stop  offset="0.0036" style="stop-color:#E38DDD"/>
					<stop  offset="1" style="stop-color:#9571F6"/>
				</linearGradient>
				<path style="fill:url(#SVGID_00000050630699858616674750000014981911284816172944_);" d="M1236.569,1434.316
					c-4.441-11.729-8.884-23.457-13.326-35.187c49.089-13.46,116.982-33.344,186.619-58.228
					c10.906-3.898,23.863-8.724,28.107-20.201c11.907-32.193-63.792-65.552-93.22-135.845
					c-27.217-65.011-12.236-155.23,19.35-165.888c65.727-22.179,298.805,267.947,215.559,390.249
					C1532.604,1478.351,1387.529,1489.359,1236.569,1434.316z"/>
			</g>
			
				<linearGradient id="SVGID_00000091706797783211690240000010259377804187901882_" gradientUnits="userSpaceOnUse" x1="1005.4037" y1="1407.4154" x2="726.1333" y2="920.1782">
				<stop  offset="0" style="stop-color:#311944"/>
				<stop  offset="1" style="stop-color:#6B3976"/>
			</linearGradient>
			<path style="fill:url(#SVGID_00000091706797783211690240000010259377804187901882_);" d="M1043.404,1436.018
				c-6.466-5.649-75.016-257.598-94.754-330.524c-2.333-8.618-13.173-11.352-19.351-4.904l-72.453,75.633l73.302,303.579
				l37.908,18.324C968.057,1498.126,1050.967,1442.623,1043.404,1436.018z"/>
			
				<linearGradient id="SVGID_00000116926486833678414710000003472216722848930229_" gradientUnits="userSpaceOnUse" x1="907.9667" y1="1547.8174" x2="1075.3131" y2="1259.3654">
				<stop  offset="0" style="stop-color:#311944"/>
				<stop  offset="1" style="stop-color:#6B3976"/>
			</linearGradient>
			<path style="fill:url(#SVGID_00000116926486833678414710000003472216722848930229_);" d="M1190.694,1449.152l-62.888-277.681
				c-3.247-14.339-16.99-23.757-31.532-21.613l-209.529,30.891l77.431,317.376l201.138-14.711
				C1182.473,1482.16,1194.494,1465.932,1190.694,1449.152z"/>
			
				<linearGradient id="SVGID_00000018237799399577272150000010226667091962304913_" gradientUnits="userSpaceOnUse" x1="-823.6654" y1="1399.8907" x2="-947.6526" y2="1516.7329" gradientTransform="matrix(-1 0 0 1 323.911 0)">
				<stop  offset="0" style="stop-color:#FFC444"/>
				<stop  offset="0.9964" style="stop-color:#F36F56"/>
			</linearGradient>
			<path style="fill:url(#SVGID_00000018237799399577272150000010226667091962304913_);" d="M1223.244,1399.128
				c-30.817-16.371-67.707,0.409-70.084,1.532c-6.771,3.197-16.627,8.89-26.584,19.062c-1.127,1.536-14.494,20.059-9.625,25.995
				c3.905,4.755,19.021,0.814,37.19-10.487c7.616-1.068,18.954-2.048,32.536-0.797c24.943,2.301,36.369,10.18,45.424,3.379
				c6.63-4.979,8.89-15.507,6.504-23.334C1236.043,1406.07,1228.461,1401.9,1223.244,1399.128z"/>
			
				<rect x="950.369" y="1226.835" transform="matrix(0.9906 -0.137 0.137 0.9906 -161.6292 152.2045)" style="fill:#FFFFFF;" width="148.443" height="46.241"/>
		</g>
		<g>
			
				<linearGradient id="SVGID_00000146501440221503982210000009666842468779516568_" gradientUnits="userSpaceOnUse" x1="2095.4875" y1="2503.4089" x2="1960.2712" y2="5437.1484">
				<stop  offset="0.0036" style="stop-color:#26264F"/>
				<stop  offset="1" style="stop-color:#444B8C"/>
			</linearGradient>
			<path style="fill:url(#SVGID_00000146501440221503982210000009666842468779516568_);" d="M2894.087,1152.525
				c0.12-29.359-23.766-53.724-53.45-54.418l-1426.161-33.346c-35.451-0.829-64.297,24.647-64.297,56.901V3021.02
				c0,31.925,28.693,55.114,63.956,51.812l1419.249-132.914c29.554-2.768,53.528-28.58,53.646-57.667L2894.087,1152.525z"/>
			<g>
				
					<linearGradient id="SVGID_00000150822801489465257140000015756148422979616924_" gradientUnits="userSpaceOnUse" x1="2231.7451" y1="876.8486" x2="2096.5288" y2="3810.5879">
					<stop  offset="0" style="stop-color:#444B8C"/>
					<stop  offset="0.9964" style="stop-color:#26264F"/>
				</linearGradient>
				<path style="fill:url(#SVGID_00000150822801489465257140000015756148422979616924_);" d="M2955.505,1149.733
					c0.12-29.359-23.765-53.724-53.45-54.418l-1426.161-33.345c-35.451-0.829-64.297,24.647-64.297,56.9v1899.358
					c0,31.925,28.693,55.114,63.956,51.812l1419.248-132.914c29.554-2.768,53.528-28.58,53.646-57.667L2955.505,1149.733z"/>
				
					<linearGradient id="SVGID_00000072257545973193430370000016064160364886545286_" gradientUnits="userSpaceOnUse" x1="2232.3633" y1="1052.6324" x2="2117.6279" y2="3542.0061">
					<stop  offset="0.494" style="stop-color:#EBEFF2"/>
					<stop  offset="1" style="stop-color:#FFFFFF"/>
				</linearGradient>
				<path style="fill:url(#SVGID_00000072257545973193430370000016064160364886545286_);" d="M2890.531,1269.417l-5.859,1498.442
					c-0.06,15.459-12.815,29.042-28.545,30.373l-1331.112,112.636c-18.535,1.569-33.56-10.77-33.556-27.591l0.346-1631.072
					c0.002-9.266,4.516-17.522,11.665-23.033c5.92-4.603,13.608-7.311,22.053-7.192l1336.575,18.841
					C2877.888,1241.043,2890.592,1253.834,2890.531,1269.417z"/>
				<path style="opacity:0.9;fill:#FFFFFF;" d="M2831.927,2800.28l-1305.907,110.503c-18.533,1.568-34.565-10.685-34.561-27.506
					l0.346-1631.072c0.002-9.266,5.022-17.515,12.172-23.026c4.29,9.679,9.167,19.219,14.155,28.561
					c146.944,275.069,440.423,91.428,633.755,362.454c151.194,211.947,33.759,414.949,204.365,650.023
					c134.758,185.627,255.483,120.158,378.129,298.806C2781.584,2637.78,2812.239,2718.237,2831.927,2800.28z"/>
			</g>
			<g>
				<defs>
					<path id="SVGID_00000109736576461541933930000001566988452211239816_" d="M2890.531,1269.417l-5.859,1498.442
						c-0.06,15.459-12.815,29.042-28.545,30.373l-1331.112,112.636c-18.535,1.569-33.56-10.77-33.556-27.591l0.346-1631.072
						c0.002-9.266,4.516-17.522,11.665-23.033c5.92-4.603,13.608-7.311,22.053-7.192l1336.575,18.841
						C2877.888,1241.043,2890.592,1253.834,2890.531,1269.417z"/>
				</defs>
				<clipPath id="SVGID_00000036234784057600694650000014474999698730614917_">
					<use xlink:href="#SVGID_00000109736576461541933930000001566988452211239816_"  style="overflow:visible;"/>
				</clipPath>
				<g style="opacity:0.5;clip-path:url(#SVGID_00000036234784057600694650000014474999698730614917_);">
					<polygon style="fill:#FFFFFF;" points="2305.398,2238.288 2088.833,2248.352 2088.877,2224.249 2305.455,2214.5 					"/>
					<polygon style="fill:#FFFFFF;" points="2304.01,2818.849 2087.764,2836.588 2087.808,2812.56 2304.067,2795.134 					"/>
				</g>
				<g style="clip-path:url(#SVGID_00000036234784057600694650000014474999698730614917_);">
					<g>
						<g>
							
								<linearGradient id="SVGID_00000166637481440642034150000000426809657957381054_" gradientUnits="userSpaceOnUse" x1="1927.979" y1="1674.5721" x2="2090.5452" y2="1674.5721">
								<stop  offset="0" style="stop-color:#FF9085"/>
								<stop  offset="1" style="stop-color:#FB6FBB"/>
							</linearGradient>
							<polygon style="fill:url(#SVGID_00000166637481440642034150000000426809657957381054_);" points="2089.213,2039.354 
								1927.979,2044.809 1929.008,1304.336 2090.545,1306.034 							"/>
							<polygon style="fill:#FFFFFF;" points="2037.963,1901.201 1977.47,1902.738 1978.165,1445.703 2038.729,1445.828 							"/>
						</g>
						
							<linearGradient id="SVGID_00000034076695309366084390000002699789317633995180_" gradientUnits="userSpaceOnUse" x1="1845.2137" y1="1675.9723" x2="1928.944" y2="1675.9723">
							<stop  offset="0" style="stop-color:#FF9085"/>
							<stop  offset="1" style="stop-color:#FB6FBB"/>
						</linearGradient>
						<polygon style="fill:url(#SVGID_00000034076695309366084390000002699789317633995180_);" points="1928.944,1304.336 
							1845.214,1348.147 1845.214,2047.609 1927.979,2044.809 						"/>
					</g>
					<g>
						
							<linearGradient id="SVGID_00000099630137051097825020000008628462101619088800_" gradientUnits="userSpaceOnUse" x1="1840.2725" y1="880.4593" x2="1774.3785" y2="2676.0315">
							<stop  offset="0" style="stop-color:#AA80F9"/>
							<stop  offset="0.9964" style="stop-color:#6165D7"/>
						</linearGradient>
						<polygon style="fill:url(#SVGID_00000099630137051097825020000008628462101619088800_);" points="1927.979,2044.809 
							1692.114,2052.788 1692.653,1348.7 1928.944,1350.53 						"/>
						<g>
							<g style="opacity:0.9;">
								<polygon style="fill:#FFFFFF;" points="1928.835,1429.307 1692.592,1428.592 1692.611,1403.801 1928.869,1404.863 								
									"/>
								<polygon style="fill:#FFFFFF;" points="1928.778,1470.041 1692.56,1469.902 1692.579,1445.117 1928.812,1445.602 								
									"/>
							</g>
							<g style="opacity:0.9;">
								<polygon style="fill:#FFFFFF;" points="1928.107,1952.747 1692.186,1959.428 1692.205,1934.707 1928.141,1928.37 								
									"/>
								<polygon style="fill:#FFFFFF;" points="1928.051,1993.368 1692.154,2000.622 1692.173,1975.906 1928.084,1968.996 								
									"/>
							</g>
						</g>
					</g>
					<g>
						<g>
							
								<linearGradient id="SVGID_00000046336621059655686300000011438326300647733376_" gradientUnits="userSpaceOnUse" x1="1658.5413" y1="1107.4117" x2="1391.9916" y2="4089.4565">
								<stop  offset="0" style="stop-color:#FFC444"/>
								<stop  offset="0.9964" style="stop-color:#F36F56"/>
							</linearGradient>
							<polygon style="fill:url(#SVGID_00000046336621059655686300000011438326300647733376_);" points="1692.114,2052.788 
								1523.004,2058.51 1523.245,1300.069 1692.689,1301.851 							"/>
							<polygon style="opacity:0.5;fill:#FFFFFF;" points="1671.624,1398.191 1547.621,1397.593 1547.642,1344.797 
								1671.661,1345.778 							"/>
						</g>
						
							<linearGradient id="SVGID_00000161618044540083806140000008308573754911563426_" gradientUnits="userSpaceOnUse" x1="1439.5146" y1="1679.9871" x2="1523.2452" y2="1679.9871">
							<stop  offset="0" style="stop-color:#FFC444"/>
							<stop  offset="0.9964" style="stop-color:#F36F56"/>
						</linearGradient>
						<polygon style="fill:url(#SVGID_00000161618044540083806140000008308573754911563426_);" points="1523.245,1300.069 
							1439.515,1343.881 1439.515,2059.905 1523.004,2058.51 						"/>
					</g>
				</g>
				<g style="clip-path:url(#SVGID_00000036234784057600694650000014474999698730614917_);">
					<g>
						
							<linearGradient id="SVGID_00000081632182331476399560000017526658004948542611_" gradientUnits="userSpaceOnUse" x1="2783.3369" y1="1355.4952" x2="2672.9482" y2="2369.6948">
							<stop  offset="0.0036" style="stop-color:#E38DDD"/>
							<stop  offset="1" style="stop-color:#9571F6"/>
						</linearGradient>
						<polygon style="fill:url(#SVGID_00000081632182331476399560000017526658004948542611_);" points="2822.231,2014.554 
							2675.038,2019.534 2677.421,1312.205 2824.865,1313.755 						"/>
						<polygon style="fill:#FFFFFF;" points="2775.702,1882.464 2720.479,1883.866 2722.001,1447.231 2777.283,1447.345 						"/>
					</g>
					
						<linearGradient id="SVGID_00000015354801047864985920000009132668590679406000_" gradientUnits="userSpaceOnUse" x1="2593.3672" y1="1668.1415" x2="2677.0974" y2="1668.1415">
						<stop  offset="0.0036" style="stop-color:#E38DDD"/>
						<stop  offset="1" style="stop-color:#9571F6"/>
					</linearGradient>
					<polygon style="fill:url(#SVGID_00000015354801047864985920000009132668590679406000_);" points="2677.097,1312.205 
						2593.367,1353.947 2593.367,2024.078 2676.857,2019.534 					"/>
				</g>
				<g style="clip-path:url(#SVGID_00000036234784057600694650000014474999698730614917_);">
					
						<linearGradient id="SVGID_00000129171826453830617610000010832337561408073639_" gradientUnits="userSpaceOnUse" x1="2597.0261" y1="907.9003" x2="2534.1436" y2="2621.4141">
						<stop  offset="0" style="stop-color:#40447E"/>
						<stop  offset="0.9964" style="stop-color:#3C3B6B"/>
					</linearGradient>
					<polygon style="fill:url(#SVGID_00000129171826453830617610000010832337561408073639_);" points="2675.038,2019.534 
						2459.943,2026.811 2461.824,1354.659 2677.272,1356.328 					"/>
					<g>
						<g style="opacity:0.9;">
							<polygon style="fill:#FFFFFF;" points="2677.019,1431.574 2461.611,1430.922 2461.677,1407.257 2677.097,1408.225 							"/>
							<polygon style="fill:#FFFFFF;" points="2676.888,1470.483 2461.5,1470.356 2461.566,1446.696 2676.967,1447.139 							"/>
						</g>
						<g style="opacity:0.9;">
							<polygon style="fill:#FFFFFF;" points="2675.334,1931.586 2460.192,1937.679 2460.258,1914.078 2675.413,1908.299 							"/>
							<polygon style="fill:#FFFFFF;" points="2675.204,1970.392 2460.082,1977.007 2460.148,1953.411 2675.282,1947.109 							"/>
						</g>
					</g>
				</g>
				<g style="clip-path:url(#SVGID_00000036234784057600694650000014474999698730614917_);">
					<g>
						
							<linearGradient id="SVGID_00000065059805500705502310000012925320587343070909_" gradientUnits="userSpaceOnUse" x1="2432.2991" y1="1124.7782" x2="2178.1108" y2="3968.53">
							<stop  offset="0" style="stop-color:#AA80F9"/>
							<stop  offset="0.9964" style="stop-color:#6165D7"/>
						</linearGradient>
						<polygon style="fill:url(#SVGID_00000065059805500705502310000012925320587343070909_);" points="2459.943,2026.811 
							2305.891,2032.023 2307.622,1308.317 2461.949,1309.94 						"/>
						<polygon style="opacity:0.5;fill:#FFFFFF;" points="2442.565,1401.906 2329.621,1401.362 2329.745,1350.984 
							2442.702,1351.878 						"/>
					</g>
					
						<linearGradient id="SVGID_00000161610002875159239130000002581363873231383939_" gradientUnits="userSpaceOnUse" x1="2223.9897" y1="1670.0125" x2="2307.7202" y2="1670.0125">
						<stop  offset="0" style="stop-color:#AA80F9"/>
						<stop  offset="0.9964" style="stop-color:#6165D7"/>
					</linearGradient>
					<polygon style="fill:url(#SVGID_00000161610002875159239130000002581363873231383939_);" points="2307.72,1308.037 
						2223.99,1349.78 2223.99,2031.988 2307.48,2030.659 					"/>
				</g>
				<polygon style="clip-path:url(#SVGID_00000036234784057600694650000014474999698730614917_);fill:#D8DEE8;" points="
					2887.451,2073.886 1491.624,2126.539 1491.639,2054.296 2887.711,2007.517 				"/>
				<g style="clip-path:url(#SVGID_00000036234784057600694650000014474999698730614917_);">
					<g>
						
							<linearGradient id="SVGID_00000145045874897987559550000013677885522360888253_" gradientUnits="userSpaceOnUse" x1="2800.1396" y1="1915.257" x2="2680.4038" y2="3167.283">
							<stop  offset="0" style="stop-color:#FFC444"/>
							<stop  offset="0.9964" style="stop-color:#F36F56"/>
						</linearGradient>
						<polygon style="fill:url(#SVGID_00000145045874897987559550000013677885522360888253_);" points="2819.213,2817.397 
							2672.309,2829.828 2674.681,2125.535 2821.836,2119.578 						"/>
						<g>
							<g style="opacity:0.9;">
								<polygon style="fill:#FFFFFF;" points="2821.624,2175.909 2674.49,2182.389 2674.568,2159.132 2821.711,2152.866 								
									"/>
								<polygon style="fill:#FFFFFF;" points="2821.48,2214.306 2674.359,2221.143 2674.438,2197.891 2821.566,2191.269 								
									"/>
							</g>
							<g style="opacity:0.9;">
								<polygon style="fill:#FFFFFF;" points="2819.511,2738.288 2672.578,2749.986 2672.656,2726.799 2819.597,2715.314 								
									"/>
								<polygon style="fill:#FFFFFF;" points="2819.367,2776.571 2672.448,2788.623 2672.525,2765.442 2819.453,2753.602 								
									"/>
							</g>
						</g>
					</g>
					
						<linearGradient id="SVGID_00000044892515231274764610000011483364907149113271_" gradientUnits="userSpaceOnUse" x1="2559.9348" y1="2503.458" x2="2674.5332" y2="2503.458">
						<stop  offset="0" style="stop-color:#FFC444"/>
						<stop  offset="0.9964" style="stop-color:#F36F56"/>
					</linearGradient>
					<polygon style="fill:url(#SVGID_00000044892515231274764610000011483364907149113271_);" points="2674.533,2125.725 
						2559.935,2132.31 2564.854,2881.191 2673.596,2880.162 					"/>
				</g>
				<g style="clip-path:url(#SVGID_00000036234784057600694650000014474999698730614917_);">
					<g>
						
							<linearGradient id="SVGID_00000109711055919244884520000000651195951668357054_" gradientUnits="userSpaceOnUse" x1="2594.8496" y1="1715.7919" x2="2531.2231" y2="3449.5735">
							<stop  offset="0" style="stop-color:#AA80F9"/>
							<stop  offset="0.9964" style="stop-color:#6165D7"/>
						</linearGradient>
						<polygon style="fill:url(#SVGID_00000109711055919244884520000000651195951668357054_);" points="2672.309,2829.828 
							2457.644,2847.993 2459.517,2178.764 2674.533,2169.469 						"/>
					</g>
					<polygon style="fill:#FFFFFF;" points="2608.866,2724.027 2522.98,2730.698 2524.287,2290.679 2610.266,2286.35 					"/>
				</g>
				<g style="clip-path:url(#SVGID_00000036234784057600694650000014474999698730614917_);">
					<g>
						
							<linearGradient id="SVGID_00000149361715587674782410000016218350955023787199_" gradientUnits="userSpaceOnUse" x1="2430.4661" y1="1947.9668" x2="2174.6719" y2="4809.6841">
							<stop  offset="0" style="stop-color:#FF9085"/>
							<stop  offset="1" style="stop-color:#FB6FBB"/>
						</linearGradient>
						<polygon style="fill:url(#SVGID_00000149361715587674782410000016218350955023787199_);" points="2457.644,2847.993 
							2303.909,2861.001 2305.632,2140.473 2459.642,2134.239 						"/>
						<polygon style="opacity:0.5;fill:#FFFFFF;" points="2440.298,2226.778 2327.586,2231.979 2327.709,2181.822 
							2440.435,2176.967 						"/>
						<polygon style="opacity:0.5;fill:#FFFFFF;" points="2438.694,2810.412 2326.146,2819.663 2326.269,2769.663 2438.83,2760.756 
													"/>
					</g>
					
						<linearGradient id="SVGID_00000088108481077807205370000017201367147327201183_" gradientUnits="userSpaceOnUse" x1="2190.9954" y1="2518.2939" x2="2305.5942" y2="2518.2939">
						<stop  offset="0" style="stop-color:#FF9085"/>
						<stop  offset="1" style="stop-color:#FB6FBB"/>
					</linearGradient>
					<polygon style="fill:url(#SVGID_00000088108481077807205370000017201367147327201183_);" points="2305.594,2140.561 
						2190.995,2147.146 2195.915,2896.027 2304.657,2894.999 					"/>
				</g>
				<g style="clip-path:url(#SVGID_00000036234784057600694650000014474999698730614917_);">
					
						<linearGradient id="SVGID_00000055699771179376398550000008593807205140450460_" gradientUnits="userSpaceOnUse" x1="2215.0889" y1="2144.6951" x2="2169.0283" y2="3055.0745">
						<stop  offset="0" style="stop-color:#AA80F9"/>
						<stop  offset="0.9964" style="stop-color:#6165D7"/>
					</linearGradient>
					<polygon style="fill:url(#SVGID_00000055699771179376398550000008593807205140450460_);" points="2303.909,2861.001 
						2087.686,2879.298 2088.984,2165.316 2305.594,2156.338 					"/>
					<polygon style="fill:#FFFFFF;" points="2134.061,2875.35 2086.705,2879.298 2086.926,2165.118 2134.339,2163.436 					"/>
				</g>
				<g style="clip-path:url(#SVGID_00000036234784057600694650000014474999698730614917_);">
					<g>
						
							<linearGradient id="SVGID_00000056411556566510921750000013573343895154767516_" gradientUnits="userSpaceOnUse" x1="2063.4763" y1="1934.8844" x2="1938.0167" y2="3246.7588">
							<stop  offset="0" style="stop-color:#FFC444"/>
							<stop  offset="0.9964" style="stop-color:#F36F56"/>
						</linearGradient>
						<polygon style="fill:url(#SVGID_00000056411556566510921750000013573343895154767516_);" points="2087.686,2879.298 
							1926.8,2892.912 1927.825,2155.765 2089.013,2149.24 						"/>
						<g>
							<g style="opacity:0.9;">
								<polygon style="fill:#FFFFFF;" points="2088.906,2208.178 1927.742,2215.275 1927.776,2190.933 2088.949,2184.07 								
									"/>
								<polygon style="fill:#FFFFFF;" points="2088.833,2248.352 1927.686,2255.84 1927.719,2231.502 2088.877,2224.249 								
									"/>
							</g>
							<g style="opacity:0.9;">
								<polygon style="fill:#FFFFFF;" points="2087.837,2796.54 1926.916,2809.351 1926.95,2785.085 2087.88,2772.506 								"/>
								<polygon style="fill:#FFFFFF;" points="2087.764,2836.588 1926.86,2849.788 1926.894,2825.527 2087.808,2812.56 								"/>
							</g>
						</g>
					</g>
					
						<linearGradient id="SVGID_00000111186361826754811540000018059482092901757848_" gradientUnits="userSpaceOnUse" x1="1810.8145" y1="2533.6487" x2="1928.6093" y2="2533.6487">
						<stop  offset="0" style="stop-color:#FFC444"/>
						<stop  offset="0.9964" style="stop-color:#F36F56"/>
					</linearGradient>
					<polygon style="fill:url(#SVGID_00000111186361826754811540000018059482092901757848_);" points="1928.609,2155.916 
						1810.814,2169.469 1810.814,2911.381 1927.743,2910.353 					"/>
				</g>
				<g style="clip-path:url(#SVGID_00000036234784057600694650000014474999698730614917_);">
					<g>
						
							<linearGradient id="SVGID_00000145776674786155315550000006145405701115919515_" gradientUnits="userSpaceOnUse" x1="1839.7274" y1="1725.9286" x2="1773.0181" y2="3543.717">
							<stop  offset="0" style="stop-color:#40447E"/>
							<stop  offset="0.9964" style="stop-color:#3C3B6B"/>
						</linearGradient>
						<polygon style="fill:url(#SVGID_00000145776674786155315550000006145405701115919515_);" points="1926.8,2892.912 
							1691.456,2912.826 1691.993,2211.945 1927.761,2201.752 						"/>
					</g>
					<polygon style="fill:#FFFFFF;" points="1857.027,2782.427 1762.865,2789.742 1763.305,2328.999 1857.579,2324.251 					"/>
				</g>
				<g style="clip-path:url(#SVGID_00000036234784057600694650000014474999698730614917_);">
					<g>
						
							<linearGradient id="SVGID_00000134247572745119195730000015977369664120351139_" gradientUnits="userSpaceOnUse" x1="1658.4152" y1="1969.6532" x2="1390.1041" y2="4971.4043">
							<stop  offset="0.0036" style="stop-color:#E38DDD"/>
							<stop  offset="1" style="stop-color:#9571F6"/>
						</linearGradient>
						<polygon style="fill:url(#SVGID_00000134247572745119195730000015977369664120351139_);" points="1691.456,2912.826 
							1522.729,2927.103 1522.969,2172.152 1692.028,2165.309 						"/>
						<polygon style="opacity:0.5;fill:#FFFFFF;" points="1671.011,2262.277 1547.289,2267.986 1547.309,2215.433 
							1671.047,2210.104 						"/>
						<polygon style="opacity:0.5;fill:#FFFFFF;" points="1670.577,2873.55 1547.054,2883.703 1547.074,2831.321 1670.614,2821.545 
													"/>
					</g>
					
						<linearGradient id="SVGID_00000090284620470247652720000000154817833023116948_" gradientUnits="userSpaceOnUse" x1="1459.0568" y1="2550.3992" x2="1523.6663" y2="2550.3992">
						<stop  offset="0.0036" style="stop-color:#E38DDD"/>
						<stop  offset="1" style="stop-color:#9571F6"/>
					</linearGradient>
					<polygon style="fill:url(#SVGID_00000090284620470247652720000000154817833023116948_);" points="1523.666,2172.667 
						1459.057,2179.251 1459.057,2928.132 1522.729,2927.103 					"/>
				</g>
			</g>
		</g>
		<g>
			
				<linearGradient id="SVGID_00000070120309765750019660000006748562571841290920_" gradientUnits="userSpaceOnUse" x1="1064.7827" y1="2844.2561" x2="1862.8861" y2="2844.2561">
				<stop  offset="0" style="stop-color:#FFC444"/>
				<stop  offset="0.9964" style="stop-color:#F36F56"/>
			</linearGradient>
			<polygon style="fill:url(#SVGID_00000070120309765750019660000006748562571841290920_);" points="1064.783,2806.827 
				1435.619,2790.704 1862.886,2805.675 1441.377,2897.809 			"/>
			<g>
				
					<linearGradient id="SVGID_00000120552779137498841530000013602059588878580385_" gradientUnits="userSpaceOnUse" x1="1153.1544" y1="3160.6741" x2="1218.213" y2="3012.6975">
					<stop  offset="0" style="stop-color:#AA80F9"/>
					<stop  offset="0.9964" style="stop-color:#6165D7"/>
				</linearGradient>
				<path style="fill:url(#SVGID_00000120552779137498841530000013602059588878580385_);" d="M1363.571,3164.177l-300.384-80.845
					c-30.252-8.142-53.756-38.115-53.756-67.183v-0.319c0-29.067,23.504-48.569,53.756-43.233l322.176,52.722L1363.571,3164.177z"/>
				<g>
					
						<linearGradient id="SVGID_00000117653812253746546580000016271640797064560821_" gradientUnits="userSpaceOnUse" x1="1322.6515" y1="3075.7944" x2="1863.4009" y2="3075.7944">
						<stop  offset="0" style="stop-color:#D8DEE8"/>
						<stop  offset="1" style="stop-color:#FFFFFF"/>
					</linearGradient>
					<path style="fill:url(#SVGID_00000117653812253746546580000016271640797064560821_);" d="M1863.401,3103.463l-485.357,54.203
						c-30.4,3.395-55.393-17.804-55.393-47.398v-20.076c0-29.593,24.993-55.573,55.393-57.993l485.357-38.634
						C1841.924,3033.549,1836.969,3070.954,1863.401,3103.463z"/>
					
						<linearGradient id="SVGID_00000092443667753946906280000012027585382125122452_" gradientUnits="userSpaceOnUse" x1="1309.6024" y1="3076.0503" x2="1872.9111" y2="3076.0503">
						<stop  offset="0" style="stop-color:#AA80F9"/>
						<stop  offset="0.9964" style="stop-color:#6165D7"/>
					</linearGradient>
					<path style="fill:url(#SVGID_00000092443667753946906280000012027585382125122452_);" d="M1867.625,3108.846l-485.514,55.051
						c-39.651,4.496-72.509-23.276-72.509-61.992v-0.426c0-38.716,32.857-72.777,72.509-75.869l485.514-37.867
						c2.921-0.228,5.286,2.205,5.286,5.433c0,3.228-2.365,6.037-5.286,6.275l-485.514,39.529
						c-31.898,2.597-58.237,30.04-58.237,61.135v0.424c0,31.096,26.338,53.498,58.237,49.99l485.514-53.389
						c2.921-0.321,5.286,2.036,5.286,5.264S1870.546,3108.515,1867.625,3108.846z"/>
				</g>
			</g>
			<g>
				
					<linearGradient id="SVGID_00000043455647755276038410000007715328929128026281_" gradientUnits="userSpaceOnUse" x1="1247.5997" y1="2761.6704" x2="1133.542" y2="3145.8657">
					<stop  offset="0" style="stop-color:#FFC444"/>
					<stop  offset="0.9964" style="stop-color:#F36F56"/>
				</linearGradient>
				<path style="fill:url(#SVGID_00000043455647755276038410000007715328929128026281_);" d="M1376.191,3025.644l-313.003-53.048
					c-30.252-5.336-53.756-44.99-53.756-88.634v-0.48c0-43.645,23.504-78.28,53.756-77.155l332.035,12.333L1376.191,3025.644z"/>
				<g>
					
						<linearGradient id="SVGID_00000150094988012982548740000015213039783411173796_" gradientUnits="userSpaceOnUse" x1="1322.6515" y1="2914.1631" x2="1863.4009" y2="2914.1631">
						<stop  offset="0" style="stop-color:#D8DEE8"/>
						<stop  offset="1" style="stop-color:#FFFFFF"/>
					</linearGradient>
					<path style="fill:url(#SVGID_00000150094988012982548740000015213039783411173796_);" d="M1863.401,2979.271l-458.155,34.557
						c-45.185,3.408-82.594-29.792-82.594-74.227v-30.144c0-44.435,37.409-81.477,82.594-82.708l458.155-12.49
						C1841.855,2874.169,1837.038,2930.27,1863.401,2979.271z"/>
					
						<linearGradient id="SVGID_00000130646201060272886860000015153935585075853740_" gradientUnits="userSpaceOnUse" x1="1309.6024" y1="2915.8308" x2="1872.9111" y2="2915.8308">
						<stop  offset="0" style="stop-color:#FFC444"/>
						<stop  offset="0.9964" style="stop-color:#F36F56"/>
					</linearGradient>
					<path style="fill:url(#SVGID_00000130646201060272886860000015153935585075853740_);" d="M1867.625,2987.742l-485.514,37.867
						c-39.651,3.093-72.509-41.639-72.509-99.772v-0.639c0-58.133,32.857-106.244,72.509-107.229l485.514-12.067
						c2.921-0.073,5.286,3.798,5.286,8.645c0,4.847-2.365,8.847-5.286,8.935l-485.514,14.561
						c-31.898,0.957-58.237,39.732-58.237,86.422v0.637c0,46.69,26.338,82.757,58.237,80.433l485.514-35.373
						c2.921-0.213,5.286,3.544,5.286,8.391C1872.911,2983.4,1870.546,2987.514,1867.625,2987.742z"/>
				</g>
			</g>
			<path style="opacity:0.5;fill:#FFFFFF;" d="M1279.129,2981.904l-66.906-11.692c-15.623-42.643-14.449-81.815,0-128.634
				l66.906,4.757C1265.416,2895.602,1267.492,2940.228,1279.129,2981.904z"/>
		</g>
		<g>
			
				<linearGradient id="SVGID_00000161603786946548300400000002853255800190465724_" gradientUnits="userSpaceOnUse" x1="3365.4783" y1="2981.2717" x2="3384.5671" y2="3224.2219" gradientTransform="matrix(1 -0.0024 0.0024 1 -794.8005 3.3687)">
				<stop  offset="0" style="stop-color:#311944"/>
				<stop  offset="1" style="stop-color:#A03976"/>
			</linearGradient>
			<path style="fill:url(#SVGID_00000161603786946548300400000002853255800190465724_);" d="M2615.352,3097.639
				c0,0-76.756,35.108-77.997,40.685c-1.242,5.578,49.411-1.988,70.098-1.233c20.688,0.755,37.689-5.4,35.797-14.157
				c-1.895-8.757-9.189-30.777-9.189-30.777L2615.352,3097.639z"/>
			
				<linearGradient id="SVGID_00000053528377213734986370000003011744235507646891_" gradientUnits="userSpaceOnUse" x1="3414.7576" y1="3116.5303" x2="3411.2871" y2="2864.9116" gradientTransform="matrix(1 -0.0024 0.0024 1 -794.8005 3.3687)">
				<stop  offset="0" style="stop-color:#FFC444"/>
				<stop  offset="0.9964" style="stop-color:#F36F56"/>
			</linearGradient>
			<path style="fill:url(#SVGID_00000053528377213734986370000003011744235507646891_);" d="M2612.473,3069.304l4.757,34.584
				c0,0,12.175,4.301,20.334-0.838l3.396-37.952L2612.473,3069.304z"/>
			
				<linearGradient id="SVGID_00000012461216839230009520000002308259907044632210_" gradientUnits="userSpaceOnUse" x1="3726.2092" y1="2952.9341" x2="3745.2974" y2="3195.8743" gradientTransform="matrix(1 -0.0024 0.0024 1 -794.8005 3.3687)">
				<stop  offset="0" style="stop-color:#311944"/>
				<stop  offset="1" style="stop-color:#A03976"/>
			</linearGradient>
			<path style="fill:url(#SVGID_00000012461216839230009520000002308259907044632210_);" d="M2974.34,3069.265l8.972,14.326
				c2.51,4.007,3.266,8.835,2.079,13.412c-3.097,11.939-9.284,35.206-11.991,41.276c-3.686,8.268-53.4,13.293-53.4,13.293
				s-4.449-6.228,5.857-13.79c10.305-7.562,16.939-8.762,20.556-19.894c3.616-11.129,5.971-42.594,5.971-42.594L2974.34,3069.265z"
				/>
			
				<linearGradient id="SVGID_00000111173474042774545810000012860054638861926027_" gradientUnits="userSpaceOnUse" x1="3745.3511" y1="3111.9707" x2="3741.8806" y2="2860.3438" gradientTransform="matrix(1 -0.0024 0.0024 1 -794.8005 3.3687)">
				<stop  offset="0" style="stop-color:#FFC444"/>
				<stop  offset="0.9964" style="stop-color:#F36F56"/>
			</linearGradient>
			<path style="fill:url(#SVGID_00000111173474042774545810000012860054638861926027_);" d="M2937.05,3032.891
				c3.271,2.595,19.358,51.031,19.358,51.031s5.186,6.598,14.982-3.181c9.796-9.78,4.434-4.387,4.434-4.387l-1.957-47.673
				L2937.05,3032.891z"/>
			
				<linearGradient id="SVGID_00000016052454646369684750000005517016108191102127_" gradientUnits="userSpaceOnUse" x1="3354.7061" y1="2708.9124" x2="3540.7471" y2="2708.9124" gradientTransform="matrix(1 -0.0024 0.0024 1 -794.8005 3.3687)">
				<stop  offset="0" style="stop-color:#444B8C"/>
				<stop  offset="0.9964" style="stop-color:#3E4177"/>
			</linearGradient>
			<path style="fill:url(#SVGID_00000016052454646369684750000005517016108191102127_);" d="M2568.525,2374.35
				c-3.806,103.208-3.702,215.331,2.524,335.095c7.009,134.864,20.744,259.496,37.947,372.463
				c6.295,0.186,12.909,0.203,19.818-0.007c4.665-0.14,9.185-0.379,13.554-0.691c8.73-23.454,19.042-54.294,28.254-91.123
				c9.683-38.727,15.499-73.457,19.622-106.665c14.516-116.923-2.849-127.079,8.951-213.733
				c10.451-76.745,25.568-79.777,43.061-188.743c18.98-118.233,4.597-135.929-2.393-142.317
				C2710.11,2311.432,2640.418,2330.163,2568.525,2374.35z"/>
			
				<linearGradient id="SVGID_00000111159886500484262160000015066629376360463787_" gradientUnits="userSpaceOnUse" x1="3354.7058" y1="2708.9204" x2="3540.7458" y2="2708.9204" gradientTransform="matrix(1 -0.0024 0.0024 1 -794.8005 3.3687)">
				<stop  offset="0" style="stop-color:#444B8C"/>
				<stop  offset="0.9964" style="stop-color:#3E4177"/>
			</linearGradient>
			<path style="opacity:0.3;fill:url(#SVGID_00000111159886500484262160000015066629376360463787_);" d="M2739.864,2338.629
				c-28.378-25.941-93.098-10.039-161.398,29.82c78.888,84.822,87.598,139.948,78.251,175.754
				c-10.563,40.467-42.947,52.192-42.718,96.414c0.283,54.342,49.364,68.62,48.458,126.128
				c-0.598,38.027-22.151,37.684-27.127,84.662c-5.888,55.585,22.313,74.665,13.292,115.802
				c-3.88,17.698-15.023,40.837-46.859,64.722c2.34,16.878,4.738,33.586,7.235,49.979c6.292,0.184,12.907,0.203,19.816-0.01
				c4.665-0.139,9.187-0.378,13.553-0.69c8.731-23.454,19.043-54.293,28.255-91.122c9.683-38.728,15.499-73.457,19.622-106.666
				c14.515-116.923-2.849-127.079,8.951-213.733c10.451-76.745,25.568-79.779,43.061-188.744
				C2761.236,2362.712,2746.854,2345.016,2739.864,2338.629z"/>
			
				<linearGradient id="SVGID_00000071552536597536934990000008148908320866627232_" gradientUnits="userSpaceOnUse" x1="3406.3547" y1="2690.5732" x2="3780.8767" y2="2690.5732" gradientTransform="matrix(1 -0.0024 0.0024 1 -794.8005 3.3687)">
				<stop  offset="0" style="stop-color:#444B8C"/>
				<stop  offset="0.9964" style="stop-color:#3E4177"/>
			</linearGradient>
			<path style="fill:url(#SVGID_00000071552536597536934990000008148908320866627232_);" d="M2617.26,2372.5
				c67.988,98.969,141.36,222.167,207.065,369.684c49.654,111.479,85.724,216.173,112.247,309.492
				c3.562,1.638,11.964,4.905,22.688,3.462c14.626-1.97,23.372-11.33,25.658-13.942c10.542-66.968,9.227-123.659,5.495-164.569
				c-2.389-26.192-6.61-69.81-23.438-123.628c-18.849-60.284-31.716-63.643-56.271-127.411
				c-25.486-66.188-19.391-82.735-43.844-165.583c-10.046-34.035-26.847-84.677-54.515-145.237
				C2747.316,2334.009,2682.287,2353.255,2617.26,2372.5z"/>
			
				<linearGradient id="SVGID_00000180357723938299636260000012262346999918437253_" gradientUnits="userSpaceOnUse" x1="2624.4526" y1="1925.002" x2="3115.7651" y2="3031.8652">
				<stop  offset="0" style="stop-color:#FFC444"/>
				<stop  offset="0.9964" style="stop-color:#F36F56"/>
			</linearGradient>
			<path style="fill:url(#SVGID_00000180357723938299636260000012262346999918437253_);" d="M2341.079,2232.857
				c0.644,24.082,40.224,45.293,72.094,51.799c74.515,15.208,160.905-38.934,201.909-98.827
				c8.052-11.76,16.998-26.019,19.154-24.916c4.875,2.497-39.921,76.098-59.344,159.809c-9.937,42.824-7.336,62.881-25.912,91.392
				c-4.208,6.459-9.394,13.183-7.572,20.824c4.564,19.135,48.326,24.104,78.682,27.551c32.05,3.639,61.936,3.286,91.482,2.855
				c47.298-0.69,51.023-3.147,61.819,2.152c32.898,16.145,30.669,54.83,55.425,59.989c20.79,4.333,41.879-18.883,48.566-26.244
				c34.757-38.261,32.9-84.391,39.064-130.919c14.331-108.173,73.101-226.687,130.59-301.711
				c17.436-22.753,29.561-34.722,30.318-55.869c2.223-62.075-96.118-130.6-177.997-138.474
				c-22.442-2.157-62.629-1.478-100.303,2.075c-15.057,1.418-31.088,3.506-48.318,6.521c-41.786,7.311-70.876,12.398-100.522,25.961
				c-119.544,54.697-93.456,176.452-222.844,260.635C2382.88,2196.405,2340.405,2207.639,2341.079,2232.857z"/>
			
				<linearGradient id="SVGID_00000106835940495261153210000011721129162039027617_" gradientUnits="userSpaceOnUse" x1="2829.6206" y1="1926.7396" x2="2857.8584" y2="1804.376">
				<stop  offset="0" style="stop-color:#AB316D"/>
				<stop  offset="1" style="stop-color:#792D3D"/>
			</linearGradient>
			<path style="fill:url(#SVGID_00000106835940495261153210000011721129162039027617_);" d="M2830.889,1807.874
				c0,0,5.135,28.653,16.952,49.05c10.682,18.434,54.844,25.042,64.044,28.251c9.2,3.207-13.881,19.232-38.427,25.041
				c-24.544,5.811-96.342,9.609-110.403,1.881c-14.062-7.727,9.131-10.09,26.022-18.969c16.89-8.88,22.539-44.975,17.309-60.319
				C2801.156,1817.461,2830.889,1807.874,2830.889,1807.874z"/>
			<g>
				
					<linearGradient id="SVGID_00000050663590570383290230000012392295664883720868_" gradientUnits="userSpaceOnUse" x1="4709.3853" y1="2598.2095" x2="4645.5527" y2="2436.0864" gradientTransform="matrix(0.9989 0.0475 -0.0475 0.9989 -1725.9976 -907.3022)">
					<stop  offset="0" style="stop-color:#444B8C"/>
					<stop  offset="0.9964" style="stop-color:#3E4177"/>
				</linearGradient>
				<path style="fill:url(#SVGID_00000050663590570383290230000012392295664883720868_);" d="M2784.225,1799.581
					c-17.812-12.73-22.745-47.154-12.852-54.882c2.828-2.209,5.529-1.194,45.727,14.93c19.962,8.009,29.781,12.272,33.014,21.088
					c1.975,5.381,1.655,12.651-0.526,18.38c-1.123,2.948-3.311,6.618-8.177,13.621c-4.319,6.215-4.028,6.004-5.351,7.811
					c-3.18,4.339-9.315,11.644-20.554,20.113c-0.625-3.168-1.613-7.1-3.269-11.388c-0.637-1.65-3.205-8.099-7.276-13.531
					C2797.955,1806.374,2790.006,1803.714,2784.225,1799.581z"/>
				
					<linearGradient id="SVGID_00000045590949216423907580000005326250774281531302_" gradientUnits="userSpaceOnUse" x1="2801.9868" y1="1840.4454" x2="2841.5195" y2="1739.7313">
					<stop  offset="0" style="stop-color:#AB316D"/>
					<stop  offset="1" style="stop-color:#792D3D"/>
				</linearGradient>
				<path style="fill:url(#SVGID_00000045590949216423907580000005326250774281531302_);" d="M2829.874,1832.32
					c0,0-11.654,17.361-33.24,15.006c-19.327-2.11-20.264-45.7-7.48-54.382c4.264-2.897,12.592-3.812,19.236-1.633
					c3.925,1.287,5.196,2.998,11.649,4.975c5.951,1.825,7.682,1.231,9.432,2.842c2.189,2.012,3.648,6.774-0.703,19.316
					c3.862-3.584,8.365-4.826,11.444-3.204c0.491,0.258,1.783,1.222,2.471,2.627
					C2845.174,1822.951,2840.364,1829.092,2829.874,1832.32z"/>
			</g>
			
				<linearGradient id="SVGID_00000114782415754502312550000017336879145519603353_" gradientUnits="userSpaceOnUse" x1="2352.7876" y1="2196.6875" x2="2654.0881" y2="2196.6875">
				<stop  offset="0" style="stop-color:#AA80F9"/>
				<stop  offset="0.9964" style="stop-color:#6165D7"/>
			</linearGradient>
			<path style="opacity:0.3;fill:url(#SVGID_00000114782415754502312550000017336879145519603353_);" d="M2445.604,2229.156
				c54.027-12.168,75.554-11.776,102.271-33.302c44.482-35.841,51.162-90.39,77.012-89.723
				c12.216,0.315,22.139,12.791,29.201,25.007c-6.507,10.191-13.015,20.383-19.522,30.574c-0.027-0.387-0.112-0.688-0.329-0.799
				c-2.157-1.104-11.103,13.155-19.154,24.916c-41.004,59.893-127.395,114.036-201.909,98.827
				c-21.366-4.361-46.144-15.349-60.385-29.363C2389.564,2242.871,2420.975,2234.704,2445.604,2229.156z"/>
			
				<linearGradient id="SVGID_00000011004745971199505450000012115099309612774077_" gradientUnits="userSpaceOnUse" x1="2894.627" y1="1805.0781" x2="3385.9382" y2="2911.9385">
				<stop  offset="0" style="stop-color:#FFC444"/>
				<stop  offset="0.9964" style="stop-color:#F36F56"/>
			</linearGradient>
			<path style="fill:url(#SVGID_00000011004745971199505450000012115099309612774077_);" d="M3014.183,2436.861
				c32.731,2.92,106.407,4.252,158.517-43.957c86.752-80.253,43.715-233.016,13.518-298.714
				c-34.621-75.326-89.724-117.489-123.211-143.112c-41.546-31.79-66.904-51.192-97.412-46.847
				c-78.901,11.236-133.545,172.946-90.231,219.245c14.18,15.156,28.222,6.574,69.259,19.643
				c13.364,4.257,113.107,36.025,130.473,109.488c12.155,51.416-18.791,111.622-73.869,152.057
				C3005.546,2415.396,3009.864,2426.129,3014.183,2436.861z"/>
			
				<linearGradient id="SVGID_00000051350653590172884620000011304432825064808123_" gradientUnits="userSpaceOnUse" x1="2544.363" y1="2292.2539" x2="3162.521" y2="2292.2539">
				<stop  offset="0" style="stop-color:#FFC444"/>
				<stop  offset="0.9964" style="stop-color:#F36F56"/>
			</linearGradient>
			<path style="opacity:0.3;fill:url(#SVGID_00000051350653590172884620000011304432825064808123_);" d="M2647.31,2410.224
				c37.055-23.417,42.537-47.151,84.031-63.187c53.905-20.835,79.809,5.63,106.534-15.736c31.805-25.429,3.65-69.729,27.451-146.606
				c4.04-13.049,34.723-112.158,105.126-124.785c32.83-5.888,76.191,6.688,92.9,34.51c13.076,21.772,0.895,38.004,16.793,62.04
				c15.888,24.021,34.89,18.146,55.143,38.18c32.159,31.812,37.088,98.894,8.054,136.831c-13.542,17.695-31.14,24.692-64.253,37.859
				c-20.226,8.041-39.028,13.044-55.22,16.22c40.546-38.916,61.588-89.104,51.224-132.942
				c-10.824-45.793-53.656-75.381-87.625-92.207c-33.99,63.968-61.771,138.093-71.022,207.923
				c-6.165,46.528-4.308,92.658-39.064,130.919c-6.687,7.361-27.776,30.577-48.566,26.244
				c-24.756-5.159-22.527-43.844-55.425-59.989c-10.796-5.299-14.521-2.842-61.819-2.152c-29.546,0.432-59.432,0.784-91.482-2.855
				c-26.996-3.066-64.526-7.361-75.728-21.728C2593.1,2437.435,2625.627,2423.927,2647.31,2410.224z"/>
			<g>
				
					<linearGradient id="SVGID_00000123414451580147207530000002043223236077905337_" gradientUnits="userSpaceOnUse" x1="2230.9326" y1="2337.6526" x2="2998.2866" y2="2337.6526">
					<stop  offset="0" style="stop-color:#444B8C"/>
					<stop  offset="0.9964" style="stop-color:#26264F"/>
				</linearGradient>
				<path style="fill:url(#SVGID_00000123414451580147207530000002043223236077905337_);" d="M2992.693,2462.585l3.813-11.216
					c6.079-17.884-3.917-36.957-22.313-42.56l-721.283-219.717l-21.978,74.494l717.639,221.041
					C2966.873,2490.263,2986.633,2480.412,2992.693,2462.585z"/>
				
					<linearGradient id="SVGID_00000121970310846342458150000009707658189311972998_" gradientUnits="userSpaceOnUse" x1="1523.2224" y1="2095.4333" x2="2314.9895" y2="2095.4333">
					<stop  offset="0" style="stop-color:#444B8C"/>
					<stop  offset="0.9964" style="stop-color:#26264F"/>
				</linearGradient>
				<path style="fill:url(#SVGID_00000121970310846342458150000009707658189311972998_);" d="M1536.162,1987.269
					c55.148-217.869,271.251-349.168,484.97-287.633c217.641,62.664,342.243,298.478,276.117,520.768
					c-64.573,217.07-286.016,334.173-492.653,267.2C1601.53,2421.789,1482.268,2200.184,1536.162,1987.269z M2234.47,2201.174
					c54.652-186.031-49.623-383.066-231.366-435.937c-178.998-52.073-360.853,57.227-407.779,240.156
					c-46.027,179.419,54.481,366.435,225.947,421.527C1995.275,2482.827,2180.896,2383.539,2234.47,2201.174z"/>
				<path style="opacity:0.3;fill:#D8DEE8;" d="M2252.911,2189.092l91.967,28.014c6.311,29.332,18.579,46.137,30.927,56.372
					c46.454,38.508,108.483-3.49,195.022,41.663c43.426,22.659,35.175,37.078,75.879,52.888
					c67.294,26.137,98.097-10.068,157.653,13.722c60.239,24.064,66.177,76.067,100.341,74.2
					c14.615-0.798,33.429-11.43,54.408-51.739l15.086,4.595c18.396,5.604,28.392,24.675,22.313,42.561l-3.813,11.216
					c-6.061,17.826-25.82,27.677-44.122,22.04l-717.639-221.041L2252.911,2189.092z"/>
				<path style="opacity:0.56;fill:#FFFFFF;" d="M1804.243,2456.735c179.986,57.923,372.15-44.65,427.717-233.366
					c56.724-192.645-51.258-396.743-239.537-451.413c-185.335-53.815-373.466,59.481-421.913,248.799
					C1523.022,2206.318,1626.971,2399.686,1804.243,2456.735z"/>
				
					<linearGradient id="SVGID_00000132070703241391018100000002091861216160439195_" gradientUnits="userSpaceOnUse" x1="-6993.231" y1="3716.0552" x2="-7391.8989" y2="3269.6836" gradientTransform="matrix(-0.8705 0.4922 0.4922 0.8705 -6104.4209 2747.6741)">
					<stop  offset="0" style="stop-color:#444B8C"/>
					<stop  offset="0.9964" style="stop-color:#26264F"/>
				</linearGradient>
				<path style="fill:url(#SVGID_00000132070703241391018100000002091861216160439195_);" d="M1522.191,2005.954
					c55.147-217.869,271.251-349.168,484.97-287.633c217.641,62.665,342.243,298.478,276.118,520.767
					c-64.574,217.071-286.017,334.174-492.653,267.201C1587.56,2440.474,1468.298,2218.868,1522.191,2005.954z M2220.5,2219.858
					c54.651-186.031-49.623-383.065-231.366-435.937c-178.998-52.073-360.853,57.227-407.78,240.156
					c-46.026,179.419,54.482,366.435,225.948,421.527C1981.305,2501.511,2166.926,2402.223,2220.5,2219.858z"/>
				
					<linearGradient id="SVGID_00000121961345559910775990000016726924360368165803_" gradientUnits="userSpaceOnUse" x1="-7579.2764" y1="3064.3269" x2="-7038.584" y2="3659.543" gradientTransform="matrix(-0.8705 0.4922 0.4922 0.8705 -6104.4209 2747.6741)">
					<stop  offset="0" style="stop-color:#444B8C"/>
					<stop  offset="0.9964" style="stop-color:#26264F"/>
				</linearGradient>
				<path style="fill:url(#SVGID_00000121961345559910775990000016726924360368165803_);" d="M1543.08,2012.353
					c52.266-205.51,256.273-328.987,457.691-270.78c204.898,59.213,322.295,281.266,260.267,490.703
					c-60.654,204.799-269.413,315.642-464.528,252.597C1604.581,2422.857,1491.936,2213.447,1543.08,2012.353z M2220.5,2219.858
					c54.651-186.031-49.623-383.065-231.366-435.937c-178.998-52.073-360.853,57.227-407.78,240.156
					c-46.026,179.419,54.482,366.435,225.948,421.527C1981.305,2501.511,2166.926,2402.223,2220.5,2219.858z"/>
			</g>
			
				<linearGradient id="SVGID_00000102513794815746004540000014030778434348784031_" gradientUnits="userSpaceOnUse" x1="2958.8684" y1="2430.0244" x2="3107.5864" y2="2351.9004">
				<stop  offset="0" style="stop-color:#AB316D"/>
				<stop  offset="1" style="stop-color:#792D3D"/>
			</linearGradient>
			<path style="fill:url(#SVGID_00000102513794815746004540000014030778434348784031_);" d="M3011.404,2429.956l-7.29-18.116
				c0,0-11.9,0.725-21.665-6.277c-5.321-3.815-14.764-4.952-17.509-4.19c-2.744,0.761-13.109,0.307-1.294,5.945
				c11.813,5.635,11.72,9.823,6.796,14.448c-4.924,4.625-23.661,14.577-30.405,15.055c-6.745,0.48,5.45,10.911,12.251,12.244
				c6.802,1.33,17.956,3.016,31.754-5.109C2989.076,2440.992,3011.404,2429.956,3011.404,2429.956z"/>
			
				<linearGradient id="SVGID_00000033348006144448257600000000801464011164341661_" gradientUnits="userSpaceOnUse" x1="6373.9038" y1="845.6544" x2="6455.6563" y2="845.6544" gradientTransform="matrix(0.8553 0.5182 -0.5182 0.8553 -2728.719 -1761.0112)">
				<stop  offset="0" style="stop-color:#AB316D"/>
				<stop  offset="1" style="stop-color:#792D3D"/>
			</linearGradient>
			<path style="fill:url(#SVGID_00000033348006144448257600000000801464011164341661_);" d="M2357.612,2302.603
				c0,0-30.486-30.025-48.651-37.797c-18.166-7.773-29.9,3.388-28.231,11.115c1.669,7.724,31.555,18.48,43.495,18.866
				C2336.164,2295.173,2357.612,2302.603,2357.612,2302.603z"/>
		</g>
	</g>
</g>
</svg>
