<?xml version="1.0" encoding="utf-8"?>
<!-- Generator: Adobe Illustrator 27.5.0, SVG Export Plug-In . SVG Version: 6.00 Build 0)  -->
<svg version="1.1" xmlns="http://www.w3.org/2000/svg" xmlns:xlink="http://www.w3.org/1999/xlink" x="0px" y="0px"
	 viewBox="0 0 500 500" style="enable-background:new 0 0 500 500;" xml:space="preserve">
<g id="BACKGROUND">
	<g>
		<rect style="fill:#FFFFFF;" width="500" height="500"/>
	</g>
</g>
<g id="OBJECTS">
	<g>
		<g>
			<path style="fill:#DAEBFF;" d="M215.548,132.567c0,0,4.512-9.978,16.834-7.004c12.182,2.94,17.43-14.506,28.277-13.384
				c10.847,1.122,6.959,11.14,20.798,13.384c13.84,2.244,17.846-3.216,23.675,7.004H215.548z"/>
		</g>
		<g>
			<path style="fill:#DAEBFF;" d="M375.527,237.448c0,0,4.512-9.978,16.834-7.004c12.182,2.941,17.43-14.506,28.277-13.384
				c10.848,1.122,6.959,11.14,20.798,13.384c13.84,2.244,17.846-3.216,23.675,7.004H375.527z"/>
		</g>
		<g>
			<path style="fill:#DAEBFF;" d="M413.961,392.819c8.483-8.973,26.56-28.827,21.488-59.952
				c-3.453-21.187-5.694-54.098-88.094-74.306c-82.4-20.208-85.25-76.184-142.775-116.327
				c-57.525-40.143-114.945,1.478-100.894,64.005c13.66,60.788-22.976,61.927-40.841,98.526
				c-20.532,42.064,14.69,88.229,54.745,88.053H413.961z"/>
		</g>
	</g>
	<g>
		<g>
			<g>
				<g>
					<path style="fill:#FD4B61;" d="M58.357,232.814c-0.746,0-1.385-0.51-1.554-1.239c-0.613-2.647-1.456-3.491-4.104-4.103
						c-0.73-0.169-1.239-0.808-1.239-1.554c0-0.746,0.51-1.385,1.239-1.554c2.647-0.613,3.491-1.456,4.104-4.103
						c0.169-0.73,0.808-1.24,1.554-1.24c0.746,0,1.385,0.51,1.554,1.239c0.612,2.647,1.456,3.491,4.104,4.103
						c0.73,0.169,1.239,0.808,1.239,1.554c0,0.746-0.51,1.385-1.239,1.554l0,0c-2.647,0.613-3.491,1.456-4.103,4.103
						C59.742,232.304,59.103,232.814,58.357,232.814z M54.183,225.917c2.269,0.722,3.452,1.905,4.174,4.173
						c0.722-2.269,1.905-3.452,4.174-4.173c-2.269-0.722-3.452-1.905-4.174-4.174C57.635,224.012,56.452,225.195,54.183,225.917z
						 M63.802,226.551h0.002H63.802z"/>
				</g>
			</g>
			<g>
				<g>
					<path style="fill:#FFAE0B;" d="M80.386,246.108c-2.709,0-4.913-2.204-4.913-4.913s2.204-4.913,4.913-4.913
						c2.709,0,4.913,2.204,4.913,4.913S83.095,246.108,80.386,246.108z M80.386,238.172c-1.667,0-3.023,1.356-3.023,3.023
						c0,1.667,1.356,3.023,3.023,3.023c1.667,0,3.023-1.356,3.023-3.023C83.409,239.528,82.053,238.172,80.386,238.172z"/>
				</g>
			</g>
			<g>
				<g>
					<g>
						<path style="fill:#00BAD9;" d="M83.409,211.072c-0.522,0-0.945-0.423-0.945-0.945v-2.503c0-0.522,0.423-0.945,0.945-0.945
							c0.522,0,0.945,0.423,0.945,0.945v2.503C84.354,210.649,83.931,211.072,83.409,211.072z"/>
					</g>
				</g>
				<g>
					<g>
						<path style="fill:#00BAD9;" d="M83.409,217.759c-0.522,0-0.945-0.423-0.945-0.945v-2.503c0-0.522,0.423-0.945,0.945-0.945
							c0.522,0,0.945,0.423,0.945,0.945v2.503C84.354,217.335,83.931,217.759,83.409,217.759z"/>
					</g>
				</g>
				<g>
					<g>
						<g>
							<path style="fill:#00BAD9;" d="M81.434,212.949h-2.502c-0.522,0-0.945-0.423-0.945-0.945c0-0.522,0.423-0.945,0.945-0.945
								h2.502c0.522,0,0.945,0.423,0.945,0.945C82.379,212.526,81.956,212.949,81.434,212.949z"/>
						</g>
					</g>
					<g>
						<g>
							<path style="fill:#00BAD9;" d="M87.886,212.949h-2.503c-0.522,0-0.945-0.423-0.945-0.945c0-0.522,0.423-0.945,0.945-0.945
								h2.503c0.522,0,0.945,0.423,0.945,0.945C88.831,212.526,88.408,212.949,87.886,212.949z"/>
						</g>
					</g>
				</g>
			</g>
			<g>
				<g>
					<g>
						<path style="fill:#9A5BFD;" d="M58.23,255.008c-0.522,0-0.945-0.423-0.945-0.945v-2.503c0-0.522,0.423-0.945,0.945-0.945
							c0.522,0,0.945,0.423,0.945,0.945v2.503C59.174,254.585,58.751,255.008,58.23,255.008z"/>
					</g>
				</g>
				<g>
					<g>
						<path style="fill:#9A5BFD;" d="M58.23,261.695c-0.522,0-0.945-0.423-0.945-0.945v-2.503c0-0.522,0.423-0.945,0.945-0.945
							c0.522,0,0.945,0.423,0.945,0.945v2.503C59.174,261.272,58.751,261.695,58.23,261.695z"/>
					</g>
				</g>
				<g>
					<g>
						<g>
							<path style="fill:#9A5BFD;" d="M56.255,256.885h-2.503c-0.522,0-0.945-0.423-0.945-0.945c0-0.522,0.423-0.945,0.945-0.945
								h2.503c0.522,0,0.945,0.423,0.945,0.945C57.2,256.462,56.777,256.885,56.255,256.885z"/>
						</g>
					</g>
					<g>
						<g>
							<path style="fill:#9A5BFD;" d="M62.707,256.885h-2.502c-0.522,0-0.945-0.423-0.945-0.945c0-0.522,0.423-0.945,0.945-0.945
								h2.502c0.522,0,0.945,0.423,0.945,0.945C63.652,256.462,63.229,256.885,62.707,256.885z"/>
						</g>
					</g>
				</g>
			</g>
		</g>
		<g>
			<g>
				<g>
					<g>
						<path style="fill:#FD4B61;" d="M472.884,335.184c-0.612-2.647-1.456-3.491-4.103-4.103l0,0
							c-0.73-0.169-1.239-0.808-1.239-1.554c0-0.746,0.51-1.385,1.239-1.554c2.647-0.613,3.491-1.456,4.104-4.103
							c0.169-0.73,0.808-1.239,1.554-1.239s1.385,0.51,1.554,1.239c0.613,2.647,1.456,3.491,4.104,4.103
							c0.73,0.169,1.239,0.808,1.239,1.554c0,0.746-0.51,1.385-1.239,1.554c-2.647,0.612-3.491,1.456-4.104,4.103
							c-0.169,0.73-0.808,1.239-1.554,1.239S473.053,335.913,472.884,335.184z M474.439,325.352
							c-0.722,2.269-1.905,3.452-4.174,4.174c2.269,0.722,3.452,1.905,4.174,4.174c0.722-2.269,1.905-3.452,4.174-4.174
							C476.343,328.804,475.161,327.621,474.439,325.352z M468.992,330.16h0.002H468.992z"/>
					</g>
				</g>
			</g>
			<g>
				<g>
					<g>
						<path style="fill:#FFAE0B;" d="M447.497,344.804c0-2.709,2.204-4.913,4.913-4.913c2.709,0,4.913,2.204,4.913,4.913
							c0,2.709-2.204,4.913-4.913,4.913C449.701,349.717,447.497,347.513,447.497,344.804z M449.387,344.804
							c0,1.667,1.356,3.023,3.023,3.023c1.667,0,3.023-1.356,3.023-3.023c0-1.667-1.356-3.023-3.023-3.023
							C450.743,341.781,449.387,343.137,449.387,344.804z"/>
					</g>
				</g>
			</g>
			<g>
				<g>
					<g>
						<path style="fill:#00BAD9;" d="M449.387,314.681c0.522,0,0.945-0.423,0.945-0.945v-2.503c0-0.522-0.423-0.945-0.945-0.945
							c-0.522,0-0.945,0.423-0.945,0.945v2.503C448.442,314.258,448.865,314.681,449.387,314.681z"/>
					</g>
				</g>
				<g>
					<g>
						<path style="fill:#00BAD9;" d="M449.387,321.368c0.522,0,0.945-0.423,0.945-0.945v-2.503c0-0.522-0.423-0.945-0.945-0.945
							c-0.522,0-0.945,0.423-0.945,0.945v2.503C448.442,320.945,448.865,321.368,449.387,321.368z"/>
					</g>
				</g>
				<g>
					<g>
						<g>
							<path style="fill:#00BAD9;" d="M451.362,316.558h2.502c0.522,0,0.945-0.423,0.945-0.945c0-0.522-0.423-0.945-0.945-0.945
								h-2.502c-0.522,0-0.945,0.423-0.945,0.945C450.417,316.135,450.84,316.558,451.362,316.558z"/>
						</g>
					</g>
					<g>
						<g>
							<path style="fill:#00BAD9;" d="M444.909,316.558h2.503c0.522,0,0.945-0.423,0.945-0.945c0-0.522-0.423-0.945-0.945-0.945
								h-2.503c-0.522,0-0.945,0.423-0.945,0.945C443.964,316.135,444.387,316.558,444.909,316.558z"/>
						</g>
					</g>
				</g>
			</g>
			<g>
				<g>
					<g>
						<path style="fill:#9A5BFD;" d="M474.566,358.617c0.522,0,0.945-0.423,0.945-0.945v-2.503c0-0.522-0.423-0.945-0.945-0.945
							c-0.522,0-0.945,0.423-0.945,0.945v2.503C473.621,358.194,474.044,358.617,474.566,358.617z"/>
					</g>
				</g>
				<g>
					<g>
						<path style="fill:#9A5BFD;" d="M474.566,365.304c0.522,0,0.945-0.423,0.945-0.945v-2.503c0-0.522-0.423-0.945-0.945-0.945
							c-0.522,0-0.945,0.423-0.945,0.945v2.503C473.621,364.881,474.044,365.304,474.566,365.304z"/>
					</g>
				</g>
				<g>
					<g>
						<g>
							<path style="fill:#9A5BFD;" d="M476.541,360.494h2.503c0.522,0,0.945-0.423,0.945-0.945c0-0.522-0.423-0.945-0.945-0.945
								h-2.503c-0.522,0-0.945,0.423-0.945,0.945C475.596,360.071,476.019,360.494,476.541,360.494z"/>
						</g>
					</g>
					<g>
						<g>
							<path style="fill:#9A5BFD;" d="M470.089,360.494h2.503c0.522,0,0.945-0.423,0.945-0.945c0-0.522-0.423-0.945-0.945-0.945
								h-2.503c-0.522,0-0.945,0.423-0.945,0.945C469.144,360.071,469.567,360.494,470.089,360.494z"/>
						</g>
					</g>
				</g>
			</g>
		</g>
	</g>
	<g>
		<g>
			<path style="fill:#9A5BFD;" d="M453.684,172.44c0,17.726-14.368,32.09-32.09,32.09c-17.726,0-32.094-14.364-32.094-32.09
				c0-4.394,0.886-8.585,2.486-12.402l29.608,12.402l-1.521-32.05c0.498-0.031,1.009-0.04,1.521-0.04
				C439.316,140.35,453.684,154.718,453.684,172.44z"/>
		</g>
		<g>
			<path style="fill:#FFAE0B;" d="M417.173,135.33c-9.59,0.444-18.073,5.096-23.656,12.152c-1.796,2.269-3.292,4.788-4.428,7.497
				l29.606,12.402L417.173,135.33z"/>
		</g>
	</g>
	<g>
		<g>
			<g>
				<g>
					<g>
						<g>
							<g>
								<path style="fill:#FFA19F;" d="M223.084,362.474c-5.794-11.988-12.07-24.573-17.073-36.462
									c-2.08-4.941-3.363-8.159-3.363-8.159s6.476-10.549,18.097-11.729c0,0,0.684,1.343,1.839,3.632
									c5.199,10.292,16.732,32.053,21.774,44.85C250.529,370.251,231.536,379.959,223.084,362.474z"/>
							</g>
						</g>
					</g>
				</g>
			</g>
		</g>
		<g>
			<path style="fill:#FFA19F;" d="M242.839,381.351c0,0-12.815-4.121-21.411-1.886c-8.597,2.235-11.624,13.026-11.624,13.026
				l33.035-0.02C242.839,392.47,247.545,382.581,242.839,381.351z"/>
		</g>
		<g>
			<g>
				<g>
					<g>
						<g>
							<path style="fill:#0D0A3E;" d="M222.585,309.755c-2.906,3.814-8.773,10.759-16.573,16.256
								c-2.08-4.941-3.363-8.159-3.363-8.159s6.476-10.549,18.097-11.729C220.746,306.123,221.43,307.466,222.585,309.755z"/>
						</g>
					</g>
				</g>
			</g>
		</g>
		<g>
			<g>
				<path style="fill:#0D0A3E;" d="M179.855,176.186c0,0-18.013-3.688-29.487,7.014c-12.268,11.443-9.233,18.071-15.407,29.998
					c-6.174,11.928-7.404,18.52-3.052,30.761c5.38,15.132-6.226,10.71-16.207,20.739c-9.981,10.029-15.239,29.76-3.746,36.615
					c11.492,6.855,47.548-44.749,62.643-33.562c15.094,11.186,14.669,27.719,25.953,22.967c11.285-4.751-4.016-28.452-1.965-38.228
					c2.052-9.775,8.632-26.329,9.782-38.174C209.52,202.469,205.188,180.405,179.855,176.186z"/>
			</g>
		</g>
		<g>
			<g>
				<g>
					<g>
						<g>
							<path style="fill:#FFAE0B;" d="M223.091,305.407c0,0-2.383,2.891-6.927,6.79c-1.223,1.049-2.603,2.171-4.134,3.328
								c-0.49,0.371-0.996,0.748-1.519,1.125c-0.468,0.344-0.948,0.685-1.44,1.021c-0.101,0.071-0.202,0.142-0.306,0.212
								c-2.525,1.739-5.368,3.503-8.514,5.173c-0.207,0.111-0.415,0.22-0.622,0.328l-0.078-0.571l-1.016-7.266l-1.008-7.228
								l-1.137-8.158l-0.708-5.064l-0.97-6.952c0,0,0.205-1.289,1.094-3.146c0.788-1.643,2.11-3.73,4.296-5.762
								c1.405-1.309,3.169-2.595,5.378-3.725c0.005,0.01,0.013,0.018,0.018,0.028c0.083,0.139,0.483,0.796,1.122,1.852
								c0.003,0.005,0.008,0.013,0.01,0.02c0.601,0.996,1.413,2.34,2.373,3.94c0.887,1.476,1.898,3.167,2.987,4.999
								C215.429,292.127,219.639,299.289,223.091,305.407z"/>
						</g>
					</g>
				</g>
			</g>
		</g>
		<g>
			<path style="fill:#F7891B;" d="M216.182,311.844c0,0.119-0.005,0.238-0.018,0.354c-1.223,1.049-2.603,2.171-4.134,3.328
				c-1.284-0.152-2.365-0.955-2.904-2.072c0-0.003,0-0.003,0-0.003c-0.235-0.488-0.367-1.034-0.367-1.607
				c0-0.417,0.068-0.819,0.197-1.195v-0.002c0.5-1.463,1.885-2.515,3.515-2.515C214.522,308.131,216.182,309.794,216.182,311.844z"
				/>
		</g>
		<g>
			<g>
				<g>
					<g>
						<g>
							<g>
								<path style="fill:#FFFFFF;" d="M208.128,287.387c-0.014,0.08-1.115,8.222,1.347,17.736c1.151,4.46,1.309,8.361,1.035,11.527
									c-0.467,0.343-0.946,0.684-1.44,1.021c0.407-3.227,0.387-7.4-0.857-12.225c-2.528-9.773-1.425-17.902-1.377-18.243
									c0.051-0.354,0.38-0.6,0.737-0.554C207.928,286.702,208.175,287.03,208.128,287.387z"/>
							</g>
						</g>
					</g>
				</g>
			</g>
		</g>
		<g>
			<g>
				<path style="fill:#FFAE0B;" d="M209.804,386.422c-0.144,0.126-0.291,0.253-0.435,0.377c-2.588,2.214-5.33,4.096-8.183,5.691
					h-68.789c1.473-5.004,4.531-17.086,4.071-29.883c-0.22-6.154-1.349-13.753-2.929-21.559v-0.02
					c-0.104-0.508-0.21-1.003-0.316-1.514v-0.003c-0.667-3.199-1.408-6.419-2.186-9.575c-0.227-0.933-0.46-1.86-0.695-2.777
					c-0.116-0.455-0.235-0.91-0.354-1.36c-0.048-0.187-0.099-0.374-0.147-0.561c-0.217-0.829-0.437-1.65-0.66-2.464
					c-0.897-3.295-1.809-6.439-2.699-9.32c-0.003-0.005-0.005-0.01-0.005-0.013c-0.104-0.336-0.21-0.667-0.311-0.996
					c-0.002,0-0.002-0.003-0.002-0.008c-0.862-2.74-1.693-5.216-2.464-7.329c-3.687-10.131-5.294-18.799-1.468-25.529
					c1.173-2.067,2.858-3.952,5.155-5.641c1.018-0.748,2.098-1.491,3.217-2.221c0.71-0.465,1.438-0.922,2.171-1.375
					c2.611-1.602,5.32-3.111,7.824-4.435c1.031-0.543,2.024-1.054,2.962-1.529h0.003c4.233-2.135,7.326-3.498,7.326-3.498
					s22.201-6.128,28.385-2.103c3.781,2.461,10.119,4.294,16.073,7.715c2.07,1.193,4.094,2.575,5.949,4.246
					c1.534,1.377,2.952,2.952,4.182,4.774c0.005,0.01,0.013,0.018,0.018,0.028c0.457,0.675,0.826,1.289,1.122,1.852
					c0.003,0.005,0.008,0.013,0.01,0.02c3.682,7.051-4.157,6.586,1.506,28.771c0.402,1.572,0.67,3.053,0.821,4.46v0.002
					c0.109,0.971,0.162,1.9,0.169,2.803c0,0,0,0,0,0.003c0.01,1.567-0.121,3.035-0.361,4.43c-1.319,7.693-5.906,13.141-8.024,20.03
					c-0.349,1.132-0.629,2.302-0.819,3.528c-0.144,0.925-0.205,1.979-0.195,3.134c0.015,2.262,0.298,4.918,0.763,7.771
					c0.293,1.807,0.657,3.692,1.072,5.61c2.168,10.023,5.684,20.917,7.331,25.817C209.458,385.449,209.804,386.422,209.804,386.422z
					"/>
			</g>
		</g>
		<g>
			<g>
				<path style="fill:#FFAE0B;" d="M143.507,305.296l-0.69,2.919l-1.544,6.518l-2.605,11.016c-1.827,0.071-3.563,0.038-5.206-0.083
					c-1.258-0.094-2.464-0.238-3.619-0.427c-1.127-0.179-2.201-0.404-3.23-0.662c-11.994-2.997-17.364-10.536-17.364-10.536
					c1.127-4.162,2.676-9.1,4.369-13.98c0.763-2.209,1.557-4.402,2.355-6.51c2.249-5.944,4.529-11.18,6.257-13.97h0.003
					c1.448,0.129,2.876,0.649,4.263,1.461c1.898,1.109,3.725,2.762,5.431,4.693c3.197,3.619,5.972,8.218,8.001,12.047
					c0.402,0.756,0.773,1.483,1.115,2.166C142.607,303.08,143.507,305.296,143.507,305.296z"/>
			</g>
		</g>
		<g>
			<g>
				<g>
					<path style="fill:#F7891B;" d="M132.777,270.343c-0.528,0.69-1.291,1.188-2.171,1.375
						C131.316,271.253,132.044,270.795,132.777,270.343z"/>
				</g>
				<g>
					<path style="fill:#F7891B;" d="M147.313,268.091c0,2.049-1.66,3.71-3.71,3.71c-2.05,0-3.712-1.66-3.712-3.71
						c0-0.816,0.265-1.572,0.71-2.184c1.031-0.543,2.024-1.054,2.962-1.529h0.04C145.652,264.379,147.313,266.042,147.313,268.091z"
						/>
				</g>
				<g>
					<circle style="fill:#F7891B;" cx="157.376" cy="268.091" r="3.711"/>
				</g>
				<g>
					<path style="fill:#F7891B;" d="M174.861,268.091c0,2.05-1.661,3.711-3.711,3.711c-2.05,0-3.711-1.662-3.711-3.711
						c0-2.05,1.661-3.711,3.711-3.711C173.199,264.38,174.861,266.041,174.861,268.091z"/>
				</g>
				<g>
					<path style="fill:#F7891B;" d="M188.635,268.091c0,2.05-1.661,3.711-3.711,3.711s-3.711-1.662-3.711-3.711
						c0-2.05,1.662-3.711,3.711-3.711S188.635,266.041,188.635,268.091z"/>
				</g>
				<g>
					<path style="fill:#F7891B;" d="M201.297,270.74c-0.67,0.657-1.59,1.061-2.6,1.061c-2.049,0-3.71-1.66-3.71-3.71
						c0-0.571,0.129-1.115,0.361-1.597C197.418,267.687,199.443,269.069,201.297,270.74z"/>
				</g>
			</g>
			<g>
				<g>
					<path style="fill:#F7891B;" d="M133.539,282.675c0,2.05-1.662,3.711-3.711,3.711c-2.05,0-3.711-1.662-3.711-3.711
						s1.661-3.711,3.711-3.711C131.877,278.964,133.539,280.625,133.539,282.675z"/>
				</g>
				<g>
					<path style="fill:#F7891B;" d="M147.313,282.675c0,2.05-1.662,3.711-3.711,3.711c-2.05,0-3.711-1.662-3.711-3.711
						s1.661-3.711,3.711-3.711C145.651,278.964,147.313,280.625,147.313,282.675z"/>
				</g>
				<g>
					<path style="fill:#F7891B;" d="M161.087,282.675c0,2.05-1.662,3.711-3.711,3.711s-3.711-1.662-3.711-3.711
						s1.662-3.711,3.711-3.711S161.087,280.625,161.087,282.675z"/>
				</g>
				<g>
					<path style="fill:#F7891B;" d="M174.861,282.675c0,2.05-1.661,3.711-3.711,3.711c-2.05,0-3.711-1.662-3.711-3.711
						s1.661-3.711,3.711-3.711C173.199,278.964,174.861,280.625,174.861,282.675z"/>
				</g>
				<g>
					<path style="fill:#F7891B;" d="M188.635,282.675c0,2.05-1.661,3.711-3.711,3.711s-3.711-1.662-3.711-3.711
						s1.662-3.711,3.711-3.711S188.635,280.625,188.635,282.675z"/>
				</g>
				<g>
					<path style="fill:#F7891B;" d="M202.409,282.675c0,2.05-1.662,3.711-3.711,3.711c-2.05,0-3.711-1.662-3.711-3.711
						s1.661-3.711,3.711-3.711C200.747,278.964,202.409,280.625,202.409,282.675z"/>
				</g>
				<g>
					<path style="fill:#F7891B;" d="M211.99,286.352c-1.822-0.235-3.23-1.792-3.23-3.677c0-0.465,0.086-0.91,0.243-1.322
						C209.89,282.83,210.901,284.52,211.99,286.352z"/>
				</g>
			</g>
			<g>
				<g>
					<path style="fill:#F7891B;" d="M119.764,297.26c0,2.049-1.66,3.71-3.71,3.71c-0.93,0-1.784-0.344-2.436-0.91
						c0.763-2.209,1.557-4.402,2.355-6.51c0.025-0.003,0.053-0.003,0.081-0.003C118.104,293.547,119.764,295.21,119.764,297.26z"/>
				</g>
				<g>
					<path style="fill:#F7891B;" d="M133.539,297.259c0,2.05-1.662,3.711-3.711,3.711c-2.05,0-3.711-1.661-3.711-3.711
						c0-2.05,1.661-3.711,3.711-3.711C131.877,293.548,133.539,295.209,133.539,297.259z"/>
				</g>
				<g>
					<path style="fill:#F7891B;" d="M147.313,297.259c0,2.05-1.662,3.711-3.711,3.711c-2.05,0-3.711-1.661-3.711-3.711
						c0-2.05,1.661-3.711,3.711-3.711C145.651,293.548,147.313,295.209,147.313,297.259z"/>
				</g>
				<g>
					<path style="fill:#F7891B;" d="M161.087,297.259c0,2.05-1.662,3.711-3.711,3.711s-3.711-1.661-3.711-3.711
						c0-2.05,1.662-3.711,3.711-3.711S161.087,295.209,161.087,297.259z"/>
				</g>
				<g>
					<path style="fill:#F7891B;" d="M174.861,297.259c0,2.05-1.661,3.711-3.711,3.711c-2.05,0-3.711-1.661-3.711-3.711
						c0-2.05,1.661-3.711,3.711-3.711C173.199,293.548,174.861,295.209,174.861,297.259z"/>
				</g>
				<g>
					<path style="fill:#F7891B;" d="M188.635,297.259c0,2.05-1.661,3.711-3.711,3.711s-3.711-1.661-3.711-3.711
						c0-2.05,1.662-3.711,3.711-3.711S188.635,295.209,188.635,297.259z"/>
				</g>
				<g>
					<path style="fill:#F7891B;" d="M202.409,297.259c0,2.05-1.662,3.711-3.711,3.711c-2.05,0-3.711-1.661-3.711-3.711
						c0-2.05,1.661-3.711,3.711-3.711C200.747,293.548,202.409,295.209,202.409,297.259z"/>
				</g>
				<g>
					<path style="fill:#F7891B;" d="M216.183,297.259c0,2.05-1.661,3.711-3.711,3.711c-2.05,0-3.711-1.661-3.711-3.711
						c0-2.05,1.661-3.711,3.711-3.711C214.521,293.548,216.183,295.209,216.183,297.259z"/>
				</g>
			</g>
			<g>
				<g>
					<path style="fill:#F7891B;" d="M119.765,311.843c0,2.05-1.661,3.711-3.711,3.711c-2.05,0-3.711-1.661-3.711-3.711
						c0-2.05,1.662-3.711,3.711-3.711C118.104,308.132,119.765,309.793,119.765,311.843z"/>
				</g>
				<g>
					<path style="fill:#F7891B;" d="M133.539,311.843c0,2.05-1.662,3.711-3.711,3.711c-2.05,0-3.711-1.661-3.711-3.711
						c0-2.05,1.661-3.711,3.711-3.711C131.877,308.132,133.539,309.793,133.539,311.843z"/>
				</g>
				<g>
					<path style="fill:#F7891B;" d="M147.313,311.843c0,2.05-1.662,3.711-3.711,3.711c-2.05,0-3.711-1.661-3.711-3.711
						c0-2.05,1.661-3.711,3.711-3.711C145.651,308.132,147.313,309.793,147.313,311.843z"/>
				</g>
				<g>
					<path style="fill:#F7891B;" d="M161.087,311.843c0,2.05-1.662,3.711-3.711,3.711s-3.711-1.661-3.711-3.711
						c0-2.05,1.662-3.711,3.711-3.711S161.087,309.793,161.087,311.843z"/>
				</g>
				<g>
					<path style="fill:#F7891B;" d="M174.861,311.843c0,2.05-1.661,3.711-3.711,3.711c-2.05,0-3.711-1.661-3.711-3.711
						c0-2.05,1.661-3.711,3.711-3.711C173.199,308.132,174.861,309.793,174.861,311.843z"/>
				</g>
				<g>
					<path style="fill:#F7891B;" d="M188.635,311.843c0,2.05-1.661,3.711-3.711,3.711s-3.711-1.661-3.711-3.711
						c0-2.05,1.662-3.711,3.711-3.711S188.635,309.793,188.635,311.843z"/>
				</g>
				<g>
					<path style="fill:#F7891B;" d="M202.409,311.843c0,2.05-1.662,3.711-3.711,3.711c-2.05,0-3.711-1.661-3.711-3.711
						c0-2.05,1.661-3.711,3.711-3.711C200.747,308.132,202.409,309.793,202.409,311.843z"/>
				</g>
			</g>
			<g>
				<g>
					<path style="fill:#F7891B;" d="M133.54,326.428c0,1.625-1.046,3.007-2.502,3.508c-0.227-0.933-0.46-1.86-0.695-2.777
						c-0.116-0.455-0.235-0.91-0.354-1.36c-0.048-0.187-0.099-0.374-0.147-0.561c-1.127-0.179-2.201-0.404-3.23-0.662
						c0.538-0.932,1.471-1.61,2.57-1.802c0.21-0.038,0.425-0.058,0.644-0.058c1.787,0,3.283,1.266,3.634,2.949
						C133.512,325.91,133.54,326.165,133.54,326.428z"/>
				</g>
				<g>
					<path style="fill:#F7891B;" d="M147.313,326.427c0,2.05-1.662,3.711-3.711,3.711c-2.05,0-3.711-1.661-3.711-3.711
						s1.661-3.711,3.711-3.711C145.651,322.716,147.313,324.377,147.313,326.427z"/>
				</g>
				<g>
					<path style="fill:#F7891B;" d="M161.087,326.427c0,2.05-1.662,3.711-3.711,3.711s-3.711-1.661-3.711-3.711
						s1.662-3.711,3.711-3.711S161.087,324.377,161.087,326.427z"/>
				</g>
				<g>
					<path style="fill:#F7891B;" d="M174.861,326.427c0,2.05-1.661,3.711-3.711,3.711c-2.05,0-3.711-1.661-3.711-3.711
						s1.661-3.711,3.711-3.711C173.199,322.716,174.861,324.377,174.861,326.427z"/>
				</g>
				<g>
					<path style="fill:#F7891B;" d="M188.635,326.427c0,2.05-1.661,3.711-3.711,3.711s-3.711-1.661-3.711-3.711
						s1.662-3.711,3.711-3.711S188.635,324.377,188.635,326.427z"/>
				</g>
				<g>
					<path style="fill:#F7891B;" d="M202.409,326.427c0,2.05-1.662,3.711-3.711,3.711c-2.05,0-3.711-1.661-3.711-3.711
						s1.661-3.711,3.711-3.711C200.747,322.716,202.409,324.377,202.409,326.427z"/>
				</g>
			</g>
			<g>
				<g>
					<path style="fill:#F7891B;" d="M133.54,341.012v0.015c-0.104-0.508-0.21-1.003-0.316-1.514
						C133.429,339.973,133.54,340.479,133.54,341.012z"/>
				</g>
				<g>
					<path style="fill:#F7891B;" d="M147.313,341.011c0,2.05-1.662,3.711-3.711,3.711c-2.05,0-3.711-1.661-3.711-3.711
						c0-2.05,1.661-3.711,3.711-3.711C145.651,337.3,147.313,338.961,147.313,341.011z"/>
				</g>
				<g>
					<path style="fill:#F7891B;" d="M161.087,341.011c0,2.05-1.662,3.711-3.711,3.711s-3.711-1.661-3.711-3.711
						c0-2.05,1.662-3.711,3.711-3.711S161.087,338.961,161.087,341.011z"/>
				</g>
				<g>
					<path style="fill:#F7891B;" d="M174.861,341.011c0,2.05-1.661,3.711-3.711,3.711c-2.05,0-3.711-1.661-3.711-3.711
						c0-2.05,1.661-3.711,3.711-3.711C173.199,337.3,174.861,338.961,174.861,341.011z"/>
				</g>
				<g>
					<path style="fill:#F7891B;" d="M188.635,341.011c0,2.05-1.661,3.711-3.711,3.711s-3.711-1.661-3.711-3.711
						c0-2.05,1.662-3.711,3.711-3.711S188.635,338.961,188.635,341.011z"/>
				</g>
				<g>
					<path style="fill:#F7891B;" d="M200.741,337.914c-0.349,1.132-0.629,2.302-0.819,3.528c-0.144,0.925-0.205,1.979-0.195,3.134
						c-0.328,0.096-0.675,0.147-1.031,0.147c-2.049,0-3.71-1.66-3.71-3.71s1.66-3.712,3.71-3.712
						C199.453,337.299,200.155,337.525,200.741,337.914z"/>
				</g>
			</g>
			<g>
				<g>
					<path style="fill:#F7891B;" d="M147.313,355.595c0,2.05-1.662,3.711-3.711,3.711c-2.05,0-3.711-1.662-3.711-3.711
						s1.661-3.711,3.711-3.711C145.651,351.884,147.313,353.545,147.313,355.595z"/>
				</g>
				<g>
					<circle style="fill:#F7891B;" cx="157.376" cy="355.595" r="3.711"/>
				</g>
				<g>
					<path style="fill:#F7891B;" d="M174.861,355.595c0,2.05-1.661,3.711-3.711,3.711c-2.05,0-3.711-1.662-3.711-3.711
						s1.661-3.711,3.711-3.711C173.199,351.884,174.861,353.545,174.861,355.595z"/>
				</g>
				<g>
					<path style="fill:#F7891B;" d="M188.635,355.595c0,2.05-1.661,3.711-3.711,3.711s-3.711-1.662-3.711-3.711
						s1.662-3.711,3.711-3.711S188.635,353.545,188.635,355.595z"/>
				</g>
				<g>
					<path style="fill:#F7891B;" d="M201.563,357.956c-0.682,0.824-1.713,1.349-2.866,1.349c-2.049,0-3.71-1.66-3.71-3.71
						s1.66-3.712,3.71-3.712c0.649,0,1.261,0.169,1.794,0.462C200.784,354.153,201.148,356.038,201.563,357.956z"/>
				</g>
			</g>
			<g>
				<g>
					<path style="fill:#F7891B;" d="M147.313,370.179c0,2.05-1.662,3.711-3.711,3.711c-2.05,0-3.711-1.662-3.711-3.711
						c0-2.05,1.661-3.711,3.711-3.711C145.651,366.468,147.313,368.129,147.313,370.179z"/>
				</g>
				<g>
					<path style="fill:#F7891B;" d="M161.087,370.179c0,2.05-1.662,3.711-3.711,3.711s-3.711-1.662-3.711-3.711
						c0-2.05,1.662-3.711,3.711-3.711S161.087,368.129,161.087,370.179z"/>
				</g>
				<g>
					<path style="fill:#F7891B;" d="M174.861,370.179c0,2.05-1.661,3.711-3.711,3.711c-2.05,0-3.711-1.662-3.711-3.711
						c0-2.05,1.661-3.711,3.711-3.711C173.199,366.468,174.861,368.129,174.861,370.179z"/>
				</g>
				<g>
					<path style="fill:#F7891B;" d="M188.635,370.179c0,2.05-1.661,3.711-3.711,3.711s-3.711-1.662-3.711-3.711
						c0-2.05,1.662-3.711,3.711-3.711S188.635,368.129,188.635,370.179z"/>
				</g>
				<g>
					<path style="fill:#F7891B;" d="M202.409,370.179c0,2.05-1.662,3.711-3.711,3.711c-2.05,0-3.711-1.662-3.711-3.711
						c0-2.05,1.661-3.711,3.711-3.711C200.747,366.468,202.409,368.129,202.409,370.179z"/>
				</g>
			</g>
			<g>
				<g>
					<path style="fill:#F7891B;" d="M147.313,384.763c0,2.05-1.662,3.711-3.711,3.711c-2.05,0-3.711-1.661-3.711-3.711
						c0-2.05,1.661-3.711,3.711-3.711C145.651,381.052,147.313,382.713,147.313,384.763z"/>
				</g>
				<g>
					<path style="fill:#F7891B;" d="M161.087,384.763c0,2.05-1.662,3.711-3.711,3.711s-3.711-1.661-3.711-3.711
						c0-2.05,1.662-3.711,3.711-3.711S161.087,382.713,161.087,384.763z"/>
				</g>
				<g>
					<path style="fill:#F7891B;" d="M174.861,384.763c0,2.05-1.661,3.711-3.711,3.711c-2.05,0-3.711-1.661-3.711-3.711
						c0-2.05,1.661-3.711,3.711-3.711C173.199,381.052,174.861,382.713,174.861,384.763z"/>
				</g>
				<g>
					<path style="fill:#F7891B;" d="M188.635,384.763c0,2.05-1.661,3.711-3.711,3.711s-3.711-1.661-3.711-3.711
						c0-2.05,1.662-3.711,3.711-3.711S188.635,382.713,188.635,384.763z"/>
				</g>
				<g>
					<path style="fill:#F7891B;" d="M202.409,384.763c0,2.05-1.662,3.711-3.711,3.711c-2.05,0-3.711-1.661-3.711-3.711
						c0-2.05,1.661-3.711,3.711-3.711C200.747,381.052,202.409,382.713,202.409,384.763z"/>
				</g>
				<g>
					<path style="fill:#F7891B;" d="M209.804,386.422c-0.144,0.126-0.291,0.253-0.435,0.377c-0.384-0.584-0.609-1.281-0.609-2.034
						c0-0.344,0.046-0.677,0.134-0.991C209.458,385.449,209.804,386.422,209.804,386.422z"/>
				</g>
			</g>
		</g>
		<g>
			<g>
				<g>
					<g>
						<g>
							<g>
								<path style="fill:#FFFFFF;" d="M192.545,369.733c-23.28,2.346-45.072-13.695-45.306-13.869
									c-0.288-0.215-0.347-0.622-0.132-0.91c0.215-0.288,0.623-0.347,0.91-0.132c0.245,0.183,24.813,18.252,49.299,12.833
									c0.349-0.078,0.698,0.143,0.775,0.494c0.078,0.351-0.144,0.698-0.494,0.776
									C195.912,369.298,194.224,369.564,192.545,369.733z"/>
							</g>
						</g>
					</g>
				</g>
			</g>
		</g>
		<g>
			<g>
				<g>
					<g>
						<g>
							<g>
								<path style="fill:#FFFFFF;" d="M191.374,364.549c-11.263-1.02-21.091-6.597-28.506-12.435
									c-0.449-0.354-1.101,0.004-1.043,0.573l0,0c0.018,0.175,0.105,0.335,0.243,0.444c6.448,5.076,14.693,9.963,24.128,11.951
									c1.639,0.345,3.315,0.603,5.022,0.759c0.339,0.031,0.671-0.186,0.735-0.52C192.028,364.938,191.753,364.583,191.374,364.549
									z"/>
							</g>
						</g>
					</g>
				</g>
			</g>
		</g>
		<g>
			<g>
				<g>
					<g>
						<g>
							<g>
								<path style="fill:#FFFFFF;" d="M174.673,274.099c-11.163,1.125-22.156-4.565-22.698-4.85
									c-0.318-0.167-0.44-0.56-0.273-0.878c0.167-0.318,0.561-0.441,0.878-0.273c0.152,0.08,15.307,7.918,27.604,3.448
									c0.34-0.123,0.711,0.052,0.833,0.389c0.123,0.337-0.052,0.711-0.389,0.833C178.679,273.477,176.672,273.897,174.673,274.099
									z"/>
							</g>
						</g>
					</g>
				</g>
			</g>
		</g>
		<g>
			<g>
				<g>
					<g>
						<g>
							<g>
								<path style="fill:#FFFFFF;" d="M170.668,281.965c-4.988,0.503-9.464-0.261-9.745-0.311c-0.354-0.062-0.59-0.399-0.528-0.753
									c0.063-0.353,0.4-0.589,0.753-0.528c0.101,0.018,10.111,1.724,16.596-1.651c0.319-0.165,0.711-0.042,0.877,0.277
									c0.166,0.319,0.042,0.711-0.277,0.877C175.991,281.1,173.26,281.704,170.668,281.965z"/>
							</g>
						</g>
					</g>
				</g>
			</g>
		</g>
		<g>
			<g>
				<g>
					<g>
						<g>
							<g>
								<path style="fill:#FFFFFF;" d="M146.413,299.334l-6.579,27.129c-0.062,0.25-0.261,0.44-0.513,0.487
									c-0.577,0.111-1.394,0.263-2.456,0.37c-1.605,0.162-3.774,0.215-6.523-0.162c-0.115-0.455-0.235-0.909-0.355-1.359
									c4.262,0.647,7.122,0.232,8.68-0.051l6.48-26.722c0.083-0.348,0.436-0.563,0.784-0.48
									C146.281,298.632,146.496,298.985,146.413,299.334z"/>
							</g>
						</g>
					</g>
				</g>
			</g>
		</g>
		<g>
			<g>
				<g>
					<g>
						<g>
							<g>
								<path style="fill:#FFFFFF;" d="M143.292,310.358c-0.158,0.016-0.321-0.025-0.457-0.129
									c-0.286-0.217-0.343-0.625-0.126-0.911l6.254-8.264c0.216-0.286,0.625-0.343,0.911-0.126
									c0.286,0.217,0.343,0.625,0.126,0.911l-6.254,8.264C143.632,310.253,143.466,310.34,143.292,310.358z"/>
							</g>
						</g>
					</g>
				</g>
			</g>
		</g>
		<g>
			<g>
				<g>
					<g>
						<g>
							<g>
								<g>
									<path style="fill:#FFA19F;" d="M179.254,262.675c0,0-0.647,5.528-8.677,5.792c-9.606,0.323-18.119-7.024-18.119-7.024
										c2.129-5.62,3.307-13.735,3.477-18.856c0.09-2.59,0.021-4.302,0.021-4.302l0.004,0.005l23.737,12.62l-0.241,6.33
										l-0.116,3.121L179.254,262.675z"/>
								</g>
							</g>
						</g>
					</g>
				</g>
				<g>
					<g>
						<g>
							<g>
								<g>
									<path style="fill:#0D0A3E;" d="M179.456,257.24c-12.969-2.108-20.799-10.476-23.483-16.016
										c0.081-2.424-0.006-2.885-0.013-2.934l23.737,12.62L179.456,257.24z"/>
								</g>
							</g>
						</g>
					</g>
				</g>
			</g>
			<g>
				<g>
					<g>
						<g>
							<g>
								<path style="fill:#EC7B7B;" d="M195.267,218.772c0,0,1.967-4.941,6.866-3.566c4.899,1.375,3.266,21.923-8.865,19.481
									L195.267,218.772z"/>
							</g>
						</g>
					</g>
				</g>
			</g>
			<g>
				<path style="fill:#FFFFFF;" d="M195.836,241.236c-3.5,0-6.348-2.848-6.348-6.348c0-3.501,2.848-6.348,6.348-6.348
					c3.501,0,6.348,2.848,6.348,6.348C202.184,238.389,199.336,241.236,195.836,241.236z M195.836,229.955
					c-2.72,0-4.932,2.213-4.932,4.933s2.213,4.933,4.932,4.933c2.72,0,4.933-2.213,4.933-4.933S198.556,229.955,195.836,229.955z"/>
			</g>
			<g>
				<g>
					<path style="fill:#FFA19F;" d="M201.494,226.714c-0.018,0.105-0.036,0.206-0.055,0.311c-0.172,0.935-0.357,1.884-0.569,2.845
						c-0.013,0.052-0.022,0.108-0.035,0.16c-0.272,1.241-0.571,2.494-0.906,3.748c-0.289,1.075-0.56,2.17-0.948,3.23
						c-4.601,12.571-13.903,17.01-25.026,14.386c-20.455-4.824-25.419-25.992-26.547-37.794c-0.405-4.237-0.332-7.03-0.332-7.03
						c1.488-15.36,19.738-25.694,33.812-22.92c19.722,3.885,21.94,16.131,22.125,25.569c0.024,1.031,0.021,2.029,0.012,2.977
						C203.002,215.036,202.615,220.526,201.494,226.714z"/>
				</g>
			</g>
			<g>
				<g>
					<path style="fill:#EC7B7B;" d="M183.393,244.452c0.257,0.095,0.442,0.339,0.447,0.629c0.007,0.377-0.294,0.689-0.671,0.696
						c-2.883,0.053-4.386-0.613-4.449-0.642c-0.344-0.156-0.496-0.561-0.34-0.905c0.156-0.343,0.561-0.496,0.902-0.342
						c0.026,0.012,1.337,0.568,3.862,0.522C183.231,244.408,183.315,244.423,183.393,244.452z"/>
				</g>
			</g>
			<g>
				<path style="fill:#FFFFFF;" d="M172.983,233.894c0,0,11.969,2.176,18.769,1.632c0,0-1.632,8.432-11.153,6.8
					C173.38,241.089,172.983,233.894,172.983,233.894z"/>
			</g>
			<g>
				<g>
					<g>
						<g>
							<g>
								<g>
									<g>
										<path style="fill:#0D0A3E;" d="M178.403,210.976c0.28-0.075,0.529-0.259,0.679-0.533c0.29-0.531,0.097-1.195-0.432-1.486
											c-2.08-1.147-6.84-2.23-9.963,1.875c-0.366,0.483-0.273,1.171,0.21,1.538c0.482,0.368,1.171,0.273,1.538-0.209
											c2.748-3.614,6.981-1.376,7.16-1.28C177.851,211.02,178.139,211.046,178.403,210.976z"/>
									</g>
								</g>
							</g>
						</g>
					</g>
				</g>
			</g>
			<g>
				<g>
					<g>
						<g>
							<g>
								<g>
									<g>
										<path style="fill:#0D0A3E;" d="M198.685,217.479c0.243,0.157,0.547,0.217,0.851,0.145c0.588-0.142,0.95-0.731,0.811-1.319
											c-0.549-2.311-2.946-6.563-8.085-6.117c-0.604,0.053-1.051,0.585-0.998,1.188c0.051,0.604,0.585,1.05,1.188,0.998
											c4.523-0.395,5.711,4.244,5.76,4.442C198.281,217.1,198.456,217.332,198.685,217.479z"/>
									</g>
								</g>
							</g>
						</g>
					</g>
				</g>
			</g>
			<g>
				<g>
					<g>
						<g>
							<g>
								<path style="fill:#0D0A3E;" d="M199.3,208.048c0,0-0.143,3.098,1.586,6.014c0.893,1.507,1.425,3.201,1.441,4.953
									l0.019,2.136c0,0,2.23-8.525,0.673-11.931L199.3,208.048z"/>
							</g>
						</g>
					</g>
				</g>
			</g>
			<g>
				<g>
					<g>
						<g>
							<g>
								<path style="fill:#EC7B7B;" d="M172.019,223.573c-0.092,0.911-2.633,1.402-5.676,1.096
									c-3.044-0.306-5.437-1.293-5.345-2.204c0.092-0.911,2.633-1.402,5.677-1.096
									C169.717,221.675,172.11,222.662,172.019,223.573z"/>
							</g>
						</g>
					</g>
				</g>
			</g>
			<g>
				<g>
					<g>
						<g>
							<g>
								<path style="fill:#EC7B7B;" d="M201.495,226.713c-0.018,0.105-0.036,0.206-0.055,0.311
									c-0.172,0.935-0.357,1.884-0.569,2.845c-0.463-0.024-0.946-0.066-1.447-0.125c-3.342-0.403-5.996-1.471-5.921-2.389
									c0.075-0.914,2.842-1.333,6.185-0.937C200.321,226.494,200.928,226.594,201.495,226.713z"/>
							</g>
						</g>
					</g>
				</g>
			</g>
			<g>
				<g>
					<g>
						<g>
							<g>
								<path style="fill:#0D0A3E;" d="M176.137,218.615c-0.164,1.633-1.019,2.884-1.91,2.795c-0.89-0.09-1.479-1.486-1.315-3.119
									c0.164-1.633,1.019-2.884,1.91-2.795C175.713,215.586,176.301,216.983,176.137,218.615z"/>
							</g>
						</g>
					</g>
				</g>
			</g>
			<g>
				<g>
					<g>
						<g>
							<g>
								<path style="fill:#0D0A3E;" d="M195.808,220.744c-0.164,1.633-1.019,2.884-1.909,2.794c-0.89-0.089-1.479-1.486-1.315-3.119
									c0.164-1.633,1.019-2.884,1.909-2.794C195.384,217.715,195.973,219.111,195.808,220.744z"/>
							</g>
						</g>
					</g>
				</g>
			</g>
			<g>
				<g>
					<g>
						<g>
							<g>
								<path style="fill:#EC7B7B;" d="M182.264,231.779c-0.538-0.055-0.94-0.527-0.904-1.072c0.037-0.556,0.518-0.977,1.074-0.94
									c0.823,0.055,1.5,0.056,1.988,0.041c-0.024-3.158-0.713-7.494-0.72-7.542c-0.088-0.55,0.286-1.068,0.836-1.156
									c0.551-0.09,1.068,0.286,1.157,0.837c0.036,0.223,0.873,5.491,0.73,8.851c-0.021,0.492-0.394,0.896-0.882,0.958
									c-0.051,0.007-1.277,0.157-3.244,0.025C182.288,231.781,182.276,231.78,182.264,231.779z"/>
							</g>
						</g>
					</g>
				</g>
			</g>
			<g>
				<g>
					<g>
						<g>
							<g>
								<path style="fill:#0D0A3E;" d="M158.884,209.676c-1.441,5.001,0.24,15.453-2.909,15.131
									c-3.149-0.322-4.115-11.734-4.115-11.734l-4.451,0.528c-0.405-4.237-0.332-7.03-0.332-7.03
									c1.488-15.36,19.738-25.694,33.812-22.92c19.722,3.885,21.94,16.131,22.125,25.569l-3.714-1.173
									c-8.239-1.963-5.777-12.603-5.777-12.603C191.545,202.288,166.354,208.745,158.884,209.676z"/>
							</g>
						</g>
					</g>
				</g>
			</g>
			<g>
				<g>
					<g>
						<g>
							<g>
								<g>
									<path style="fill:#FFA19F;" d="M152.137,213.664c0,0-2.377-5.7-8.04-4.011c-5.663,1.689-3.379,25.518,10.661,22.453
										L152.137,213.664z"/>
								</g>
							</g>
						</g>
					</g>
				</g>
				<g>
					<path style="fill:#FFFFFF;" d="M154.918,237.66c-1.132,1.727-3.088,2.868-5.305,2.868c-3.5,0-6.348-2.847-6.348-6.348
						c0-3.312,2.548-6.036,5.786-6.322c0.066,0.467,0.052,0.944,0.038,1.418c-2.475,0.262-4.409,2.361-4.409,4.904
						c0,2.72,2.213,4.932,4.932,4.932c1.972,0,3.68-1.165,4.465-2.842C154.347,236.738,154.628,237.202,154.918,237.66z"/>
				</g>
				<g>
					<g>
						<g>
							<g>
								<g>
									<path style="fill:#EC7B7B;" d="M149.533,225.364c-0.005,0-0.011-0.001-0.016-0.002c-0.554-0.065-0.949-0.567-0.885-1.12
										c0.742-6.301-3.849-9.592-3.895-9.624c-0.457-0.32-0.568-0.949-0.248-1.406c0.319-0.457,0.95-0.568,1.406-0.248
										c0.23,0.161,5.624,4.028,4.743,11.514C150.573,225.027,150.08,225.42,149.533,225.364z"/>
								</g>
							</g>
						</g>
					</g>
				</g>
				<g>
					<g>
						<g>
							<g>
								<g>
									<path style="fill:#EC7B7B;" d="M145.054,220.549c-0.409-0.042-0.768-0.333-0.875-0.756c-0.137-0.54,0.189-1.09,0.729-1.227
										c0.324-0.082,3.212-0.763,5.049,0.588c0.449,0.331,0.545,0.962,0.214,1.411c-0.331,0.449-0.963,0.544-1.411,0.214
										c-0.915-0.673-2.774-0.404-3.354-0.257C145.287,220.553,145.168,220.561,145.054,220.549z"/>
								</g>
							</g>
						</g>
					</g>
				</g>
			</g>
		</g>
		<g>
			<g>
				<g>
					<path style="fill:#FFFFFF;" d="M173.84,230.336c-5.226,0-9.477-4.251-9.477-9.477c0-5.226,4.251-9.477,9.477-9.477
						s9.477,4.251,9.477,9.477C183.317,226.085,179.065,230.336,173.84,230.336z M173.84,212.586c-4.562,0-8.273,3.711-8.273,8.273
						c0,4.562,3.711,8.273,8.273,8.273c4.562,0,8.273-3.711,8.273-8.273C182.113,216.297,178.402,212.586,173.84,212.586z"/>
				</g>
			</g>
			<g>
				<g>
					<path style="fill:#FFFFFF;" d="M166.507,216.977c-0.118,0.12-0.274,0.181-0.431,0.181c-0.152,0-0.303-0.058-0.421-0.171
						c-0.07-0.07-5.142-4.88-14.049-4.297c-0.214-0.34-0.498-0.737-0.852-1.136c9.956-0.98,15.505,4.338,15.746,4.574
						C166.736,216.358,166.741,216.741,166.507,216.977z"/>
				</g>
			</g>
			<g>
				<g>
					<path style="fill:#FFFFFF;" d="M195.818,231.508c-5.225,0-9.477-4.251-9.477-9.477c0-5.225,4.251-9.477,9.477-9.477
						c5.226,0,9.477,4.251,9.477,9.477C205.295,227.257,201.044,231.508,195.818,231.508z M195.818,213.758
						c-4.562,0-8.273,3.711-8.273,8.273c0,4.562,3.711,8.273,8.273,8.273c4.562,0,8.273-3.711,8.273-8.273
						C204.091,217.469,200.38,213.758,195.818,213.758z"/>
				</g>
			</g>
			<g>
				<g>
					<path style="fill:#FFFFFF;" d="M187.15,220.725c-0.214,0-0.421-0.114-0.53-0.315c-0.021-0.038-0.586-1.021-1.773-1.121
						c-1.086-0.093-1.691,0.807-1.697,0.816c-0.182,0.278-0.555,0.355-0.833,0.173c-0.278-0.183-0.355-0.556-0.173-0.833
						c0.04-0.062,1.011-1.504,2.805-1.355c1.846,0.156,2.694,1.682,2.729,1.747c0.159,0.292,0.05,0.657-0.242,0.816
						C187.345,220.701,187.247,220.725,187.15,220.725z"/>
				</g>
			</g>
		</g>
		<g>
			<g>
				<g>
					<g>
						<g>
							<g>
								<path style="fill:#0D0A3E;" d="M212.669,392.491c-1.786-3.855-2.864-6.069-2.864-6.069
									c-4.859,2.443-9.615,4.442-14.229,6.069H212.669z"/>
							</g>
						</g>
					</g>
				</g>
			</g>
		</g>
		<g>
			<g>
				<g>
					<g>
						<g>
							<g>
								<path style="fill:#FFA19F;" d="M134.854,325.745c-0.008,0.035-0.013,0.071-0.02,0.106c-0.068,0.389-0.141,0.781-0.212,1.178
									c-0.139,0.756-0.28,1.524-0.427,2.307c-0.008,0.038-0.015,0.076-0.023,0.114v0.003c-1.751,9.393-4.054,20.462-6.545,29.236
									c-0.005,0.02-0.013,0.04-0.018,0.061c-0.197,0.685-0.392,1.36-0.591,2.017c-0.003,0.008-0.003,0.013-0.005,0.02
									c-0.002,0.005-0.005,0.01-0.005,0.015c-0.007,0.028-0.018,0.056-0.025,0.083c-1.683,5.57-3.442,9.962-5.171,12.001
									c-4.801,5.661-13.166,6.656-17.364-1.097c-2.434-4.491-3.465-11.918-1.597-23.07c1.731-10.323,4.314-20.965,6.967-30.523
									c0.109-0.387,0.215-0.768,0.323-1.15c0.139-0.495,0.281-0.988,0.42-1.476c2.247,2.363,7.445,6.854,16.052,9.004
									c1.028,0.258,2.103,0.483,3.23,0.662c1.155,0.19,2.36,0.334,3.619,0.427C133.919,325.697,134.381,325.725,134.854,325.745z"
									/>
							</g>
						</g>
					</g>
				</g>
			</g>
			<g>
				<path style="fill:#FFA19F;" d="M176.596,392.997c0,0-37.218-2.279-52.916-6.583c-15.698-4.304-19.232-14.622-19.232-14.622
					v-0.002c0-0.187,0.084-6.694,7.332-9.429c1.448-0.547,2.871-0.967,4.274-1.276c3.788-0.841,7.421-0.858,10.953-0.284
					c0.223,0.035,0.448,0.076,0.671,0.116c7.036,1.296,13.672,4.912,20.308,9.039c11.393,7.089,31.648,11.393,31.648,11.393
					C184.191,386.668,176.596,392.997,176.596,392.997z"/>
			</g>
			<g>
				<path style="fill:#0D0A3E;" d="M127.626,358.689c-0.005,0.02-0.013,0.04-0.018,0.061c-0.197,0.685-0.392,1.36-0.591,2.017
					c-0.003,0.008-0.003,0.013-0.005,0.02c-2.906-0.038-9.163,0.177-13.467,1.936c0.071-0.051,1.092-0.771,2.858-1.587
					C118.875,359.993,122.8,358.659,127.626,358.689z"/>
			</g>
			<g>
				<path style="fill:#FFA19F;" d="M179.634,381.351c0,0,12.815-4.121,21.411-1.886c8.597,2.235,11.624,13.026,11.624,13.026
					l-33.035-0.02C179.634,392.47,174.927,382.581,179.634,381.351z"/>
			</g>
			<g>
				<g>
					<g>
						<g>
							<g>
								<path style="fill:#0D0A3E;" d="M134.854,325.745c-0.008,0.035-0.013,0.071-0.02,0.106c-0.068,0.389-0.139,0.781-0.212,1.178
									c-0.139,0.756-0.28,1.524-0.427,2.307c-0.008,0.038-0.015,0.076-0.023,0.114c-7.771-0.066-20.72-7.837-24.354-11.253
									c0.109-0.387,0.215-0.768,0.323-1.15c0.139-0.495,0.281-0.988,0.42-1.476c2.247,2.363,7.445,6.854,16.052,9.004
									c1.028,0.258,2.103,0.483,3.23,0.662c1.155,0.19,2.36,0.334,3.619,0.427C133.919,325.697,134.381,325.725,134.854,325.745z"
									/>
							</g>
						</g>
					</g>
				</g>
			</g>
		</g>
	</g>
	<g>
		<path style="fill:#0D0A3E;" d="M482.725,398H21.84c-0.991,0-1.795-0.804-1.795-1.795v-1.94c0-0.991,0.804-1.795,1.795-1.795
			h460.885c0.991,0,1.795,0.804,1.795,1.795v1.94C484.519,397.196,483.716,398,482.725,398z"/>
	</g>
	<g>
		<g>
			<path style="fill:#832DDB;" d="M299.648,392.47h-126.82c-1.413,0-2.559-1.146-2.559-2.559v-2.766
				c0-1.413,1.146-2.559,2.559-2.559h126.82c1.413,0,2.559,1.146,2.559,2.559v2.766C302.208,391.325,301.062,392.47,299.648,392.47z
				"/>
		</g>
		<g>
			<path style="fill:#9A5BFD;" d="M345.378,320.237l-16.336,69.092c-0.436,1.841-2.079,3.141-3.972,3.141H224.436
				c-2.633,0-4.578-2.458-3.972-5.019l16.336-69.092c0.436-1.842,2.079-3.141,3.972-3.141h100.634
				C344.039,315.218,345.984,317.676,345.378,320.237z"/>
		</g>
		<g>
			<path style="fill:#832DDB;" d="M244.759,315.218l-17.393,77.252h-2.93c-2.633,0-4.578-2.458-3.972-5.019l16.336-69.092
				c0.436-1.842,2.079-3.141,3.972-3.141H244.759z"/>
		</g>
		<g>
			
				<ellipse transform="matrix(0.2305 -0.9731 0.9731 0.2305 -126.716 555.7068)" style="fill:#832DDB;" cx="288.005" cy="357.974" rx="7.649" ry="7.649"/>
		</g>
		<g>
			<path style="fill:#FFFFFF;" d="M222.824,376.027c-0.029,0-0.058-0.003-0.087-0.01c-0.204-0.048-0.33-0.252-0.282-0.456
				l13.146-55.599c0.048-0.204,0.253-0.33,0.456-0.282c0.204,0.048,0.33,0.253,0.282,0.456l-13.146,55.599
				C223.152,375.91,222.996,376.027,222.824,376.027z"/>
		</g>
	</g>
	<g>
		<g>
			<g>
				<path style="fill:#0092C4;" d="M44.895,357.741c-0.374,0-0.677-0.303-0.677-0.677v-44.278c0-0.374,0.303-0.677,0.677-0.677
					c0.375,0,0.677,0.303,0.677,0.677v44.278C45.572,357.438,45.269,357.741,44.895,357.741z"/>
			</g>
		</g>
		<g>
			<g>
				<g>
					<g>
						<polygon style="fill:#FF4767;" points="53.981,392.47 54.817,389.372 54.954,388.861 55.601,386.463 55.739,385.952 
							62.161,362.145 62.299,361.634 62.945,359.236 63.082,358.725 63.798,356.072 25.991,356.072 26.707,358.725 26.845,359.236 
							27.49,361.634 27.628,362.145 34.051,385.952 34.188,386.463 34.835,388.861 34.972,389.372 35.808,392.47 						"/>
					</g>
				</g>
				<g>
					<g>
						<g>
							<polygon style="fill:#D8234F;" points="63.082,358.725 62.945,359.236 26.845,359.236 26.707,358.725 							"/>
						</g>
					</g>
				</g>
				<g>
					<g>
						<g>
							<polygon style="fill:#D8234F;" points="62.299,361.634 62.161,362.145 27.628,362.145 27.49,361.634 							"/>
						</g>
					</g>
				</g>
				<g>
					<g>
						<g>
							<polygon style="fill:#D8234F;" points="55.739,385.952 55.601,386.463 34.188,386.463 34.051,385.952 							"/>
						</g>
					</g>
				</g>
				<g>
					<g>
						<g>
							<polygon style="fill:#D8234F;" points="54.954,388.861 54.817,389.372 34.972,389.372 34.835,388.861 							"/>
						</g>
					</g>
				</g>
			</g>
		</g>
		<g>
			<g>
				<g>
					<path style="fill:#00BAD9;" d="M47.316,322.454c-0.816,0.198-1.611-0.142-2.052-0.764c-0.153-0.212-0.267-0.455-0.323-0.722
						c-0.031-0.135-0.045-0.274-0.045-0.42c0-0.458,0.16-0.899,0.451-1.25c2.591-3.136,15.704-18.305,21.851-11.96
						C74.626,314.997,54.484,320.71,47.316,322.454z"/>
				</g>
			</g>
			<g>
				<g>
					<path style="fill:#0092C4;" d="M58.916,313.612l-13.652,8.078c-0.153-0.212-0.267-0.455-0.323-0.722l13.571-8.033
						c0.191-0.111,0.431-0.049,0.542,0.139C59.165,313.261,59.103,313.501,58.916,313.612z"/>
				</g>
			</g>
		</g>
		<g>
			<g>
				<g>
					<path style="fill:#00BAD9;" d="M44.896,328.052c0,0.146-0.014,0.285-0.045,0.42c-0.059,0.267-0.17,0.51-0.323,0.722
						c-0.444,0.622-1.24,0.962-2.056,0.764c-7.164-1.743-27.306-7.453-19.878-15.117c6.143-6.341,19.256,8.824,21.851,11.96
						C44.736,327.152,44.896,327.597,44.896,328.052z"/>
				</g>
			</g>
			<g>
				<g>
					<path style="fill:#0092C4;" d="M44.851,328.472c-0.059,0.267-0.17,0.51-0.323,0.722l-13.655-8.078
						c-0.184-0.108-0.247-0.351-0.135-0.538c0.108-0.188,0.351-0.25,0.538-0.139L44.851,328.472z"/>
				</g>
			</g>
		</g>
		<g>
			<g>
				<g>
					<path style="fill:#00BAD9;" d="M46.389,312.673c-0.055,0.455-0.264,0.875-0.594,1.191c-0.104,0.097-0.215,0.184-0.333,0.257
						c-0.233,0.142-0.49,0.229-0.75,0.264c-0.757,0.104-1.549-0.236-1.969-0.962c-3.681-6.386-13.436-24.91-2.764-24.82
						C48.81,288.68,46.872,308.634,46.389,312.673z"/>
				</g>
			</g>
			<g>
				<g>
					<path style="fill:#0092C4;" d="M45.462,314.121c-0.233,0.142-0.49,0.229-0.75,0.264l-3.567-15.457
						c-0.049-0.208,0.083-0.42,0.295-0.472c0.212-0.045,0.424,0.083,0.472,0.299L45.462,314.121z"/>
				</g>
			</g>
		</g>
		<g>
			<g>
				<g>
					<path style="fill:#00BAD9;" d="M47.316,338.56c-0.816,0.198-1.611-0.142-2.052-0.764c-0.153-0.212-0.267-0.455-0.323-0.722
						c-0.031-0.136-0.045-0.274-0.045-0.42c0-0.455,0.16-0.899,0.451-1.25c2.591-3.136,15.704-18.301,21.851-11.96
						C74.626,331.108,54.484,336.817,47.316,338.56z"/>
				</g>
			</g>
			<g>
				<g>
					<path style="fill:#0092C4;" d="M58.916,329.722l-13.652,8.074c-0.153-0.212-0.267-0.455-0.323-0.722l13.571-8.033
						c0.191-0.111,0.431-0.049,0.542,0.139C59.165,329.368,59.103,329.611,58.916,329.722z"/>
				</g>
			</g>
		</g>
		<g>
			<g>
				<g>
					<path style="fill:#00BAD9;" d="M44.896,344.158c0,0.146-0.014,0.285-0.045,0.42c-0.059,0.267-0.17,0.514-0.323,0.726
						c-0.448,0.622-1.24,0.958-2.056,0.76c-7.164-1.74-27.306-7.452-19.878-15.117c6.143-6.341,19.256,8.824,21.851,11.96
						C44.736,343.262,44.896,343.703,44.896,344.158z"/>
				</g>
			</g>
			<g>
				<g>
					<path style="fill:#0092C4;" d="M44.851,344.578c-0.059,0.267-0.17,0.514-0.323,0.726l-13.655-8.078
						c-0.184-0.111-0.247-0.351-0.135-0.542c0.108-0.184,0.351-0.247,0.538-0.139L44.851,344.578z"/>
				</g>
			</g>
		</g>
		<g>
			<g>
				<g>
					<path style="fill:#00BAD9;" d="M47.316,353.733c-0.816,0.198-1.611-0.142-2.052-0.764c-0.153-0.212-0.267-0.455-0.323-0.722
						c-0.031-0.135-0.045-0.275-0.045-0.42c0-0.458,0.16-0.9,0.451-1.25c2.591-3.136,15.704-18.305,21.851-11.96
						C74.626,346.277,54.484,351.989,47.316,353.733z"/>
				</g>
			</g>
			<g>
				<g>
					<path style="fill:#0092C4;" d="M58.916,344.891l-13.652,8.078c-0.153-0.212-0.267-0.455-0.323-0.722l13.571-8.033
						c0.191-0.111,0.431-0.049,0.542,0.139C59.165,344.54,59.103,344.78,58.916,344.891z"/>
				</g>
			</g>
		</g>
	</g>
	<g>
		<g>
			<g>
				<g>
					<path style="fill:#9A5BFD;" d="M124.492,369.15h1.397v-2.087H73.023c-1.751,0-3.341,0.708-4.488,1.859
						c-1.147,1.147-1.859,2.733-1.859,4.488c0,3.507,2.84,6.347,6.347,6.347h52.866v-1.807h-1.397V369.15z"/>
				</g>
			</g>
			<g>
				<g>
					<path style="fill:#FFFFFF;" d="M124.854,369.15v8.798h-48.51c-2.368,0-4.286-1.971-4.286-4.397c0-1.217,0.48-2.315,1.255-3.114
						c0.778-0.795,1.847-1.288,3.031-1.288H124.854z"/>
				</g>
			</g>
			<g>
				<g>
					<path style="fill:#C7DDF5;" d="M124.854,371.378v1.346H77.598c-0.368,0-0.671-0.302-0.671-0.671v-0.004
						c0-0.368,0.302-0.671,0.671-0.671H124.854z"/>
				</g>
			</g>
			<g>
				<g>
					<path style="fill:#C7DDF5;" d="M124.854,374.69v1.346H77.598c-0.368,0-0.671-0.302-0.671-0.671v-0.004
						c0-0.369,0.302-0.671,0.671-0.671H124.854z"/>
				</g>
			</g>
		</g>
		<g>
			<g>
				<g>
					<path style="fill:#9A5BFD;" d="M451.268,381.863h1.397v-2.087h-52.866c-1.751,0-3.341,0.708-4.488,1.859
						c-1.147,1.147-1.859,2.733-1.859,4.488c0,3.507,2.84,6.347,6.348,6.347h52.866v-1.807h-1.397V381.863z"/>
				</g>
			</g>
			<g>
				<g>
					<path style="fill:#FFFFFF;" d="M451.63,381.863v8.798h-48.51c-2.368,0-4.286-1.971-4.286-4.397c0-1.217,0.48-2.314,1.255-3.114
						c0.778-0.795,1.847-1.288,3.031-1.288H451.63z"/>
				</g>
			</g>
			<g>
				<g>
					<path style="fill:#C7DDF5;" d="M451.63,384.09v1.346h-47.256c-0.368,0-0.671-0.302-0.671-0.671v-0.004
						c0-0.368,0.302-0.671,0.671-0.671H451.63z"/>
				</g>
			</g>
			<g>
				<g>
					<path style="fill:#C7DDF5;" d="M451.63,387.403v1.346h-47.256c-0.368,0-0.671-0.302-0.671-0.671v-0.004
						c0-0.369,0.302-0.671,0.671-0.671H451.63z"/>
				</g>
			</g>
		</g>
		<g>
			<g>
				<g>
					<path style="fill:#FD4B61;" d="M443.602,369.168h1.397v-2.087h-52.866c-1.752,0-3.342,0.708-4.488,1.859
						c-1.147,1.147-1.859,2.733-1.859,4.488c0,3.507,2.84,6.347,6.347,6.347h52.866v-1.807h-1.397V369.168z"/>
				</g>
			</g>
			<g>
				<g>
					<path style="fill:#FFFFFF;" d="M443.964,369.168v8.798h-48.51c-2.368,0-4.285-1.971-4.285-4.397
						c0-1.217,0.48-2.315,1.255-3.114c0.778-0.795,1.847-1.288,3.031-1.288H443.964z"/>
				</g>
			</g>
			<g>
				<g>
					<path style="fill:#C7DDF5;" d="M443.964,371.396v1.346h-47.256c-0.368,0-0.671-0.302-0.671-0.671v-0.004
						c0-0.368,0.302-0.671,0.671-0.671H443.964z"/>
				</g>
			</g>
			<g>
				<g>
					<path style="fill:#C7DDF5;" d="M443.964,374.708v1.346h-47.256c-0.368,0-0.671-0.302-0.671-0.671v-0.004
						c0-0.369,0.302-0.671,0.671-0.671H443.964z"/>
				</g>
			</g>
		</g>
		<g>
			<g>
				<g>
					<path style="fill:#FFAE0B;" d="M446.355,356.521h1.397v-2.087h-52.866c-1.751,0-3.341,0.708-4.488,1.859
						c-1.147,1.147-1.859,2.733-1.859,4.488c0,3.507,2.84,6.348,6.347,6.348h52.866v-1.807h-1.397V356.521z"/>
				</g>
			</g>
			<g>
				<g>
					<path style="fill:#FFFFFF;" d="M446.717,356.521v8.798h-48.51c-2.368,0-4.285-1.971-4.285-4.397
						c0-1.217,0.48-2.315,1.255-3.114c0.778-0.795,1.847-1.288,3.031-1.288H446.717z"/>
				</g>
			</g>
			<g>
				<g>
					<path style="fill:#C7DDF5;" d="M446.717,358.749v1.346h-47.256c-0.368,0-0.671-0.302-0.671-0.671v-0.004
						c0-0.368,0.302-0.671,0.671-0.671H446.717z"/>
				</g>
			</g>
			<g>
				<g>
					<path style="fill:#C7DDF5;" d="M446.717,362.061v1.346h-47.256c-0.368,0-0.671-0.302-0.671-0.671v-0.004
						c0-0.368,0.302-0.671,0.671-0.671H446.717z"/>
				</g>
			</g>
		</g>
		<g>
			<g>
				<g>
					<path style="fill:#FFAE0B;" d="M117.71,381.845h1.397v-2.087H66.241c-1.752,0-3.341,0.708-4.488,1.859
						c-1.147,1.147-1.859,2.733-1.859,4.488c0,3.507,2.84,6.347,6.347,6.347h52.866v-1.807h-1.397V381.845z"/>
				</g>
			</g>
			<g>
				<g>
					<path style="fill:#FFFFFF;" d="M118.072,381.845v8.799h-48.51c-2.368,0-4.286-1.971-4.286-4.397
						c0-1.217,0.48-2.315,1.255-3.114c0.778-0.795,1.847-1.288,3.031-1.288H118.072z"/>
				</g>
			</g>
			<g>
				<g>
					<path style="fill:#C7DDF5;" d="M118.072,384.073v1.346H70.816c-0.368,0-0.671-0.302-0.671-0.671v-0.004
						c0-0.368,0.302-0.671,0.671-0.671H118.072z"/>
				</g>
			</g>
			<g>
				<g>
					<path style="fill:#C7DDF5;" d="M118.072,387.385v1.346H70.816c-0.368,0-0.671-0.302-0.671-0.671v-0.004
						c0-0.368,0.302-0.671,0.671-0.671H118.072z"/>
				</g>
			</g>
		</g>
	</g>
	<g>
		<g>
			<g>
				<path style="fill:#00BAD9;" d="M276.794,171.854v19.89c0,2.629-2.133,4.762-4.762,4.762h-36.114l-10.903,3.912
					c-1.12,0.402-2.191-0.699-1.762-1.806l4.124-10.651v-16.107c0-2.629,2.133-4.762,4.764-4.762h39.89
					C274.661,167.092,276.794,169.225,276.794,171.854z"/>
			</g>
		</g>
		<g>
			<path style="fill:#00BAD9;" d="M271.077,199.399h-30.578c-0.209,0-0.379-0.17-0.379-0.379c0-0.209,0.17-0.379,0.379-0.379h30.578
				c0.209,0,0.379,0.17,0.379,0.379C271.456,199.23,271.286,199.399,271.077,199.399z"/>
		</g>
		<g>
			<g>
				<path style="fill:#0092C4;" d="M245.42,182.365c0,1.903-1.542,3.445-3.445,3.445c-1.903,0-3.445-1.542-3.445-3.445
					c0-1.903,1.542-3.445,3.445-3.445C243.878,178.92,245.42,180.462,245.42,182.365z"/>
			</g>
			<g>
				<path style="fill:#0092C4;" d="M256.326,182.365c0,1.903-1.542,3.445-3.445,3.445c-1.903,0-3.445-1.542-3.445-3.445
					c0-1.903,1.542-3.445,3.445-3.445C254.783,178.92,256.326,180.462,256.326,182.365z"/>
			</g>
			<g>
				<path style="fill:#0092C4;" d="M267.231,182.365c0,1.903-1.543,3.445-3.445,3.445c-1.903,0-3.445-1.542-3.445-3.445
					c0-1.903,1.542-3.445,3.445-3.445C265.688,178.92,267.231,180.462,267.231,182.365z"/>
			</g>
		</g>
	</g>
	<g>
		<g>
			<g>
				<path style="fill:#3C3C6A;" d="M267.821,266.578l-7.508,35.067c-0.325,1.524-1.635,2.631-3.175,2.711
					c-0.062,0.003-0.126,0.005-0.188,0.005l-18.525-0.028c-2.184-0.003-3.809-2.019-3.353-4.155l7.508-35.067
					c0.34-1.586,1.743-2.718,3.366-2.716l3.077,0.005l15.446,0.023C266.653,262.425,268.28,264.44,267.821,266.578z"/>
			</g>
			<g>
				<path style="fill:#0D0A3E;" d="M267.821,266.578l-7.508,35.067c-0.325,1.524-1.635,2.631-3.175,2.711l-15.446-0.023
					c-2.185-0.003-3.812-2.019-3.353-4.155l7.508-35.067c0.325-1.524,1.635-2.631,3.175-2.711l15.446,0.023
					C266.653,262.425,268.28,264.44,267.821,266.578z"/>
			</g>
			<g>
				<path style="fill:#0D0A3E;" d="M262.607,297.696c-0.026,0-0.053-0.003-0.08-0.008c-0.205-0.044-0.335-0.245-0.291-0.45
					l5.839-27.272c0.044-0.205,0.245-0.334,0.45-0.291c0.205,0.044,0.335,0.245,0.291,0.45l-5.839,27.272
					C262.939,297.574,262.782,297.696,262.607,297.696z"/>
			</g>
			<g>
				<path style="fill:#3C3C6A;" d="M257.679,282.528c0,1.923-1.559,3.482-3.481,3.482s-3.482-1.559-3.482-3.482
					c0-1.923,1.559-3.482,3.482-3.482S257.679,280.605,257.679,282.528z"/>
			</g>
		</g>
		<g>
			<g>
				<g>
					<g>
						<path style="fill:#FF4767;" d="M261.326,249.057l-22.171-0.204c-1.331-0.012-2.4-1.101-2.387-2.432l0.141-15.311
							c0.012-1.331,1.101-2.4,2.432-2.387l22.171,0.204c1.331,0.012,2.399,1.101,2.387,2.432l-0.141,15.31
							C263.745,248,262.657,249.069,261.326,249.057z"/>
					</g>
				</g>
				<g>
					<g>
						<g>
							<g>
								<g>
									<g>
										<path style="fill:#FFFFFF;" d="M256.074,240.107c-0.14,0.195-0.286,0.376-0.431,0.545c-0.035,0.04-0.07,0.08-0.106,0.12
											c-0.956,1.06-2.446,2.05-3.989,3.086c-0.064,0.043-0.129,0.086-0.193,0.13c-0.34,0.228-0.681,0.459-1.019,0.694
											c-1.992-1.396-4.106-2.664-5.288-4.054c-0.649-0.762-1.32-1.779-1.299-3.122c0.016-1.006,0.266-1.852,1.015-2.583
											c0.68-0.663,1.515-0.738,2.296-0.736c0.027,0,0.055-0.001,0.082,0.001c0.1,0.007,0.196,0.015,0.291,0.026
											c0.744,0.084,1.356,0.317,2.225,1.199l0.697,0.834l0.701-0.831c0.432-0.482,0.906-0.822,1.451-1.018c0,0,0,0,0.001,0
											c0.328-0.118,0.683-0.183,1.07-0.195c0.028-0.001,0.055-0.001,0.082-0.001c0.781,0.002,1.62,0.104,2.292,0.747
											c0.756,0.723,0.992,1.581,1.003,2.588C256.969,238.581,256.563,239.426,256.074,240.107z"/>
									</g>
								</g>
							</g>
						</g>
					</g>
				</g>
			</g>
			<g>
				<g>
					<path style="fill:#FF4767;" d="M248.205,248.936l4.108,7.049c0.177,0.304,0.636,0.231,0.71-0.113l1.483-6.878L248.205,248.936z
						"/>
				</g>
			</g>
		</g>
	</g>
	<g>
		<g>
			<g>
				<path style="fill:#D8234F;" d="M375.27,385.525h-10.005v-18.15h10.005c3.004,0,5.448,2.444,5.448,5.448v7.254
					C380.718,383.081,378.274,385.525,375.27,385.525z M368.876,381.914h6.394c1.013,0,1.837-0.824,1.837-1.837v-7.254
					c0-1.013-0.824-1.837-1.837-1.837h-6.394V381.914z"/>
			</g>
		</g>
		<g>
			<g>
				<g>
					<path style="fill:#FF4767;" d="M372.465,359.951v30.544c0,0.24-0.044,0.472-0.124,0.686c-0.279,0.753-1.003,1.289-1.852,1.289
						h-23.645c-0.849,0-1.573-0.536-1.852-1.289c-0.08-0.214-0.124-0.446-0.124-0.686v-30.544c0-1.093,0.885-1.978,1.975-1.978
						h23.645C371.581,357.973,372.465,358.858,372.465,359.951z"/>
				</g>
			</g>
			<g>
				<g>
					<g>
						<path style="fill:#D8234F;" d="M346.778,362.2c0,1.055-0.856,1.909-1.909,1.909v-3.814
							C345.922,360.294,346.778,361.148,346.778,362.2z"/>
					</g>
					<g>
						<circle style="fill:#D8234F;" cx="351.769" cy="362.201" r="1.908"/>
					</g>
					<g>
						<circle style="fill:#D8234F;" cx="358.667" cy="362.201" r="1.907"/>
					</g>
					<g>
						<path style="fill:#D8234F;" d="M367.474,362.201c0,1.053-0.854,1.908-1.908,1.908c-1.053,0-1.908-0.854-1.908-1.908
							s0.854-1.908,1.908-1.908C366.62,360.293,367.474,361.147,367.474,362.201z"/>
					</g>
					<g>
						<path style="fill:#D8234F;" d="M372.465,360.294v3.814c-1.052,0-1.909-0.854-1.909-1.909
							C370.557,361.148,371.413,360.294,372.465,360.294z"/>
					</g>
				</g>
				<g>
					<g>
						<path style="fill:#D8234F;" d="M346.778,368.97c0,1.055-0.856,1.908-1.909,1.908v-3.814
							C345.922,367.064,346.778,367.918,346.778,368.97z"/>
					</g>
					<g>
						<circle style="fill:#D8234F;" cx="351.769" cy="368.971" r="1.908"/>
					</g>
					<g>
						<circle style="fill:#D8234F;" cx="358.667" cy="368.971" r="1.907"/>
					</g>
					<g>
						<path style="fill:#D8234F;" d="M367.474,368.971c0,1.053-0.854,1.908-1.908,1.908c-1.053,0-1.908-0.854-1.908-1.908
							s0.854-1.908,1.908-1.908C366.62,367.064,367.474,367.918,367.474,368.971z"/>
					</g>
					<g>
						<path style="fill:#D8234F;" d="M372.465,367.064v3.814c-1.052,0-1.909-0.854-1.909-1.908
							C370.557,367.918,371.413,367.064,372.465,367.064z"/>
					</g>
				</g>
				<g>
					<g>
						<path style="fill:#D8234F;" d="M346.778,375.74c0,1.055-0.856,1.908-1.909,1.908v-3.814
							C345.922,373.834,346.778,374.688,346.778,375.74z"/>
					</g>
					<g>
						<circle style="fill:#D8234F;" cx="351.769" cy="375.741" r="1.908"/>
					</g>
					<g>
						<circle style="fill:#D8234F;" cx="358.667" cy="375.741" r="1.907"/>
					</g>
					<g>
						<path style="fill:#D8234F;" d="M367.474,375.741c0,1.053-0.854,1.908-1.908,1.908c-1.053,0-1.908-0.854-1.908-1.908
							s0.854-1.908,1.908-1.908C366.62,373.833,367.474,374.688,367.474,375.741z"/>
					</g>
					<g>
						<path style="fill:#D8234F;" d="M372.465,373.834v3.814c-1.052,0-1.909-0.854-1.909-1.908
							C370.557,374.688,371.413,373.834,372.465,373.834z"/>
					</g>
				</g>
				<g>
					<g>
						<path style="fill:#D8234F;" d="M346.778,382.51c0,1.055-0.856,1.909-1.909,1.909v-3.814
							C345.922,380.604,346.778,381.458,346.778,382.51z"/>
					</g>
					<g>
						<path style="fill:#D8234F;" d="M353.676,382.511c0,1.053-0.854,1.908-1.908,1.908s-1.908-0.854-1.908-1.908
							c0-1.053,0.854-1.908,1.908-1.908S353.676,381.457,353.676,382.511z"/>
					</g>
					<g>
						<path style="fill:#D8234F;" d="M360.575,382.511c0,1.053-0.854,1.908-1.908,1.908c-1.053,0-1.907-0.854-1.907-1.908
							c0-1.053,0.854-1.908,1.907-1.908C359.721,380.603,360.575,381.457,360.575,382.511z"/>
					</g>
					<g>
						<path style="fill:#D8234F;" d="M367.474,382.511c0,1.053-0.854,1.908-1.908,1.908c-1.053,0-1.908-0.854-1.908-1.908
							c0-1.053,0.854-1.908,1.908-1.908C366.62,380.603,367.474,381.457,367.474,382.511z"/>
					</g>
					<g>
						<path style="fill:#D8234F;" d="M372.465,380.604v3.814c-1.052,0-1.909-0.854-1.909-1.909
							C370.557,381.458,371.413,380.604,372.465,380.604z"/>
					</g>
				</g>
				<g>
					<g>
						<path style="fill:#D8234F;" d="M346.778,389.28c0,1.013-0.789,1.841-1.785,1.901c-0.08-0.214-0.124-0.446-0.124-0.686v-3.121
							C345.922,387.374,346.778,388.228,346.778,389.28z"/>
					</g>
					<g>
						<circle style="fill:#D8234F;" cx="351.769" cy="389.281" r="1.908"/>
					</g>
					<g>
						<circle style="fill:#D8234F;" cx="358.667" cy="389.281" r="1.907"/>
					</g>
					<g>
						<path style="fill:#D8234F;" d="M367.474,389.281c0,1.053-0.854,1.907-1.908,1.907c-1.053,0-1.908-0.854-1.908-1.907
							c0-1.054,0.854-1.908,1.908-1.908C366.62,387.373,367.474,388.227,367.474,389.281z"/>
					</g>
					<g>
						<path style="fill:#D8234F;" d="M372.465,387.374v3.121c0,0.24-0.044,0.472-0.124,0.686c-0.995-0.059-1.785-0.887-1.785-1.901
							C370.557,388.228,371.413,387.374,372.465,387.374z"/>
					</g>
				</g>
			</g>
		</g>
	</g>
	<g>
		<g>
			<g>
				
					<ellipse transform="matrix(0.9408 -0.3389 0.3389 0.9408 -75.9475 152.2097)" style="fill:#FF4767;" cx="397.798" cy="293.54" rx="43.799" ry="43.799"/>
			</g>
			<g>
				<g>
					<path style="fill:#FF4767;" d="M350.559,294.467c-0.209,0-0.379-0.17-0.379-0.379c0-26.506,21.564-48.07,48.071-48.07
						c0.209,0,0.379,0.17,0.379,0.379c0,0.209-0.17,0.379-0.379,0.379c-26.088,0-47.312,21.224-47.312,47.312
						C350.938,294.297,350.768,294.467,350.559,294.467z"/>
				</g>
			</g>
			<g>
				
					<ellipse transform="matrix(0.5982 -0.8013 0.8013 0.5982 -75.3979 436.7003)" style="fill:#FFFFFF;" cx="397.798" cy="293.54" rx="34.618" ry="34.618"/>
			</g>
			<g>
				
					<ellipse transform="matrix(0.8535 -0.5212 0.5212 0.8535 -94.6877 250.3311)" style="fill:#FF4767;" cx="397.798" cy="293.54" rx="25.437" ry="25.437"/>
			</g>
			<g>
				<path style="fill:#FFFFFF;" d="M402.187,309.192c-8.63,2.42-17.621-2.633-20.041-11.263c-2.42-8.631,2.633-17.621,11.263-20.041
					c8.63-2.42,17.621,2.633,20.041,11.263C415.87,297.782,410.817,306.772,402.187,309.192z"/>
			</g>
			<g>
				<path style="fill:#FF4767;" d="M399.708,300.352c-3.756,1.053-7.669-1.146-8.722-4.902c-1.053-3.756,1.146-7.669,4.902-8.722
					s7.669,1.146,8.722,4.902C405.663,295.386,403.464,299.299,399.708,300.352z"/>
			</g>
		</g>
		<g>
			<path style="fill:#0D0A3E;" d="M446.815,266.564l-10.574-1.609l1.61-10.574c0.093-0.612-0.328-1.184-0.939-1.277
				c-0.612-0.093-1.184,0.327-1.277,0.939l-1.739,11.425l-4.06,2.988l1.402-9.209c0.093-0.612-0.328-1.184-0.939-1.277
				c-0.612-0.093-1.184,0.327-1.277,0.939l-1.739,11.426l-5.128,3.773l1.402-9.209c0.093-0.612-0.327-1.184-0.939-1.277
				c-0.612-0.093-1.184,0.327-1.277,0.94l-1.739,11.426l-21.622,15.909c-0.486,1.261-0.313,2.071,0,2.784l23.184-17.059
				l11.021,1.677c0.612,0.093,1.184-0.327,1.277-0.939c0.093-0.612-0.328-1.184-0.939-1.277l-8.805-1.34l5.128-3.773l11.021,1.677
				c0.612,0.093,1.184-0.327,1.277-0.94c0.093-0.612-0.328-1.184-0.939-1.277l-8.805-1.34l4.06-2.987l11.021,1.677
				c0.612,0.093,1.184-0.327,1.277-0.939C447.848,267.229,447.427,266.657,446.815,266.564z"/>
		</g>
	</g>
	<g>
		<g>
			<g>
				<path style="fill:#FFAE0B;" d="M373.003,228.599h-96.521c-1.686,0-3.053-1.367-3.053-3.053v-15.108
					c0-1.686,1.367-3.053,3.053-3.053h96.521c1.686,0,3.053,1.367,3.053,3.053v15.108
					C376.056,227.232,374.689,228.599,373.003,228.599z"/>
			</g>
			<g>
				<g>
					<path style="fill:#FFAE0B;" d="M277.838,228.599l1.791,8.304c0.103,0.477,0.738,0.578,0.984,0.156l4.931-8.46H277.838z"/>
				</g>
			</g>
			<g>
				<path style="fill:#F7891B;" d="M369.442,223.584h-9.11c-0.808,0-1.464-0.655-1.464-1.464v-9.109
					c0-0.809,0.655-1.464,1.464-1.464h9.11c0.808,0,1.464,0.655,1.464,1.464v9.109C370.905,222.928,370.25,223.584,369.442,223.584z
					"/>
			</g>
			<g>
				<g>
					<path style="fill:#F7891B;" d="M349.597,213.824h-69.28c-0.153,0-0.277-0.124-0.277-0.277v-1.723
						c0-0.153,0.124-0.277,0.277-0.277h69.28c0.153,0,0.277,0.124,0.277,0.277v1.723C349.874,213.7,349.75,213.824,349.597,213.824z
						"/>
				</g>
				<g>
					<path style="fill:#F7891B;" d="M349.597,218.704h-69.28c-0.153,0-0.277-0.124-0.277-0.277v-1.723
						c0-0.153,0.124-0.277,0.277-0.277h69.28c0.153,0,0.277,0.124,0.277,0.277v1.723C349.874,218.58,349.75,218.704,349.597,218.704
						z"/>
				</g>
				<g>
					<path style="fill:#F7891B;" d="M349.597,223.584h-69.28c-0.153,0-0.277-0.124-0.277-0.277v-1.723
						c0-0.153,0.124-0.277,0.277-0.277h69.28c0.153,0,0.277,0.124,0.277,0.277v1.723C349.874,223.46,349.75,223.584,349.597,223.584
						z"/>
				</g>
			</g>
		</g>
	</g>
	<g>
		<g>
			<g>
				<g>
					<path style="fill:#DAEBFF;" d="M135.68,109.251c0.128,0.013,0.26-0.004,0.387-0.057c1.34-0.566,2.126-0.829,2.134-0.832
						c0.411-0.137,0.632-0.581,0.496-0.992c-0.138-0.411-0.581-0.632-0.992-0.496c-0.034,0.011-0.844,0.283-2.247,0.875
						c-0.399,0.168-0.586,0.628-0.418,1.027C135.154,109.048,135.405,109.222,135.68,109.251z"/>
				</g>
			</g>
			<g>
				<path style="fill:#DAEBFF;" d="M95.718,151.309c-0.533,1.423-1.033,2.89-1.485,4.361c-0.112,0.364-0.466,0.588-0.831,0.55
					c-0.049-0.005-0.099-0.015-0.149-0.031c-0.414-0.127-0.646-0.566-0.519-0.98c0.461-1.501,0.971-2.999,1.515-4.451
					c0.152-0.405,0.602-0.611,1.009-0.459C95.664,150.452,95.869,150.904,95.718,151.309z"/>
			</g>
			<g>
				<path style="fill:#DAEBFF;" d="M93.011,160.113c-0.359,1.473-0.684,2.99-0.965,4.508c-0.075,0.405-0.449,0.68-0.853,0.637
					c-0.02-0.002-0.041-0.005-0.061-0.009c-0.426-0.079-0.707-0.488-0.628-0.914c0.287-1.547,0.618-3.092,0.984-4.594
					c0.103-0.421,0.528-0.678,0.948-0.576C92.856,159.268,93.113,159.692,93.011,160.113z"/>
			</g>
			<g>
				<path style="fill:#DAEBFF;" d="M89.703,183.793c-0.389-0.041-0.694-0.367-0.7-0.767c-0.024-1.573-0.013-3.152,0.034-4.692
					c0.013-0.433,0.375-0.773,0.808-0.76c0.439,0.015,0.773,0.375,0.76,0.807c-0.046,1.517-0.057,3.071-0.033,4.621
					c0.007,0.433-0.339,0.789-0.772,0.796C89.767,183.798,89.735,183.796,89.703,183.793z"/>
			</g>
			<g>
				<path style="fill:#DAEBFF;" d="M90.653,168.297c0.43,0.056,0.733,0.449,0.676,0.879c-0.092,0.709-0.176,1.425-0.25,2.129
					c-0.086,0.812-0.162,1.641-0.226,2.463c-0.034,0.432-0.411,0.754-0.843,0.721c-0.007-0.001-0.014-0.001-0.021-0.002
					c-0.421-0.044-0.732-0.417-0.699-0.841c0.065-0.836,0.143-1.679,0.23-2.505c0.075-0.716,0.161-1.445,0.255-2.167
					c0.055-0.423,0.437-0.723,0.859-0.679C90.641,168.296,90.647,168.297,90.653,168.297z"/>
			</g>
			<g>
				<path style="fill:#DAEBFF;" d="M97.467,147.049c-0.142,0.317-0.47,0.494-0.798,0.46c-0.08-0.008-0.16-0.029-0.238-0.064
					c-0.396-0.177-0.573-0.641-0.396-1.036c0.639-1.428,1.331-2.852,2.056-4.231c0.202-0.383,0.675-0.531,1.059-0.329
					c0.383,0.202,0.53,0.676,0.329,1.059C98.769,144.257,98.092,145.651,97.467,147.049z"/>
			</g>
			<g>
				<path style="fill:#DAEBFF;" d="M131.901,111.142c-1.347,0.688-2.705,1.437-4.039,2.227c-0.151,0.09-0.319,0.122-0.481,0.105
					c-0.238-0.025-0.462-0.158-0.593-0.381c-0.221-0.373-0.097-0.854,0.275-1.074c1.361-0.806,2.749-1.571,4.125-2.274
					c0.385-0.197,0.858-0.044,1.055,0.342C132.439,110.473,132.287,110.945,131.901,111.142z"/>
			</g>
			<g>
				<path style="fill:#DAEBFF;" d="M120.216,118.526c-0.166,0.127-0.366,0.177-0.558,0.157c-0.207-0.022-0.405-0.125-0.541-0.304
					c-0.263-0.344-0.197-0.836,0.147-1.099c1.242-0.948,2.527-1.871,3.822-2.744c0.359-0.242,0.846-0.148,1.089,0.211
					c0.242,0.359,0.147,0.846-0.212,1.089C122.694,116.691,121.433,117.596,120.216,118.526z"/>
			</g>
			<g>
				<path style="fill:#DAEBFF;" d="M107.04,131.364c-0.173,0.217-0.438,0.317-0.695,0.29c-0.144-0.015-0.286-0.07-0.407-0.168
					c-0.338-0.27-0.393-0.764-0.122-1.102c0.974-1.217,2.002-2.421,3.054-3.579c0.291-0.32,0.787-0.345,1.108-0.053
					c0.32,0.291,0.344,0.787,0.053,1.108C109,128.993,107.994,130.173,107.04,131.364z"/>
			</g>
			<g>
				<path style="fill:#DAEBFF;" d="M113.234,124.546c-0.174,0.169-0.406,0.241-0.63,0.218c-0.176-0.018-0.346-0.096-0.479-0.233
					c-0.302-0.31-0.295-0.807,0.015-1.109c1.115-1.085,2.282-2.154,3.47-3.178c0.328-0.283,0.824-0.246,1.105,0.082
					c0.283,0.328,0.246,0.823-0.082,1.106C115.47,122.435,114.326,123.482,113.234,124.546z"/>
			</g>
			<g>
				<path style="fill:#DAEBFF;" d="M101.751,138.901c-0.163,0.267-0.46,0.402-0.752,0.371c-0.112-0.012-0.223-0.048-0.326-0.111
					c-0.37-0.226-0.486-0.708-0.26-1.078c0.814-1.333,1.681-2.657,2.578-3.936c0.249-0.355,0.737-0.441,1.092-0.192
					c0.355,0.249,0.44,0.738,0.192,1.092C103.397,136.301,102.548,137.597,101.751,138.901z"/>
			</g>
		</g>
		<g>
			<g>
				<g>
					<polygon style="fill:#00BAD9;" points="135.695,103.886 132.263,91.176 174.31,91.538 					"/>
				</g>
				<g>
					<polygon style="fill:#0092C4;" points="174.311,91.536 137.736,106.954 137.639,106.996 136.066,109.602 135.695,103.886 					
						"/>
				</g>
				<g>
					<polygon style="fill:#0092C4;" points="136.066,109.602 139.475,109.065 137.639,106.996 					"/>
				</g>
				<g>
					<polygon style="fill:#00BAD9;" points="142.241,105.056 137.638,106.996 147.117,117.676 174.31,91.538 					"/>
				</g>
			</g>
		</g>
	</g>
	<g>
		<g>
			<g>
				
					<ellipse transform="matrix(0.1449 -0.9895 0.9895 0.1449 7.8109 507.4045)" style="fill:#FFAE0B;" cx="297.458" cy="249.183" rx="10.426" ry="10.426"/>
			</g>
			<g>
				<g>
					<g>
						<g>
							<g>
								<path style="fill:#0D0A3E;" d="M295.18,247.353c0,1.01-0.446,1.83-0.997,1.83c-0.551,0-0.998-0.819-0.998-1.829
									c-0.001-1.01,0.446-1.83,0.996-1.83C294.732,245.524,295.179,246.343,295.18,247.353z"/>
							</g>
						</g>
					</g>
				</g>
			</g>
			<g>
				<g>
					<g>
						<g>
							<g>
								<path style="fill:#0D0A3E;" d="M302.099,247.353c0,1.01-0.446,1.83-0.997,1.83c-0.551,0-0.998-0.819-0.998-1.829
									c-0.001-1.01,0.446-1.83,0.997-1.83C301.651,245.524,302.099,246.343,302.099,247.353z"/>
							</g>
						</g>
					</g>
				</g>
			</g>
			<g>
				<path style="fill:#0D0A3E;" d="M297.458,255.4c-4.764,0-5.849-4.36-5.86-4.404c-0.048-0.204,0.078-0.408,0.282-0.456
					c0.204-0.047,0.408,0.078,0.456,0.281l0,0c0.038,0.156,0.967,3.821,5.122,3.821c4.154,0,5.084-3.665,5.122-3.821
					c0.049-0.203,0.253-0.328,0.456-0.281c0.203,0.049,0.329,0.252,0.281,0.456C303.307,251.04,302.222,255.4,297.458,255.4z"/>
			</g>
			<g>
				<path style="fill:#0D0A3E;" d="M290.869,251.555c-0.111,0-0.213-0.008-0.302-0.023c-0.207-0.033-0.348-0.227-0.315-0.434
					c0.033-0.206,0.225-0.346,0.432-0.315c0.123,0.017,1.188,0.138,1.447-1.027c0.045-0.204,0.247-0.334,0.452-0.288
					c0.204,0.045,0.333,0.248,0.288,0.452C292.582,251.224,291.561,251.555,290.869,251.555z"/>
			</g>
			<g>
				<path style="fill:#0D0A3E;" d="M303.913,251.555c-0.693,0-1.713-0.331-2.002-1.635c-0.045-0.204,0.083-0.407,0.288-0.452
					c0.205-0.046,0.407,0.083,0.452,0.288c0.267,1.2,1.396,1.035,1.445,1.027c0.205-0.034,0.401,0.108,0.434,0.315
					c0.033,0.207-0.108,0.401-0.315,0.434C304.125,251.546,304.023,251.555,303.913,251.555z"/>
			</g>
		</g>
		<g>
			<g>
				
					<ellipse transform="matrix(0.1597 -0.9872 0.9872 0.1597 32.1329 536.1143)" style="fill:#FFAE0B;" cx="330.962" cy="249.183" rx="10.426" ry="10.426"/>
			</g>
			<g>
				<g>
					<g>
						<g>
							<g>
								<path style="fill:#0D0A3E;" d="M328.684,247.353c0,1.01-0.446,1.83-0.997,1.83c-0.551,0-0.998-0.819-0.998-1.829
									c0-1.01,0.446-1.83,0.997-1.83C328.236,245.524,328.683,246.343,328.684,247.353z"/>
							</g>
						</g>
					</g>
				</g>
			</g>
			<g>
				<g>
					<g>
						<g>
							<g>
								<path style="fill:#0D0A3E;" d="M335.603,247.353c0,1.01-0.446,1.83-0.997,1.83c-0.551,0-0.998-0.819-0.999-1.829
									c0-1.01,0.446-1.83,0.997-1.83C335.155,245.524,335.602,246.343,335.603,247.353z"/>
							</g>
						</g>
					</g>
				</g>
			</g>
			<g>
				<g>
					<path style="fill:#0D0A3E;" d="M336.661,255.4c-0.172,0-0.327-0.118-0.369-0.292c-0.037-0.155-0.967-3.82-5.121-3.82
						c-4.154,0-5.084,3.665-5.122,3.821c-0.049,0.203-0.253,0.328-0.456,0.281c-0.203-0.049-0.329-0.252-0.281-0.456
						c0.01-0.044,1.096-4.404,5.859-4.404c4.764,0,5.849,4.36,5.859,4.404c0.048,0.204-0.078,0.408-0.282,0.456
						C336.719,255.397,336.69,255.4,336.661,255.4z"/>
				</g>
			</g>
		</g>
	</g>
	<g>
		<g>
			<g>
				
					<rect x="293.377" y="259.897" transform="matrix(0.0014 -1 1 0.0014 24.8317 597.7008)" style="fill:#FFAE0B;" width="36.638" height="53.04"/>
			</g>
			<g>
				<polygon style="fill:#F7891B;" points="338.241,268.137 338.238,270.486 311.686,293.952 285.199,270.41 285.203,268.061 
					311.687,291.684 				"/>
			</g>
			<g>
				<g>
					<polygon style="fill:#F7891B;" points="306.586,287.051 286.686,304.7 285.15,304.698 285.151,303.764 305.445,285.766 					
						"/>
				</g>
			</g>
			<g>
				<g>
					<polygon style="fill:#F7891B;" points="338.191,303.964 338.19,304.774 336.515,304.772 316.666,287.066 317.81,285.784 					
						"/>
				</g>
			</g>
			<g>
				<polygon style="fill:#FBCA50;" points="285.201,268.059 311.687,291.684 338.241,268.136 				"/>
			</g>
		</g>
		<g>
			<path style="fill:#FFAE0B;" d="M339.941,305.079c-0.209,0-0.379-0.17-0.379-0.379v-33.211c0-0.209,0.17-0.379,0.379-0.379
				s0.379,0.17,0.379,0.379V304.7C340.32,304.909,340.151,305.079,339.941,305.079z"/>
		</g>
		<g>
			<path style="fill:#FFAE0B;" d="M338.191,307.165h-25.867c-0.209,0-0.379-0.17-0.379-0.379c0-0.209,0.17-0.379,0.379-0.379h25.867
				c0.209,0,0.379,0.17,0.379,0.379C338.57,306.995,338.4,307.165,338.191,307.165z"/>
		</g>
	</g>
	<g>
		<g>
			<rect x="296.826" y="167.778" style="fill:#9A5BFD;" width="13.364" height="32.297"/>
		</g>
		<g>
			<path style="fill:#832DDB;" d="M296.826,180.087c2.958-1.797,7.225-3.361,13.364-3.95v23.938h-13.364V180.087z"/>
		</g>
		<g>
			<rect x="316.538" y="144.841" style="fill:#9A5BFD;" width="13.367" height="55.234"/>
		</g>
		<g>
			<path style="fill:#832DDB;" d="M316.538,175.894c3.864,0.05,8.294,0.435,13.367,1.255v22.925h-13.367V175.894z"/>
		</g>
		<g>
			<rect x="338.37" y="127.918" style="fill:#9A5BFD;" width="13.364" height="72.157"/>
		</g>
		<g>
			<path style="fill:#832DDB;" d="M338.37,178.79c4.921,1.001,9.36,1.632,13.364,1.963v19.321H338.37V178.79z"/>
		</g>
		<g>
			<rect x="359.752" y="108.055" style="fill:#9A5BFD;" width="13.366" height="92.02"/>
		</g>
		<g>
			<path style="fill:#832DDB;" d="M373.119,179.187v20.888h-13.367v-19.04C365.183,180.94,369.577,180.223,373.119,179.187z"/>
		</g>
		<g>
			<polygon style="fill:#FFAE0B;" points="348.482,93.905 357.749,97.306 356.681,86.46 			"/>
		</g>
		<g>
			<g>
				<path style="fill:#FFAE0B;" d="M293.149,152.098c-0.407,0-0.788-0.249-0.939-0.652c-0.193-0.519,0.071-1.096,0.589-1.29
					c0.404-0.151,40.625-15.563,60.245-56.986c0.236-0.501,0.833-0.714,1.335-0.477c0.5,0.237,0.713,0.835,0.476,1.335
					c-19.979,42.18-60.945,57.853-61.355,58.007C293.384,152.077,293.266,152.098,293.149,152.098z"/>
			</g>
		</g>
	</g>
	<g>
		<g>
			<g>
				<g>
					<path style="fill:#FFAE0B;" d="M149.34,160.17h-17.514c-1.127,0-2.041-0.914-2.041-2.041v-17.514
						c0-1.127,0.914-2.041,2.041-2.041h17.514c1.127,0,2.041,0.914,2.041,2.041v17.514
						C151.381,159.256,150.467,160.17,149.34,160.17z"/>
				</g>
			</g>
			<g>
				<g>
					<path style="fill:#FFFFFF;" d="M146.692,144.926c-0.036-0.149-0.07-0.298-0.107-0.447c-0.131-0.525-0.38-0.987-0.734-1.396
						c-0.253-0.293-0.546-0.542-0.878-0.732c-0.457-0.263-0.974-0.151-1.311,0.256c-0.602,0.726-1.201,1.455-1.796,2.188
						c-0.365,0.45-0.305,1.066,0.147,1.466c0.324,0.287,0.666,0.554,1,0.828c0.043,0.035,0.093,0.062,0.13,0.086
						c-0.798,2.147-2.152,3.805-4.096,5c-0.235-0.196-0.482-0.402-0.729-0.607c-0.127-0.105-0.252-0.211-0.383-0.311
						c-0.391-0.299-0.843-0.329-1.249-0.064c-0.128,0.084-0.234,0.208-0.333,0.328c-0.544,0.657-1.08,1.32-1.625,1.976
						c-0.173,0.208-0.282,0.438-0.321,0.704c0.01,0.098,0.019,0.195,0.029,0.292c0.095,0.165,0.16,0.359,0.29,0.488
						c0.319,0.317,0.669,0.601,1.087,0.789c0.489,0.22,1,0.355,1.535,0.308c0.353-0.031,0.706-0.105,1.048-0.201
						c0.88-0.245,1.68-0.665,2.434-1.174c0.747-0.504,1.427-1.09,2.051-1.737c0.843-0.875,1.591-1.828,2.27-2.835
						c0.535-0.794,0.997-1.625,1.297-2.54c0.151-0.46,0.252-0.93,0.284-1.414c0.013-0.195,0.017-0.39,0.026-0.585
						C146.736,145.372,146.714,145.149,146.692,144.926z"/>
				</g>
			</g>
		</g>
		<g>
			<g>
				<g>
					<path style="fill:#00BAD9;" d="M181.144,160.111h-18.278c-1.006,0-1.822-0.816-1.822-1.822v-18.278
						c0-1.006,0.816-1.822,1.822-1.822h18.278c1.006,0,1.822,0.816,1.822,1.822v18.278
						C182.966,159.295,182.15,160.111,181.144,160.111z"/>
				</g>
			</g>
			<g>
				<g>
					<path style="fill:#FFFFFF;" d="M179.01,148.735c0,2.734-1.531,4.151-3.363,4.151c-1.073,0-1.86-0.416-2.261-1.246
						c-0.401,0.788-1.087,1.246-2.176,1.246c-1.545,0-3.033-1.36-3.033-3.563c0-2.205,1.445-3.549,3.033-3.549
						c0.759,0,1.346,0.244,1.761,0.702v-0.573h2.748v4.094c0,0.601,0.243,0.787,0.558,0.787c0.401,0,0.73-0.401,0.73-2.003
						c0-2.59-1.932-4.422-4.88-4.422c-2.933,0-4.908,2.06-4.908,4.78c0,2.805,1.932,4.808,4.851,4.808
						c0.945,0,1.918-0.185,2.891-0.629l0.601,1.761c-0.859,0.415-2.219,0.686-3.492,0.686c-4.308,0-7.07-2.876-7.07-6.626
						c0-3.693,2.762-6.598,7.127-6.598C176.248,142.538,179.01,145.3,179.01,148.735z M173.028,149.322
						c0-0.859-0.444-1.303-1.03-1.303c-0.587,0-1.016,0.444-1.016,1.303c0,0.873,0.429,1.316,1.016,1.316
						C172.584,150.638,173.028,150.195,173.028,149.322z"/>
				</g>
			</g>
		</g>
		<g>
			<g>
				<g>
					<g>
						<path style="fill:#FF4767;" d="M210.692,160.111h-18.278c-1.006,0-1.822-0.816-1.822-1.822v-18.278
							c0-1.006,0.816-1.822,1.822-1.822h18.278c1.006,0,1.822,0.816,1.822,1.822v18.278
							C212.514,159.295,211.698,160.111,210.692,160.111z"/>
					</g>
				</g>
			</g>
			<g>
				<g>
					<path style="fill:#FFFFFF;" d="M202.696,154.203l-0.013,1.561l-1.982-0.016l0.012-1.49c-1.405-0.096-2.766-0.487-3.605-1.014
						l1.088-2.41c0.923,0.556,2.158,0.917,3.24,0.926c0.942,0.008,1.281-0.186,1.284-0.524c0.01-1.237-5.439-0.283-5.409-3.953
						c0.013-1.589,1.177-2.915,3.485-3.22l0.013-1.533l1.982,0.016l-0.012,1.504c1.04,0.107,2.05,0.382,2.847,0.839l-1.018,2.396
						c-0.966-0.5-1.878-0.746-2.736-0.753c-0.97-0.008-1.282,0.271-1.285,0.608c-0.01,1.181,5.439,0.241,5.41,3.868
						C205.985,152.528,204.878,153.841,202.696,154.203z"/>
				</g>
			</g>
		</g>
	</g>
</g>
</svg>
