<?xml version="1.0" encoding="utf-8"?>
<!-- Generator: Adobe Illustrator 27.5.0, SVG Export Plug-In . SVG Version: 6.00 Build 0)  -->
<svg version="1.1" xmlns="http://www.w3.org/2000/svg" xmlns:xlink="http://www.w3.org/1999/xlink" x="0px" y="0px"
	 viewBox="0 0 750 500" style="enable-background:new 0 0 750 500;" xml:space="preserve">
<g id="Background">
	<g>
		<rect style="fill:#F6F6F6;" width="750" height="500"/>
	</g>
</g>
<g id="Design">
	<g>
		<g>
			<path style="fill:#E7E7E7;" d="M298.522,130.967c88.135-20.669,173.085-58.352,264.233-58.734
				c2.585-0.011,5.299,0.037,7.551,1.165c5.396,2.7,5.186,9.684,3.309,14.93c-7.656,21.397-29.533,35.851-50.15,48.821
				c-31.782,19.994-63.563,39.988-95.345,59.982c-4.801,3.02-10.212,7.379-8.801,12.455c0.702,2.526,3.007,4.44,5.402,5.936
				c17.362,10.844,40.997,6.437,61.505,1.594c61.368-14.492,122.737-28.985,184.105-43.477c9.834-2.322,20.069-4.662,30.07-2.993
				c10,1.669,19.671,8.598,20.176,17.633c0.282,5.05-2.25,9.871-5.071,14.262c-16.984,26.431-45.56,44.989-71.62,64.734
				c-21.942,16.626-42.594,34.598-61.759,53.746c-4.287,4.284-8.794,9.556-7.434,15.161c1.033,4.255,5.216,7.301,9.44,9.503
				c23.497,12.254,53.386,8.45,79.164,0.617c12.305-3.739,30.125-6.201,34.544,4.672c4.397,10.817-11.033,19.131-23.403,22.499
				c-60.241,16.399-120.481,32.798-180.722,49.197c-37.169,10.118-74.601,20.286-113.233,24.116
				c-10.134,1.005-20.666,1.531-30.268-1.519c-9.602-3.049-18.092-10.502-18.709-19.551c-0.487-7.145,3.859-13.86,8.99-19.377
				c20.454-21.991,55.725-33.496,66.886-60.251c-58.553-15.707-121.025,1.686-179.681,17.086
				c-58.656,15.4-123.803,28.515-179.162,5.401c-5.633-2.352-11.27-5.203-14.881-9.708c-7.856-9.803-3.527-23.454,2.433-34.261
				c12.18-22.086,30.135-41.635,52.041-56.66c10.814-7.417,22.676-13.831,31.792-22.874c9.116-9.042,25.121-35.016,11.592-33.355
				c-65.888,8.091-44.824-28.092-40.478-31.533c4.433-3.509,11.406-5.256,16.846-7.031c38.603-12.595,78.537-20.533,118.738-27.871
				C250.681,140.89,274.766,136.538,298.522,130.967z"/>
		</g>
		<g>
			<g>
				<g>
					<ellipse style="fill:#B7AFAF;" cx="233.713" cy="425.035" rx="123.408" ry="28.843"/>
				</g>
			</g>
			<g>
				<g>
					<ellipse style="fill:#B7AFAF;" cx="521.425" cy="425.035" rx="129.358" ry="28.843"/>
				</g>
			</g>
			<g>
				<g>
					
						<rect x="442.304" y="302.311" transform="matrix(-1 -1.224647e-16 1.224647e-16 -1 969.1425 689.1557)" style="fill:#D7CECE;" width="84.534" height="84.534"/>
				</g>
			</g>
			<g>
				<g>
					
						<rect x="560.117" y="295.001" transform="matrix(-1 -1.224647e-16 1.224647e-16 -1 1199.6569 669.425)" style="fill:#D7CECE;" width="79.422" height="79.422"/>
				</g>
			</g>
			<g>
				<g>
					
						<rect x="484.571" y="364.682" transform="matrix(-1 -1.224647e-16 1.224647e-16 -1 1124.1107 741.1928)" style="fill:#AFA8A8;" width="154.968" height="11.828"/>
				</g>
			</g>
			<g>
				<g>
					
						<rect x="486.402" y="374.424" transform="matrix(-1 -1.224647e-16 1.224647e-16 -1 1125.9413 789.7132)" style="fill:#C8C0C0;" width="153.138" height="40.866"/>
				</g>
			</g>
			<g>
				<g>
					<g>
						<path style="fill:#D6EFF4;" d="M629.497,385.619c0,1.823,1.478,3.3,3.3,3.3c1.823,0,3.3-1.478,3.3-3.3
							c0-1.823-1.478-3.3-3.3-3.3C630.975,382.319,629.497,383.796,629.497,385.619z"/>
					</g>
				</g>
				<g>
					<g>
						<path style="fill:#D6EFF4;" d="M618.936,385.619c0,1.823,1.478,3.3,3.3,3.3s3.3-1.478,3.3-3.3c0-1.823-1.478-3.3-3.3-3.3
							S618.936,383.796,618.936,385.619z"/>
					</g>
				</g>
				<g>
					<g>
						<path style="fill:#D6EFF4;" d="M608.375,385.619c0,1.823,1.478,3.3,3.3,3.3c1.823,0,3.3-1.478,3.3-3.3
							c0-1.823-1.478-3.3-3.3-3.3C609.853,382.319,608.375,383.796,608.375,385.619z"/>
					</g>
				</g>
			</g>
			<g>
				<g>
					
						<rect x="618.867" y="295.001" transform="matrix(-1 -1.224647e-16 1.224647e-16 -1 1252.042 613.0924)" style="fill:#EFE4E4;" width="14.308" height="23.09"/>
				</g>
			</g>
			<g>
				<g>
					<rect x="271.672" y="385.619" style="fill:#CEEEF5;" width="214.729" height="29.671"/>
				</g>
			</g>
			<g>
				<g>
					<rect x="231.236" y="302.311" style="fill:#D7CECE;" width="84.534" height="84.534"/>
				</g>
			</g>
			<g>
				<g>
					<rect x="118.535" y="295.001" style="fill:#D7CECE;" width="79.422" height="79.422"/>
				</g>
			</g>
			<g>
				<g>
					<rect x="118.535" y="364.682" style="fill:#AFA8A8;" width="154.968" height="11.828"/>
				</g>
			</g>
			<g>
				<g>
					<rect x="118.535" y="374.424" style="fill:#C8C0C0;" width="153.138" height="40.866"/>
				</g>
			</g>
			<g>
				<g>
					<path style="fill:#FFFFFF;" d="M484.382,382.22H273.691V131.337c0-13.472,10.921-24.393,24.393-24.393H459.99
						c13.472,0,24.393,10.921,24.393,24.393V382.22z"/>
				</g>
			</g>
			<g style="opacity:0.73;">
				<g>
					<g>
						<path style="fill:#DDE8F9;" d="M473.853,166.341L273.691,280.59v48.243L484.29,208.627
							C483.772,193.508,480.092,179.193,473.853,166.341z"/>
					</g>
				</g>
				<g>
					<g>
						<polygon style="fill:#DDE8F9;" points="484.382,236.856 484.382,218.02 273.691,338.279 273.691,357.115 						"/>
					</g>
				</g>
			</g>
			<g>
				<g>
					<path style="fill:#7DB4F9;" d="M485.051,382.886H273.025V212.288c0-58.457,47.554-106.011,106.011-106.011
						c58.457,0,106.015,47.554,106.015,106.011V382.886z M274.361,381.551h209.355V212.288c0-57.718-46.961-104.675-104.679-104.675
						s-104.675,46.957-104.675,104.675V381.551z"/>
				</g>
			</g>
			<g>
				<g>
					<g>
						<polygon style="fill:#E5E5E5;" points="197.811,142.566 200.451,142.062 199.121,147.605 						"/>
					</g>
				</g>
				<g>
					<g>
						<path style="fill:#5E6163;" d="M236.835,201.685l5.511,71.318c0,0-8.065,6.716-14.107,2.474
							c-6.042-4.242-10.033-126.607-10.033-126.607S234.555,181.706,236.835,201.685z"/>
					</g>
				</g>
				<g>
					<g>
						<g>
							<g>
								<g>
									<g>
										<path style="fill:#193343;" d="M237.521,417.72c0,0,13.146,10.367,19.245,11.408c1.062,0.181,1.907,1.162,1.897,2.393
											c-0.009,1.222-0.718,2.596-3.515,3.202c-4.119,0.893-22.029-0.863-31.19-1.852c-3.121-0.337-5.34-2.778-5.208-5.729
											c0.071-1.588,0.151-3.412,0.23-5.272c0.11-2.592-0.772-11.327-0.772-11.327l15.359,0.252L237.521,417.72z"/>
									</g>
								</g>
							</g>
						</g>
					</g>
				</g>
				<g>
					<g>
						<g>
							<g>
								<g>
									<g>
										<path style="fill:#193343;" d="M177.56,424.583c0,0,13.146,10.367,19.244,11.408c1.062,0.181,1.907,1.162,1.898,2.393
											c-0.01,1.222-0.718,2.596-3.516,3.202c-4.119,0.893-22.029-0.863-31.19-1.852c-3.121-0.337-5.34-2.778-5.208-5.729
											c0.071-1.588,0.151-3.412,0.23-5.272c0.109-2.592-0.772-11.327-0.772-11.327l15.359,0.251L177.56,424.583z"/>
									</g>
								</g>
							</g>
						</g>
					</g>
				</g>
				<g>
					<g>
						<path style="fill:#414259;" d="M197.332,279.159c3.472,11.575-0.516,44.602,0.42,55.222
							c0.937,10.62,0.341,45.518,17.59,77.223l20.741-1.06l-10.545-192.128l-10.305,4.632l-15.737-1.95
							C199.497,221.096,192.552,263.225,197.332,279.159z"/>
					</g>
				</g>
				<g>
					<g>
						<path style="fill:#414259;" d="M163.596,282.284c-0.025,12.089-1.686,40.926-3.86,51.36
							c-2.174,10.434-6.63,57.878-2.624,87.062l20.218-2.591L220.046,235l-33.094-2.298l-14.494-6.466
							C172.458,226.236,163.63,265.643,163.596,282.284z"/>
					</g>
				</g>
				<g>
					<g>
						<g>
							<g>
								<g>
									<g>
										<g>
											<path style="fill:#F99C80;" d="M306.13,170.546c0,0,2.796,9.431,1.166,10.249c-6.918,3.475-12.73,2.422-12.73,2.422
												s-1.999-7.429-1.965-7.936c0.034-0.507,1.923-3.79,4.083-4.795C298.845,169.481,306.13,170.546,306.13,170.546z"/>
										</g>
									</g>
								</g>
							</g>
							<g>
								<g>
									<g>
										<g>
											<path style="fill:#F99C80;" d="M293.978,172.872c0,0,5.062-7.478,5.873-6.964c0.811,0.514-0.304,4.152-0.304,4.152
												L293.978,172.872z"/>
										</g>
									</g>
								</g>
							</g>
							<g>
								<g>
									<g>
										<g>
											<path style="fill:#F99C80;" d="M299.548,170.059c0,0,13.68-1.781,14.531-0.468c0.898,1.387-9.178,3.995-10.158,3.34
												C302.942,172.275,299.548,170.059,299.548,170.059z"/>
										</g>
									</g>
								</g>
							</g>
							<g>
								<g>
									<g>
										<g>
											<path style="fill:#F99C80;" d="M305.193,172.777c0,0,10.645-1.525,11.022-0.469c0.743,2.082-9.851,3.815-10.83,3.16
												C304.405,174.811,305.193,172.777,305.193,172.777z"/>
										</g>
									</g>
								</g>
							</g>
							<g>
								<g>
									<g>
										<g>
											<path style="fill:#F99C80;" d="M303.977,175.115c0,0,11.038-0.478,11.727,0.839c1.024,1.959-11.147,2.658-12,1.844
												C302.852,176.985,303.977,175.115,303.977,175.115z"/>
										</g>
									</g>
								</g>
							</g>
							<g>
								<g>
									<g>
										<g>
											<path style="fill:#F99C80;" d="M302.265,178.003c0,0,11.799,0.284,11.727,0.839c-0.284,2.192-11.147,2.658-12,1.844
												C301.14,179.872,302.265,178.003,302.265,178.003z"/>
										</g>
									</g>
								</g>
							</g>
							<g>
								<g>
									<g>
										<path style="fill:#DC8A71;" d="M298.945,180.193c-0.055-0.104-0.027-0.234,0.069-0.304
											c1.329-0.998,2.098-2.231,2.286-3.666c0.392-3.027-1.915-5.987-1.94-6.013c-0.085-0.094-0.066-0.256,0.039-0.339
											c0.104-0.083,0.255-0.064,0.338,0.039c0.103,0.134,2.457,3.149,2.04,6.375c-0.205,1.569-1.037,2.911-2.475,3.989
											c-0.105,0.081-0.256,0.059-0.337-0.048C298.957,180.214,298.95,180.204,298.945,180.193z"/>
									</g>
								</g>
							</g>
						</g>
						<g>
							<g>
								<g>
									<polygon style="fill:#DE9B72;" points="308.317,172.644 308.151,172.028 303.986,173.168 304.153,173.784 									"/>
								</g>
							</g>
						</g>
						<g>
							<g>
								<g>
									<polygon style="fill:#DE9B72;" points="310.065,175.52 309.973,174.888 305.478,175.537 305.57,176.169 									"/>
								</g>
							</g>
						</g>
						<g>
							<g>
								<g>
									<polygon style="fill:#F99C80;" points="307.747,178.515 307.773,177.878 306.237,177.812 306.21,178.45 									"/>
								</g>
							</g>
						</g>
						<g>
							<g>
								<g>
									<g>
										<polygon style="fill:#F99C80;" points="291.986,184.255 294.566,183.217 292.6,175.136 289.217,175.888 										"/>
									</g>
								</g>
							</g>
						</g>
					</g>
					<g>
						<g>
							<polygon style="fill:#F99C80;" points="266.85,179.818 289.217,175.888 291.986,184.255 270.132,192.675 							"/>
						</g>
					</g>
				</g>
				<g>
					<g>
						<path style="fill:#FFFFFF;" d="M281.781,176.942l-29.793,2.8c-7.923-9.682-15.588-33.947-35.227-31.863l0.021,1.461
							c0,0,14.766,53.873,30.956,53.884c8.407,0.005,27.39-9.278,39.738-14.434L281.781,176.942z"/>
					</g>
				</g>
				<g>
					<g>
						
							<path style="fill:none;stroke:#000000;stroke-width:0.6704;stroke-linecap:round;stroke-linejoin:round;stroke-miterlimit:10;" d="
							M237.512,169.806"/>
					</g>
				</g>
				<g>
					<g>
						<path d="M248.993,188.515c-0.004,0-0.004,0-0.008,0c-0.185-0.004-0.33-0.157-0.326-0.342c0.086-4.096,2.93-8.436,3.052-8.617
							c0.098-0.153,0.314-0.204,0.464-0.094c0.153,0.102,0.196,0.31,0.094,0.463c-0.027,0.043-2.855,4.363-2.942,8.263
							C249.323,188.369,249.173,188.515,248.993,188.515z"/>
					</g>
				</g>
				<g>
					<g>
						<path d="M172.839,191.833c-0.063,0-0.122-0.016-0.177-0.051c-0.157-0.098-0.204-0.302-0.106-0.46l5.204-8.311
							c0.098-0.157,0.306-0.204,0.459-0.106c0.157,0.098,0.204,0.302,0.106,0.46l-5.204,8.311
							C173.059,191.778,172.949,191.833,172.839,191.833z"/>
					</g>
				</g>
				<g>
					<g>
						<path style="fill:#6989AE;" d="M200.171,147.624c9.205,0.206,24.457-6.1,27.43,27.823c1.085,12.377,4.21,44.507,5.769,55.039
							c0.328,2.217,1.397,13.146-0.161,14.481c-7.614,6.523-30.233,8.659-61.944-7.575c0,0,0.748-1.553,0.515-10.961
							c-0.158-6.406,0.476-55.194-0.012-63.131c-0.064-1.033,0.067-2.032,0.391-2.987
							C174.457,153.555,176.559,147.096,200.171,147.624z"/>
					</g>
				</g>
				<g>
					<g>
						<polygon style="fill:#597594;" points="216.623,161.041 213.96,158.755 210.074,155.418 220.632,195.977 						"/>
					</g>
				</g>
				<g>
					<g>
						<path style="fill:none;" d="M202.886,135.327c0.062,0.014,0.093-0.011,0.093-0.074"/>
					</g>
				</g>
				<g>
					<g>
						<g>
							<g>
								<path style="fill:#FFFFFF;" d="M210.492,134.917l-1.899-0.463c0,0-0.532,1.999,1.313,2.448
									c1.845,0.45,2.485-1.523,2.485-1.523L210.492,134.917z"/>
							</g>
						</g>
						<g>
							<g>
								<path d="M210.904,133.518c-0.012,0-0.028,0-0.039-0.004c-0.086-0.024-0.137-0.11-0.118-0.196
									c0.083-0.322,0.283-0.432,0.397-0.471c0.149-0.043,0.306-0.024,0.416,0.059c0.373,0.314,1.186,0.318,1.504,0.09
									c0.11-0.079,0.102-0.141,0.079-0.204c-0.585-1.504-1.901-3.417-1.913-3.437c-0.051-0.071-0.031-0.173,0.043-0.224
									c0.071-0.055,0.173-0.035,0.224,0.043c0.055,0.079,1.347,1.96,1.944,3.499c0.09,0.224,0.02,0.436-0.188,0.585
									c-0.42,0.302-1.402,0.314-1.901-0.106c-0.004,0-0.051-0.023-0.106,0c-0.086,0.031-0.153,0.114-0.185,0.243
									C211.041,133.471,210.975,133.518,210.904,133.518z"/>
							</g>
						</g>
						<g>
							<g>
								<g>
									<g>
										<path style="fill:#492A27;" d="M210.591,126.42c0,0-1.947-1.181-3.374-0.175c-1.428,1.006-0.611,1.274-0.379,1.266
											c0.232-0.008,2.78-1.018,3.432-0.336C210.271,127.175,211.226,127.256,210.591,126.42z"/>
									</g>
								</g>
							</g>
						</g>
						<g>
							<g>
								<g>
									<g>
										<path style="fill:#492A27;" d="M212.404,126.181c0,0,1.743-1.45,3.309-0.662c1.567,0.788,0.801,1.171,0.57,1.197
											s-2.906-0.604-3.446,0.165C212.837,126.881,211.906,127.099,212.404,126.181z"/>
									</g>
								</g>
							</g>
						</g>
						<g>
							<g>
								<path style="fill:#492A27;" d="M213.627,128.519c0.055,0.451,0.325,0.788,0.602,0.753c0.277-0.036,0.457-0.43,0.402-0.882
									c-0.055-0.451-0.325-0.788-0.602-0.752C213.752,127.673,213.572,128.068,213.627,128.519z"/>
							</g>
						</g>
						<g>
							<g>
								<path style="fill:#492A27;" d="M208.357,129.198c0.055,0.451,0.325,0.788,0.602,0.753c0.277-0.036,0.457-0.43,0.402-0.882
									c-0.055-0.451-0.325-0.788-0.602-0.752C208.482,128.352,208.302,128.747,208.357,129.198z"/>
							</g>
						</g>
					</g>
					<g>
						<g>
							<path style="fill:#492A27;" d="M213.318,127.767c0.786-0.333,1.874-0.817,2.219-1.562c0.191-0.411-0.009-0.866,0.14-1.294
								c0.286-0.825,1.078-1.664,1.431-2.523c0.419-1.018,0.67-2.258,0.305-3.307c-0.366-1.051-1.847-1.962-2.757-2.699
								c-0.831-0.674-1.993-1.202-3.186-1.223c-2.16-0.037-4.236-0.077-6.08,1.026c-1.68,1.004-3.177,0.861-5.135,0.95
								c-3.391,0.155-5.383,1.899-5.326,4.673c0.021,1.027-0.027,2.038,0.365,3.015c0.511,1.273,2.15,3.227,1.962,4.616
								c-0.673,4.95,0.86,6.219,3.213,6.562c0.866,0.126,0.401-3.819,0.995-4.355c1.533-1.385,2.641-3.229,4.47-4.364
								c1.32-0.819,3.241-1.361,4.853-1.101c1.097,0.177,2.694,0.424,3.458,1.131C214.154,127.341,214.081,127.326,213.318,127.767z
								"/>
						</g>
					</g>
					<g>
						<g>
							<g>
								<g>
									<path style="fill:#F99C80;" d="M214.642,120.843c0,0-0.388,4.152,0.417,5.564c0.806,1.412,0.646,11.436-0.873,13.212
										c-0.777,0.908-5.045-0.495-8.593-3.481c-3.548-2.986-3.843-9.892-3.843-9.892S200.502,118.942,214.642,120.843z"/>
								</g>
							</g>
						</g>
						<g>
							<g>
								<g>
									<path style="fill:#F99C80;" d="M213.936,147.398c-0.407-3.94-3.538-24.962-3.538-24.962s-4.703,2.261-7.498,4.874
										c-0.141-0.62-1.15-1.064-1.15-1.064l-1.021,1.121c-0.17,0.345,0.401,2.349,0.369,2.685c0,0-0.885,8.071-1.551,13.093
										c-0.661,4.989-0.176,6.936,1.349,8.753c2.31,2.752,7.557,4.113,10.528,3.339
										C215.643,154.139,214.343,151.338,213.936,147.398z"/>
								</g>
							</g>
						</g>
					</g>
					<g>
						<g>
							<path style="fill:#492A27;" d="M216.065,121.991c1.197,2.16-6.872,2.807-8.899,1.484c-0.305-0.199-0.69-0.296-1.065-0.305
								c-0.302-0.007-0.599,0.1-0.855,0.257c-0.657,0.404-1.055,1.161-0.993,1.891c0.037,0.44,0.226,0.853,0.295,1.288
								c0.107,0.675-0.091,1.395-0.536,1.945c-0.015-0.801-1.854-3.736-2.663-1.106c-0.214,0.697,0.545,1.344,0.673,2.053
								c0.233,1.286-0.412,2.581-1.158,3.701c-0.968-0.72-1.413-1.907-1.583-3.068c-0.322-2.212,0.22-4.543,1.501-6.455
								c1.281-1.911,3.291-3.386,5.563-4.083c1.064-0.326,2.175-0.486,3.286-0.549c0.802-0.046,1.624-0.04,2.376,0.209
								c0.854,0.283,1.546,0.859,2.384,1.17c0.401,0.149,0.663,0.137,0.962,0.436C215.665,121.168,215.856,121.613,216.065,121.991z
								"/>
						</g>
					</g>
					<g>
						<g>
							<g>
								<path style="fill:#FFFFFF;" d="M210.419,134.317l-1.899-0.463c0,0-0.532,1.999,1.313,2.448
									c1.845,0.45,2.485-1.523,2.485-1.523L210.419,134.317z"/>
							</g>
						</g>
						<g>
							<g>
								<g>
									<path style="fill:#DE9B72;" d="M212.682,132.85c0.196-0.035,0.372-0.1,0.497-0.189c0.208-0.151,0.279-0.364,0.192-0.588
										c-0.599-1.539-1.89-3.419-1.947-3.499c-0.049-0.073-0.149-0.089-0.224-0.041c-0.074,0.051-0.092,0.152-0.039,0.226
										c0.011,0.02,1.322,1.93,1.907,3.434c0.025,0.061,0.034,0.128-0.075,0.207c-0.325,0.226-1.135,0.22-1.504-0.09
										c-0.102-0.087-0.245-0.116-0.416-0.063c-0.191,0.063-0.338,0.233-0.397,0.47c-0.024,0.087,0.028,0.176,0.115,0.198
										c0.083,0.02,0.175-0.033,0.196-0.116c0.035-0.129,0.099-0.215,0.188-0.243c0.043-0.024,0.1-0.005,0.105,0.003
										C211.627,132.849,212.216,132.933,212.682,132.85z"/>
								</g>
							</g>
						</g>
						<g>
							<g>
								<g>
									<g>
										<path style="fill:#492A27;" d="M210.519,125.82c0,0-1.947-1.181-3.374-0.175c-1.428,1.006-0.611,1.274-0.378,1.266
											c0.232-0.008,2.78-1.018,3.432-0.336C210.199,126.575,211.153,126.655,210.519,125.82z"/>
									</g>
								</g>
							</g>
						</g>
						<g>
							<g>
								<g>
									<g>
										<path style="fill:#492A27;" d="M212.331,125.58c0,0,1.743-1.45,3.309-0.662c1.567,0.788,0.801,1.171,0.57,1.197
											c-0.231,0.026-2.906-0.604-3.446,0.165C212.764,126.281,211.833,126.498,212.331,125.58z"/>
									</g>
								</g>
							</g>
						</g>
						<g>
							<g>
								<path style="fill:#492A27;" d="M213.555,127.919c0.055,0.451,0.325,0.788,0.602,0.752c0.277-0.036,0.457-0.431,0.402-0.882
									c-0.055-0.451-0.325-0.788-0.602-0.752C213.679,127.073,213.499,127.467,213.555,127.919z"/>
							</g>
						</g>
						<g>
							<g>
								<path style="fill:#492A27;" d="M208.285,128.598c0.055,0.451,0.325,0.788,0.602,0.752c0.277-0.036,0.457-0.431,0.402-0.882
									c-0.055-0.451-0.325-0.788-0.602-0.752C208.409,127.752,208.229,128.147,208.285,128.598z"/>
							</g>
						</g>
					</g>
				</g>
				<g>
					<g>
						<path d="M213.638,250.235c-5.337,0-8.695-0.888-8.75-0.903c-0.181-0.047-0.287-0.232-0.236-0.409
							c0.047-0.177,0.228-0.291,0.408-0.236c0.094,0.024,9.359,2.459,21.652-0.888c0.185-0.051,0.361,0.059,0.408,0.236
							c0.051,0.177-0.055,0.361-0.236,0.408C221.83,249.823,217.274,250.235,213.638,250.235z"/>
					</g>
				</g>
				<g>
					<g>
						<path style="fill:#FFFFFF;" d="M194.691,147.33l9.069,13.434l2.415,175.955l-50.677-0.849l18.403-161.197
							C173.902,174.673,160.552,147.285,194.691,147.33z"/>
					</g>
				</g>
				<g>
					<g>
						<polygon style="fill:#6989AE;" points="194.691,147.33 197.811,142.566 208.243,155.379 201.244,161.868 						"/>
					</g>
				</g>
				<g>
					<g>
						<polygon points="221.336,256.674 211.527,256.884 212.781,249.931 221.635,249.405 						"/>
					</g>
				</g>
				<g>
					<g>
						<path style="fill:#D6EFF4;" d="M214.803,145.93L226.8,248.122l5.285,89.558l20.36,1.509l-16.257-143.213l-11.906-45.2
							C224.281,150.777,223.566,146.007,214.803,145.93z"/>
					</g>
				</g>
				<g>
					<g>
						<polygon style="fill:#6989AE;" points="213.673,145.904 210.074,155.418 216.623,161.041 219.701,146.604 213.358,142.897 
													"/>
					</g>
				</g>
				<g>
					<g>
						<polygon style="fill:#A6ABB2;" points="285.448,175.807 290.703,185.946 286.92,187.634 281.781,176.942 						"/>
					</g>
				</g>
				<g>
					<g>
						<path d="M272.373,195.667c-0.13,0-0.251-0.075-0.306-0.2c-0.075-0.169,0.004-0.369,0.173-0.44l14.783-6.406l-5.212-10.84
							c-0.078-0.169-0.008-0.365,0.157-0.448c0.169-0.09,0.365-0.012,0.448,0.157l5.361,11.154c0.039,0.083,0.043,0.177,0.012,0.263
							c-0.032,0.086-0.098,0.153-0.181,0.189l-15.101,6.543C272.464,195.659,272.416,195.667,272.373,195.667z"/>
					</g>
				</g>
				<g>
					<g>
						<path d="M206.289,315.341c-0.02,0-0.039,0-0.059-0.004c-0.181-0.031-0.302-0.204-0.271-0.389l10.294-58.783
							c0.031-0.181,0.204-0.314,0.389-0.271c0.181,0.031,0.302,0.204,0.271,0.389l-10.294,58.783
							C206.592,315.227,206.45,315.341,206.289,315.341z"/>
					</g>
				</g>
				<g>
					<g>
						<path d="M235.042,193.216c-0.137,0-0.263-0.082-0.314-0.216l-4.949-13.404c-0.063-0.177,0.024-0.369,0.196-0.432
							c0.177-0.075,0.365,0.023,0.432,0.196l4.949,13.405c0.063,0.177-0.024,0.369-0.196,0.432
							C235.121,193.212,235.082,193.216,235.042,193.216z"/>
					</g>
				</g>
				<g>
					<g>
						<path d="M216.622,161.376c-0.078,0-0.157-0.027-0.22-0.079l-2.663-2.286c-0.138-0.122-0.153-0.334-0.035-0.475
							c0.122-0.133,0.33-0.157,0.475-0.035l2.235,1.921l2.961-13.888c0.035-0.185,0.22-0.318,0.397-0.255
							c0.181,0.035,0.295,0.216,0.255,0.397l-3.079,14.437c-0.023,0.114-0.106,0.208-0.22,0.247
							C216.693,161.372,216.658,161.376,216.622,161.376z"/>
					</g>
				</g>
				<g>
					<g>
						<path d="M201.242,162.2c-0.024,0-0.043,0-0.067-0.004c-0.106-0.024-0.196-0.094-0.24-0.192l-5.385-11.951
							c-0.075-0.169,0-0.365,0.169-0.444c0.153-0.079,0.365-0.008,0.444,0.169l5.192,11.527l5.942-5.506
							c0.133-0.122,0.35-0.114,0.475,0.02c0.126,0.137,0.118,0.35-0.02,0.475l-6.284,5.82
							C201.407,162.169,201.325,162.2,201.242,162.2z"/>
					</g>
				</g>
				<g>
					<g>
						<path style="fill:#D7876E;" d="M203.64,136.826c0,0,5.064,3.031,9.352,3.061l0.595,4.688
							C213.587,144.574,206.473,142.464,203.64,136.826z"/>
					</g>
				</g>
				<g>
					<g>
						
							<rect x="205.197" y="195.012" transform="matrix(0.9536 0.3009 -0.3009 0.9536 78.0581 -57.4558)" style="fill:#67A472;" width="40.681" height="59.292"/>
					</g>
				</g>
				<g>
					<g>
						<g>
							<path style="fill:#4A7652;" d="M222.681,224.022c-0.474-4.335-2.033-8.623-4.889-11.918c-0.538-0.62-1.336-1.255-2.096-0.945
								c-0.518,0.212-0.776,0.784-0.965,1.311c-1.617,4.51-1.774,9.532-0.441,14.134c1.108,3.825,3.239,7.344,6.096,10.116
								c0.316,0.306,1.269,1.499,1.779,1.415c0.405-0.067,0.286-0.746,0.266-1.036c-0.052-0.755-0.177-1.502-0.204-2.259
								c-0.035-0.97,0.182-1.912,0.306-2.869C222.876,229.339,222.971,226.665,222.681,224.022z"/>
						</g>
					</g>
					<g>
						<g>
							<path style="fill:#4A7652;" d="M228.438,225.483c2.483-3.584,5.898-6.611,9.979-8.147c0.768-0.289,1.773-0.467,2.293,0.168
								c0.354,0.433,0.308,1.059,0.223,1.612c-0.728,4.736-2.983,9.225-6.349,12.636c-2.797,2.835-6.348,4.912-10.181,5.987
								c-0.424,0.119-1.83,0.713-2.238,0.396c-0.324-0.251,0.104-0.792,0.26-1.038c0.406-0.639,0.872-1.236,1.257-1.889
								c0.493-0.836,0.751-1.767,1.098-2.668C225.733,230.064,226.924,227.668,228.438,225.483z"/>
						</g>
					</g>
					<g>
						<g>
							<path style="fill:#4A7652;" d="M229.863,207.016c0,0-5.946,4.688-5.8,11.249c0.146,6.561,0.968,7.804,0.968,7.804
								s1.315-0.701,4.57-6.399C232.855,213.971,229.863,207.016,229.863,207.016z"/>
						</g>
					</g>
				</g>
				<g>
					<g>
						<g>
							<g>
								<g>
									<g>
										<g>
											<g>
												<path style="fill:#F99C80;" d="M214.783,216.078c0,0-0.146,9.154-1.943,9.463c-7.63,1.309-12.884-1.392-12.884-1.392
													s0.252-7.689,0.432-8.164c0.18-0.475,2.944-3.065,5.303-3.397C208.051,212.255,214.783,216.078,214.783,216.078z"/>
											</g>
										</g>
									</g>
								</g>
								<g>
									<g>
										<g>
											<g>
												<path style="fill:#F99C80;" d="M202.408,214.081c0,0,7.021-5.679,7.647-4.951c0.626,0.728-1.5,3.883-1.5,3.883
													L202.408,214.081z"/>
											</g>
										</g>
									</g>
								</g>
								<g>
									<g>
										<g>
											<g>
												<path style="fill:#F99C80;" d="M208.263,213.016c0,0,9.647,4.018,9.954,5.29c0.324,1.345-7.804-0.615-8.332-1.388
													C209.356,216.145,208.263,213.016,208.263,213.016z"/>
											</g>
										</g>
									</g>
								</g>
								<g>
									<g>
										<g>
											<g>
												<path style="fill:#F99C80;" d="M211.343,218.003c0,0,6.46,1.626,6.499,2.573c0.077,1.868-6.392,0.423-6.921-0.35
													S211.343,218.003,211.343,218.003z"/>
											</g>
										</g>
									</g>
								</g>
								<g>
									<g>
										<g>
											<g>
												<path style="fill:#F99C80;" d="M208.804,220.246c0,0,8.786,1.628,9.064,2.832c0.414,1.792-9.186,0.172-9.653-0.639
													C207.748,221.628,208.804,220.246,208.804,220.246z"/>
											</g>
										</g>
									</g>
								</g>
								<g>
									<g>
										<g>
											<g>
												<path style="fill:#F99C80;" d="M208.255,223.175c0,0,9.163,1.252,9.065,1.721c-0.384,1.853-8.956,1.286-9.482,0.551
													C207.312,224.712,208.255,223.175,208.255,223.175z"/>
											</g>
										</g>
									</g>
								</g>
							</g>
							<g>
								<g>
									<g>
										<g>
											<polygon style="fill:#F99C80;" points="197.185,224.39 199.956,224.149 200.429,215.845 196.975,215.579 											"/>
										</g>
									</g>
								</g>
							</g>
						</g>
						<g>
							<g>
								<polygon style="fill:#F99C80;" points="174.432,212.822 196.975,215.579 197.185,224.39 173.826,226.078 								"/>
							</g>
						</g>
					</g>
					<g>
						<g>
							<polygon style="fill:#A6ABB2;" points="193.322,213.165 197.073,213.128 196.326,226.023 192.795,226.595 							"/>
						</g>
					</g>
				</g>
				<g>
					<g>
						<path style="fill:#B6CCD0;" d="M193.456,232.231c0,0-10.414,8.324-27.499,9.951l1.655-8.267L193.456,232.231z"/>
					</g>
				</g>
				<g>
					<g>
						<path style="fill:#FFFFFF;" d="M173.451,155.418c0,0-42.393,39.514-32.842,62.922c9.551,23.408,52.848,13.891,52.848,13.891
							l0.254-24.012L173.451,155.418z"/>
					</g>
				</g>
				<g>
					<g>
						<path d="M193.321,212.095c-0.008,0-0.016,0-0.024,0c-0.762-0.051-18.726-1.284-22.528-2.286
							c-0.73-0.196-1.233-0.656-1.496-1.371c-2.16-5.942,14.485-29.546,15.192-30.548c0.11-0.153,0.314-0.185,0.467-0.082
							c0.153,0.11,0.189,0.318,0.083,0.467c-0.173,0.243-17.151,24.319-15.109,29.935c0.181,0.503,0.522,0.813,1.037,0.947
							c3.739,0.986,22.214,2.258,22.402,2.27c0.185,0.012,0.322,0.173,0.31,0.357C193.643,211.962,193.497,212.095,193.321,212.095z
							"/>
					</g>
				</g>
			</g>
			<g>
				<g>
					<g>
						<path style="fill:#492A27;" d="M535.209,117.452c0,0,5.382-3.386,12.907,2.062c10.278,7.441,6.415,13.517,11.948,16.241
							c45.245,22.279,29.251,36.249,29.251,36.249l-51.599-12.697L535.209,117.452z"/>
					</g>
				</g>
				<g>
					<g>
						<g>
							<g>
								<g>
									<g>
										<g>
											<g>
												<path style="fill:#F99C80;" d="M483.078,217.109c0,0,4.483,8.755,6.227,8.223c7.405-2.257,10.886-7.03,10.886-7.03
													s-3.679-6.757-4.053-7.101c-0.374-0.344-4.007-1.416-6.264-0.653C487.616,211.311,483.078,217.109,483.078,217.109z"/>
											</g>
										</g>
									</g>
								</g>
								<g>
									<g>
										<g>
											<g>
												<path style="fill:#F99C80;" d="M493.478,210.408c0,0-8.824-1.921-9.056-0.989c-0.233,0.932,3.085,2.796,3.085,2.796
													L493.478,210.408z"/>
											</g>
										</g>
									</g>
								</g>
								<g>
									<g>
										<g>
											<g>
												<path style="fill:#F99C80;" d="M487.507,212.215c0,0-11.131,8.15-10.841,9.687c0.307,1.624,9.4-3.441,9.657-4.591
													C486.579,216.161,487.507,212.215,487.507,212.215z"/>
											</g>
										</g>
									</g>
								</g>
								<g>
									<g>
										<g>
											<g>
												<path style="fill:#F99C80;" d="M485.295,218.077c0,0-8.757,6.241-8.302,7.265c0.899,2.02,9.763-4.035,10.019-5.185
													C487.269,219.006,485.295,218.077,485.295,218.077z"/>
											</g>
										</g>
									</g>
								</g>
								<g>
									<g>
										<g>
											<g>
												<path style="fill:#F99C80;" d="M487.789,218.931c0,0-8.32,7.27-7.91,8.699c0.61,2.125,9.903-5.767,9.958-6.944
													C489.893,219.508,487.789,218.931,487.789,218.931z"/>
											</g>
										</g>
									</g>
								</g>
								<g>
									<g>
										<g>
											<g>
												<path style="fill:#F99C80;" d="M491.02,219.839c0,0-8.345,8.347-7.909,8.699c1.718,1.391,9.902-5.767,9.958-6.944
													C493.125,220.417,491.02,219.839,491.02,219.839z"/>
											</g>
										</g>
									</g>
								</g>
								<g>
									<g>
										<g>
											<path style="fill:#DC8A71;" d="M494.935,219.134c-0.032-0.113-0.141-0.188-0.26-0.173
												c-1.651,0.195-3.058-0.167-4.184-1.077c-2.372-1.921-2.745-5.655-2.745-5.691c-0.003-0.126-0.129-0.23-0.262-0.219
												c-0.133,0.012-0.229,0.13-0.218,0.261c0.018,0.169,0.394,3.974,2.922,6.022c1.231,0.994,2.759,1.391,4.544,1.18
												c0.132-0.014,0.226-0.134,0.211-0.267C494.941,219.158,494.938,219.146,494.935,219.134z"/>
										</g>
									</g>
								</g>
							</g>
							<g>
								<g>
									<g>
										<polygon style="fill:#DE9B72;" points="482.942,220.136 482.638,219.576 486.439,217.527 486.743,218.088 										"/>
									</g>
								</g>
							</g>
							<g>
								<g>
									<g>
										<polygon style="fill:#DE9B72;" points="483.661,223.424 483.292,222.904 486.993,220.272 487.362,220.793 										"/>
									</g>
								</g>
							</g>
							<g>
								<g>
									<g>
										<polygon style="fill:#F99C80;" points="487.406,223.993 486.947,223.549 488.014,222.442 488.473,222.885 										"/>
									</g>
								</g>
							</g>
							<g>
								<g>
									<g>
										<g>
											<polygon style="fill:#F99C80;" points="502.775,217.273 500.191,218.302 496.038,211.096 499.005,209.306 											"/>
										</g>
									</g>
								</g>
							</g>
						</g>
						<g>
							<g>
								<polygon style="fill:#F99C80;" points="517.908,196.718 499.005,209.306 502.775,217.273 524.403,208.289 								"/>
							</g>
						</g>
					</g>
					<g>
						<g>
							<polygon style="fill:#A6ABB2;" points="501.678,206.648 504.87,217.612 508.772,216.224 505.116,204.938 							"/>
						</g>
					</g>
				</g>
				<g>
					<g>
						<path style="fill:#492A27;" d="M528.765,119.291c-1.799,1.9-0.821,5.427,1.172,7.123c-1.42,2.325-2.174,4.952-3.195,7.478
							c-4.302,10.643-0.467,21.733,0.805,24.143l10.169-16.181l1.288-23.13C539.004,118.723,532.639,115.201,528.765,119.291z"/>
					</g>
				</g>
				<g>
					<g>
						<polygon style="fill:#E5E5E5;" points="549.437,142.268 546.797,141.763 548.126,147.307 						"/>
					</g>
				</g>
				<g>
					<g>
						<path style="fill:#5E6163;" d="M510.413,201.387l-5.511,71.318c0,0,8.065,6.716,14.107,2.474
							c6.042-4.242,10.033-126.607,10.033-126.607S512.692,181.408,510.413,201.387z"/>
					</g>
				</g>
				<g>
					<g>
						<g>
							<g>
								<g>
									<g>
										<path style="fill:#193343;" d="M509.727,417.421c0,0-13.146,10.367-19.245,11.408c-1.062,0.181-1.907,1.162-1.898,2.393
											c0.01,1.222,0.718,2.596,3.516,3.202c4.119,0.893,22.029-0.864,31.19-1.852c3.121-0.337,5.34-2.778,5.208-5.729
											c-0.071-1.588-0.151-3.412-0.23-5.272c-0.11-2.592,0.772-11.327,0.772-11.327l-15.359,0.251L509.727,417.421z"/>
									</g>
								</g>
							</g>
						</g>
					</g>
				</g>
				<g>
					<g>
						<g>
							<g>
								<g>
									<g>
										<path style="fill:#193343;" d="M570.09,417.363c0,0-9.36,13.881-14.851,16.731c-0.956,0.496-1.462,1.688-1.078,2.857
											c0.382,1.161,1.475,2.253,4.324,1.978c4.195-0.405,20.717-7.537,29.141-11.272c2.87-1.272,4.239-4.273,3.214-7.044
											c-0.552-1.491-1.184-3.203-1.826-4.951c-0.894-2.436-1.694-6.425-1.694-6.425l-15.575,0.323L570.09,417.363z"/>
									</g>
								</g>
							</g>
						</g>
					</g>
				</g>
				<g>
					<g>
						<path style="fill:#414259;" d="M549.916,278.86c-3.472,11.575,0.516,44.602-0.421,55.222
							c-0.937,10.62-1.258,21.551-4.897,45.879l-37.434-0.849l14.545-160.996l10.305,4.632l15.737-1.95
							C547.751,220.798,554.695,262.927,549.916,278.86z"/>
					</g>
				</g>
				<g>
					<g>
						<path style="fill:#414259;" d="M583.652,281.986c0.025,12.089,1.685,40.926,3.86,51.36
							c2.174,10.434,7.553,18.326,6.216,48.878l-34.253,2.263l-32.273-149.785l33.094-2.299l14.494-6.465
							C574.789,225.938,583.618,265.345,583.652,281.986z"/>
					</g>
				</g>
				<g>
					<g>
						
							<path style="fill:none;stroke:#000000;stroke-width:0.6704;stroke-linecap:round;stroke-linejoin:round;stroke-miterlimit:10;" d="
							M509.735,169.508"/>
					</g>
				</g>
				<g>
					<g>
						<path d="M574.409,191.535c-0.11,0-0.22-0.055-0.283-0.157l-5.204-8.311c-0.098-0.157-0.051-0.361,0.106-0.46
							c0.153-0.094,0.361-0.051,0.46,0.106l5.204,8.311c0.098,0.157,0.051,0.361-0.106,0.459
							C574.531,191.519,574.472,191.535,574.409,191.535z"/>
					</g>
				</g>
				<g>
					<g>
						<path style="fill:#6989AE;" d="M547.076,147.326c-9.205,0.206-24.457-6.1-27.43,27.823
							c-1.085,12.377-4.21,44.507-5.769,55.039c-0.328,2.217-1.397,13.146,0.161,14.481c7.614,6.523,30.233,8.659,61.944-7.575
							c0,0-0.748-1.552-0.515-10.961c0.158-6.406-0.476-55.194,0.012-63.131c0.064-1.033-0.067-2.032-0.391-2.987
							C572.79,153.256,570.689,146.797,547.076,147.326z"/>
					</g>
				</g>
				<g>
					<g>
						<polygon style="fill:#597594;" points="530.625,160.743 533.288,158.456 537.174,155.12 526.615,195.678 						"/>
					</g>
				</g>
				<g>
					<g>
						<path style="fill:none;" d="M544.361,135.029c-0.061,0.014-0.093-0.011-0.093-0.074"/>
					</g>
				</g>
				<g>
					<g>
						<g>
							<g>
								<path style="fill:#FFFFFF;" d="M536.756,134.619l1.899-0.463c0,0,0.532,1.999-1.313,2.448
									c-1.845,0.45-2.485-1.523-2.485-1.523L536.756,134.619z"/>
							</g>
						</g>
						<g>
							<g>
								<path d="M536.344,133.219c-0.071,0-0.138-0.047-0.157-0.122c-0.031-0.13-0.098-0.212-0.185-0.243
									c-0.051-0.016-0.102,0-0.11,0.004c-0.495,0.42-1.477,0.404-1.897,0.102c-0.208-0.149-0.279-0.361-0.189-0.585
									c0.597-1.54,1.889-3.421,1.944-3.499c0.047-0.079,0.149-0.098,0.224-0.043c0.075,0.051,0.094,0.153,0.043,0.224
									c-0.012,0.02-1.328,1.932-1.913,3.437c-0.024,0.063-0.031,0.126,0.078,0.204c0.318,0.232,1.131,0.22,1.5-0.086
									c0.106-0.086,0.267-0.106,0.42-0.063c0.114,0.039,0.314,0.149,0.397,0.471c0.02,0.086-0.031,0.173-0.118,0.196
									C536.371,133.219,536.355,133.219,536.344,133.219z"/>
							</g>
						</g>
						<g>
							<g>
								<g>
									<g>
										<path style="fill:#492A27;" d="M536.656,126.122c0,0,1.947-1.181,3.374-0.175c1.428,1.006,0.611,1.274,0.379,1.266
											c-0.232-0.008-2.78-1.018-3.432-0.336C536.977,126.877,536.022,126.957,536.656,126.122z"/>
									</g>
								</g>
							</g>
						</g>
						<g>
							<g>
								<path style="fill:#492A27;" d="M533.62,128.221c-0.055,0.451-0.325,0.788-0.602,0.753c-0.277-0.036-0.457-0.431-0.402-0.882
									c0.055-0.451,0.325-0.788,0.602-0.752C533.496,127.374,533.676,127.769,533.62,128.221z"/>
							</g>
						</g>
						<g>
							<g>
								<path style="fill:#492A27;" d="M538.89,128.9c-0.055,0.451-0.325,0.788-0.602,0.753c-0.277-0.036-0.457-0.431-0.402-0.882
									c0.055-0.451,0.325-0.788,0.602-0.752C538.766,128.054,538.946,128.449,538.89,128.9z"/>
							</g>
						</g>
					</g>
					<g>
						<g>
							<g>
								<g>
									<path style="fill:#F99C80;" d="M532.606,120.545c0,0,0.388,4.152-0.418,5.564c-0.806,1.412-0.646,11.437,0.873,13.212
										c0.777,0.908,5.045-0.495,8.593-3.481c3.548-2.986,3.843-9.892,3.843-9.892S546.745,118.644,532.606,120.545z"/>
								</g>
							</g>
						</g>
						<g>
							<g>
								<g>
									<path style="fill:#F99C80;" d="M533.311,147.1c0.407-3.94,3.538-24.962,3.538-24.962s4.703,2.261,7.498,4.874
										c0.141-0.621,1.151-1.064,1.151-1.064l1.021,1.121c0.17,0.345-0.401,2.349-0.369,2.684c0,0,0.885,8.071,1.551,13.093
										c0.661,4.989,0.176,6.936-1.349,8.753c-2.31,2.752-7.557,4.113-10.528,3.339C531.605,153.84,532.905,151.039,533.311,147.1
										z"/>
								</g>
							</g>
						</g>
					</g>
					<g>
						<g>
							<path style="fill:#492A27;" d="M531.182,121.692c-0.765,6.514,9.409,0.554,9.67,3.619c0.258,3.032,1.06,4.057,2.616,4.057
								c0.729,0,1.884-0.877,1.755-0.168c-0.233,1.286-7.72,8.474-0.273,13.398c3.081,13.266,9.322,2.804,9.3,0.373
								c-0.021-2.235-6.506-17.682-7.787-19.593c-1.281-1.911-3.291-3.386-5.563-4.083c-1.063-0.326-2.175-0.486-3.286-0.55
								c-0.802-0.046-1.624-0.04-2.376,0.209c-0.854,0.283-1.546,0.859-2.384,1.17c-0.401,0.149-0.663,0.137-0.962,0.436
								C531.582,120.869,531.232,121.263,531.182,121.692z"/>
						</g>
					</g>
					<g>
						<g>
							<g>
								<path style="fill:#FFFFFF;" d="M535.176,134.28l1.473-0.052c0,0-1.127,1.477-2.558,1.527l-0.388-1.423L535.176,134.28z"/>
							</g>
						</g>
						<g>
							<g>
								<g>
									<path style="fill:#DE9B72;" d="M534.565,132.551c-0.196-0.035-0.372-0.1-0.497-0.189c-0.208-0.151-0.279-0.364-0.192-0.589
										c0.599-1.539,1.89-3.419,1.947-3.499c0.049-0.072,0.149-0.089,0.224-0.041c0.074,0.051,0.092,0.152,0.039,0.225
										c-0.011,0.02-1.322,1.931-1.907,3.434c-0.025,0.061-0.034,0.128,0.075,0.207c0.325,0.226,1.135,0.22,1.504-0.09
										c0.102-0.087,0.244-0.115,0.416-0.063c0.191,0.063,0.338,0.233,0.397,0.47c0.024,0.087-0.028,0.176-0.115,0.198
										c-0.083,0.02-0.175-0.033-0.196-0.116c-0.035-0.129-0.099-0.214-0.188-0.243c-0.043-0.024-0.1-0.005-0.105,0.003
										C535.62,132.551,535.031,132.634,534.565,132.551z"/>
								</g>
							</g>
						</g>
						<g>
							<g>
								<g>
									<g>
										<path style="fill:#492A27;" d="M536.533,125.471c0,0,1.461-1.282,2.659-0.354c1.197,0.928,0.569,1.239,0.384,1.243
											c-0.184,0.005-2.268-0.868-2.739-0.153C536.837,126.208,536.088,126.339,536.533,125.471z"/>
									</g>
								</g>
							</g>
						</g>
						<g>
							<g>
								<g>
									<g>
										<path style="fill:#492A27;" d="M535.083,125.329c0,0-1.476-1.354-2.663-0.484c-1.187,0.87-0.555,1.211-0.371,1.224
											c0.184,0.013,2.259-0.757,2.738-0.018C534.787,126.05,535.539,126.218,535.083,125.329z"/>
									</g>
								</g>
							</g>
						</g>
						<g>
							<g>
								<path style="fill:#492A27;" d="M533.693,127.62c-0.055,0.451-0.325,0.788-0.602,0.753c-0.277-0.036-0.457-0.431-0.402-0.882
									s0.325-0.788,0.602-0.752C533.568,126.774,533.748,127.169,533.693,127.62z"/>
							</g>
						</g>
						<g>
							<g>
								<path style="fill:#492A27;" d="M538.963,128.3c-0.055,0.451-0.325,0.788-0.602,0.753c-0.277-0.036-0.457-0.431-0.402-0.882
									c0.055-0.451,0.325-0.788,0.602-0.752C538.838,127.454,539.018,127.848,538.963,128.3z"/>
							</g>
						</g>
					</g>
				</g>
				<g>
					<g>
						<path d="M533.61,249.937c-3.637,0-8.193-0.412-13.247-1.791c-0.181-0.047-0.287-0.232-0.236-0.409
							c0.047-0.177,0.228-0.291,0.408-0.236c12.293,3.342,21.562,0.911,21.652,0.888c0.185-0.043,0.361,0.059,0.408,0.236
							c0.051,0.177-0.055,0.361-0.236,0.408C542.306,249.049,538.948,249.937,533.61,249.937z"/>
					</g>
				</g>
				<g>
					<g>
						<path style="fill:#FFFFFF;" d="M552.556,147.031l-6.553,14.538l-4.932,174.851l66.969-0.849l-34.695-161.197
							C573.345,174.375,586.695,146.987,552.556,147.031z"/>
					</g>
				</g>
				<g>
					<g>
						<polygon style="fill:#6989AE;" points="552.556,147.031 549.437,142.268 539.004,155.081 546.004,161.57 						"/>
					</g>
				</g>
				<g>
					<g>
						<polygon points="525.911,256.376 535.72,256.586 534.467,249.633 525.612,249.107 						"/>
					</g>
				</g>
				<g>
					<g>
						<path style="fill:#FFFFFF;" d="M532.444,145.632l-11.616,98.611l-9.922,93.454l-16.102,1.194l16.257-143.213l3.379-27.259
							c0.836-6.742,3.826-13.035,8.526-17.94l0,0C522.967,150.479,523.681,145.708,532.444,145.632z"/>
					</g>
				</g>
				<g>
					<g>
						<path style="fill:#BED3D8;" d="M523.958,148.572l2.839,44.999l3.828-32.828l-2.865-13.436
							C527.76,147.307,527.834,144.626,523.958,148.572z"/>
					</g>
				</g>
				<g>
					<g>
						<polygon style="fill:#6989AE;" points="533.575,145.606 537.174,155.12 530.625,160.743 527.547,146.306 533.889,142.598 
													"/>
					</g>
				</g>
				<g>
					<g>
						<path d="M540.958,315.043c-0.161,0-0.302-0.114-0.33-0.275l-10.294-58.783c-0.031-0.185,0.09-0.357,0.271-0.389
							c0.169-0.039,0.357,0.09,0.389,0.271l10.294,58.783c0.031,0.185-0.09,0.357-0.271,0.389
							C540.998,315.043,540.978,315.043,540.958,315.043z"/>
					</g>
				</g>
				<g>
					<g>
						<path d="M530.625,161.077c-0.035,0-0.071-0.004-0.106-0.016c-0.114-0.039-0.196-0.134-0.22-0.247l-3.079-14.437
							c-0.039-0.181,0.075-0.361,0.255-0.397c0.192-0.047,0.361,0.075,0.397,0.255l2.961,13.888l2.235-1.921
							c0.141-0.126,0.35-0.102,0.475,0.035c0.118,0.141,0.102,0.354-0.035,0.475l-2.663,2.286
							C530.782,161.05,530.704,161.077,530.625,161.077z"/>
					</g>
				</g>
				<g>
					<g>
						<path d="M546.005,161.902c-0.083,0-0.165-0.031-0.228-0.086l-6.284-5.821c-0.137-0.126-0.145-0.338-0.02-0.475
							c0.126-0.138,0.342-0.145,0.475-0.02l5.942,5.506l5.192-11.527c0.075-0.173,0.291-0.236,0.444-0.169
							c0.169,0.079,0.244,0.275,0.169,0.444l-5.385,11.951c-0.043,0.098-0.133,0.169-0.24,0.192
							C546.048,161.902,546.029,161.902,546.005,161.902z"/>
					</g>
				</g>
				<g>
					<g>
						<path style="fill:#D7876E;" d="M541.35,138.286c0,0-2.805,1.272-7.094,1.302l-0.595,4.688
							C533.661,144.276,538.617,141.763,541.35,138.286z"/>
					</g>
				</g>
				<g>
					<g>
						
							<rect x="501.369" y="194.714" transform="matrix(-0.9536 0.3009 -0.3009 -0.9536 1086.7523 281.3278)" style="fill:#67A472;" width="40.681" height="59.292"/>
					</g>
				</g>
				<g>
					<g>
						<g>
							<path style="fill:#4A7652;" d="M524.566,223.724c0.474-4.335,2.034-8.623,4.889-11.918c0.537-0.62,1.336-1.256,2.096-0.945
								c0.518,0.212,0.776,0.784,0.965,1.311c1.617,4.51,1.774,9.532,0.441,14.134c-1.108,3.825-3.239,7.344-6.096,10.116
								c-0.316,0.306-1.269,1.499-1.779,1.415c-0.405-0.067-0.286-0.746-0.266-1.036c0.052-0.755,0.177-1.502,0.204-2.259
								c0.034-0.97-0.182-1.912-0.306-2.869C524.372,229.04,524.277,226.367,524.566,223.724z"/>
						</g>
					</g>
					<g>
						<g>
							<path style="fill:#4A7652;" d="M518.809,225.184c-2.483-3.584-5.898-6.611-9.979-8.146c-0.768-0.289-1.773-0.467-2.292,0.168
								c-0.354,0.433-0.308,1.059-0.223,1.612c0.728,4.736,2.983,9.225,6.349,12.636c2.797,2.835,6.348,4.912,10.181,5.987
								c0.424,0.119,1.83,0.713,2.238,0.396c0.324-0.251-0.104-0.792-0.26-1.038c-0.406-0.639-0.872-1.236-1.257-1.889
								c-0.492-0.836-0.751-1.767-1.098-2.668C521.514,229.765,520.323,227.37,518.809,225.184z"/>
						</g>
					</g>
					<g>
						<g>
							<path style="fill:#4A7652;" d="M517.385,206.717c0,0,5.946,4.688,5.8,11.249c-0.146,6.561-0.968,7.804-0.968,7.804
								s-1.315-0.701-4.57-6.399C514.392,213.673,517.385,206.717,517.385,206.717z"/>
						</g>
					</g>
				</g>
				<g>
					<g>
						<g>
							<g>
								<g>
									<g>
										<g>
											<g>
												<path style="fill:#F99C80;" d="M532.465,215.78c0,0,0.146,9.154,1.943,9.462c7.63,1.309,12.884-1.392,12.884-1.392
													s-0.252-7.689-0.432-8.165c-0.18-0.475-2.944-3.065-5.303-3.397C539.197,211.957,532.465,215.78,532.465,215.78z"/>
											</g>
										</g>
									</g>
								</g>
								<g>
									<g>
										<g>
											<g>
												<path style="fill:#F99C80;" d="M544.84,213.782c0,0-7.021-5.679-7.647-4.951c-0.626,0.728,1.5,3.883,1.5,3.883
													L544.84,213.782z"/>
											</g>
										</g>
									</g>
								</g>
								<g>
									<g>
										<g>
											<g>
												<path style="fill:#F99C80;" d="M538.984,212.717c0,0-9.647,4.018-9.954,5.29c-0.324,1.345,7.804-0.615,8.332-1.388
													S538.984,212.717,538.984,212.717z"/>
											</g>
										</g>
									</g>
								</g>
								<g>
									<g>
										<g>
											<g>
												<path style="fill:#F99C80;" d="M535.905,217.705c0,0-6.461,1.626-6.499,2.573c-0.077,1.868,6.392,0.423,6.921-0.35
													C536.855,219.156,535.905,217.705,535.905,217.705z"/>
											</g>
										</g>
									</g>
								</g>
								<g>
									<g>
										<g>
											<g>
												<path style="fill:#F99C80;" d="M538.444,219.948c0,0-8.786,1.628-9.064,2.832c-0.414,1.792,9.186,0.172,9.653-0.639
													C539.5,221.33,538.444,219.948,538.444,219.948z"/>
											</g>
										</g>
									</g>
								</g>
								<g>
									<g>
										<g>
											<g>
												<path style="fill:#F99C80;" d="M538.993,222.876c0,0-9.163,1.252-9.065,1.721c0.384,1.853,8.956,1.286,9.482,0.551
													C539.936,224.413,538.993,222.876,538.993,222.876z"/>
											</g>
										</g>
									</g>
								</g>
							</g>
							<g>
								<g>
									<g>
										<g>
											<polygon style="fill:#F99C80;" points="550.062,224.091 547.292,223.85 546.818,215.547 550.273,215.281 											"/>
										</g>
									</g>
								</g>
							</g>
						</g>
						<g>
							<g>
								<polygon style="fill:#F99C80;" points="572.815,212.524 550.273,215.281 550.062,224.091 573.421,225.779 								"/>
							</g>
						</g>
					</g>
					<g>
						<g>
							<polygon style="fill:#A6ABB2;" points="553.926,212.867 550.175,212.829 550.922,225.725 554.453,226.296 							"/>
						</g>
					</g>
				</g>
				<g>
					<g>
						<path style="fill:#B6CCD0;" d="M553.791,231.933c0,0,10.414,8.324,27.499,9.951l-1.655-8.267L553.791,231.933z"/>
					</g>
				</g>
				<g>
					<g>
						<path style="fill:#FFFFFF;" d="M573.797,155.12c0,0,42.393,39.514,32.842,62.922c-9.551,23.408-52.848,13.891-52.848,13.891
							l-0.254-24.012L573.797,155.12z"/>
					</g>
				</g>
				<g>
					<g>
						<path d="M553.927,211.797c-0.177,0-0.322-0.134-0.334-0.31c-0.012-0.185,0.126-0.346,0.31-0.357
							c0.188-0.012,18.663-1.284,22.402-2.27c0.514-0.133,0.856-0.444,1.037-0.946c2.042-5.616-14.936-29.692-15.109-29.935
							c-0.106-0.149-0.071-0.357,0.082-0.467c0.153-0.102,0.357-0.075,0.467,0.083c0.707,1.001,17.352,24.606,15.192,30.548
							c-0.263,0.715-0.766,1.174-1.496,1.371c-3.802,1.001-21.766,2.235-22.528,2.286
							C553.943,211.797,553.935,211.797,553.927,211.797z"/>
					</g>
				</g>
				<g>
					<g>
						<polygon style="fill:#4A7652;" points="513.624,385.619 513.681,410.496 529.041,410.245 534.699,387.033 						"/>
					</g>
				</g>
				<g>
					<g>
						<rect x="502.921" y="373.737" style="fill:#D6EFF4;" width="44.131" height="13.296"/>
					</g>
				</g>
				<g>
					<g>
						<polygon style="fill:#4A7652;" points="568.08,381.847 571.745,409.562 587.32,409.562 589.956,379.018 						"/>
					</g>
				</g>
				<g>
					<g>
						<rect x="554.031" y="373.737" style="fill:#D6EFF4;" width="44.131" height="13.296"/>
					</g>
				</g>
				<g>
					<g>
						<polygon style="fill:#BED3D8;" points="552.556,147.031 558.273,158.035 544.84,202.823 545.557,161.57 						"/>
					</g>
				</g>
				<g>
					<g>
						<g>
							<path style="fill:#DA6400;" d="M495.197,226.381l-14.979,8.55c-0.339,0.194-0.772,0.076-0.966-0.264l-13.722-24.04
								l16.209-9.252l13.722,24.04C495.655,225.755,495.537,226.188,495.197,226.381z"/>
						</g>
					</g>
					<g>
						<g>
							<path style="fill:#DA8940;" d="M491.623,225.526l-10.324,5.893c-0.431,0.246-0.981,0.096-1.227-0.335l-8.594-15.057
								l11.887-6.785l8.594,15.057C492.205,224.731,492.055,225.28,491.623,225.526z"/>
						</g>
					</g>
					<g>
						<g>
							<path style="fill:#656E70;" d="M481.636,201.171l-16.228,9.263c-1.219,0.696-1.643,2.248-0.947,3.467l1.911,3.348
								c0.696,1.219,2.248,1.643,3.467,0.948l16.228-9.263c1.219-0.696,1.643-2.248,0.947-3.467l-1.911-3.348
								C484.407,200.9,482.855,200.476,481.636,201.171z"/>
						</g>
					</g>
					<g>
						<g>
							<path style="fill:#656E70;" d="M481.636,201.171l-16.228,9.263c-1.219,0.696-1.643,2.248-0.947,3.467l1.911,3.348
								c0.696,1.219,2.248,1.643,3.467,0.948l16.228-9.263c1.219-0.696,1.643-2.248,0.947-3.467l-1.911-3.348
								C484.407,200.9,482.855,200.476,481.636,201.171z"/>
						</g>
					</g>
					<g>
						<g>
							<polygon style="fill:#AC4E00;" points="469.838,218.197 489.045,214.174 486.066,208.934 							"/>
						</g>
					</g>
					<g>
						<g>
							<g>
								<path style="fill:#505759;" d="M464.91,210.869l4.301,7.536c0.212-0.055,0.428-0.094,0.627-0.207l0.772-0.441l-4.431-7.763
									l-0.772,0.441C465.208,210.548,465.065,210.714,464.91,210.869z"/>
							</g>
						</g>
						<g>
							<g>
								
									<rect x="470.138" y="207.973" transform="matrix(0.8685 -0.4957 0.4957 0.8685 -43.3788 261.3806)" style="fill:#505759;" width="1.537" height="8.938"/>
							</g>
						</g>
						<g>
							<g>
								
									<rect x="473.316" y="206.158" transform="matrix(0.8685 -0.4957 0.4957 0.8685 -42.0615 262.7176)" style="fill:#505759;" width="1.537" height="8.938"/>
							</g>
						</g>
						<g>
							<g>
								
									<rect x="476.494" y="204.344" transform="matrix(0.8685 -0.4957 0.4957 0.8685 -40.7447 264.0504)" style="fill:#505759;" width="1.537" height="8.938"/>
							</g>
						</g>
						<g>
							<g>
								<path style="fill:#505759;" d="M486.452,208.598l-4.331-7.587c-0.163,0.053-0.331,0.073-0.485,0.161l-0.9,0.513l4.431,7.763
									l0.9-0.513C486.221,208.846,486.323,208.711,486.452,208.598z"/>
							</g>
						</g>
						<g>
							<g>
								
									<rect x="479.672" y="202.53" transform="matrix(0.8685 -0.4957 0.4957 0.8685 -39.427 265.3914)" style="fill:#505759;" width="1.537" height="8.938"/>
							</g>
						</g>
					</g>
				</g>
				<g>
					<g>
						<path style="fill:#7DB4F9;" d="M587.881,418.112l-2.738-8.828l-0.655,0.013l-0.226,0.071l2.792,9.002
							c0.149,0.482,0.346,0.977,0.539,1.472c0.563,1.421,1.096,2.768,0.526,3.768c-0.505,0.885-1.838,1.489-4.08,1.852
							l-28.551,13.047c0.334,0.177,0.731,0.317,1.222,0.392l27.525-12.59c2.483-0.407,4.002-1.15,4.64-2.272
							c0.773-1.364,0.139-2.965-0.475-4.515C588.213,419.048,588.027,418.577,587.881,418.112z"/>
					</g>
				</g>
				<g>
					<g>
						<g>
							<path style="fill:#7DB4F9;" d="M488.642,433.765l-0.115-0.862l29.886-3.945l0.092,0.03c2.53,0.784,4.453,0.736,5.715-0.129
								c1.004-0.685,1.574-1.889,1.693-3.575v-15.725h0.868v15.755c-0.143,1.994-0.838,3.419-2.069,4.26
								c-1.472,1.014-3.616,1.099-6.373,0.271L488.642,433.765z"/>
						</g>
					</g>
				</g>
				<g>
					<g>
						<polygon style="fill:#67A472;" points="570.5,400.145 588.133,400.145 587.32,409.562 571.745,409.562 						"/>
					</g>
				</g>
				<g>
					<g>
						<polygon style="fill:#67A472;" points="513.657,400.145 513.681,410.496 529.041,410.244 531.503,400.145 						"/>
					</g>
				</g>
			</g>
			<g>
				<g>
					<g>
						<path style="fill:#838989;" d="M355.293,84.286c0,0-10.301,18.82,3.286,43.31c4.371,7.877,11.83,13.6,20.526,15.956
							l5.986,1.621c0,0,9.052-8.298,4.903-20.745C385.845,111.981,355.293,84.286,355.293,84.286z"/>
					</g>
				</g>
				<g>
					<g>
						<path d="M399.746,383.628l-1.681-0.44c29.295-111.643-22.206-249.729-22.732-251.112l1.626-0.613
							C377.485,132.85,429.182,271.444,399.746,383.628z"/>
					</g>
				</g>
				<g>
					<g>
						<path d="M399.769,176.253l-1.736-0.079c0.004-0.118,0.338-12.289-13.628-30.469c-14.284-18.593-27.198-49.918-27.327-50.233
							l1.61-0.66c0.126,0.314,12.953,31.428,27.092,49.832C400.181,163.394,399.793,175.738,399.769,176.253z"/>
					</g>
				</g>
				<g>
					<g>
						<path style="fill:#929898;" d="M374.269,157.805c-22.749-38.235-62.051-52.743-95.48-49.654c0,0,54.831,81.669,95.48,85.63
							C374.269,193.78,386.197,177.852,374.269,157.805z"/>
					</g>
				</g>
				<g>
					<g>
						<path style="fill:#838989;" d="M278.788,108.151c0,0,54.832,81.668,95.481,85.63
							C345.983,132.076,278.788,108.151,278.788,108.151z"/>
					</g>
				</g>
				<g>
					<g>
						<path style="fill:#929898;" d="M388.902,148.696c22.749-38.235,62.051-52.743,95.48-49.654c0,0-54.831,81.668-95.48,85.63
							C388.902,184.671,376.974,168.743,388.902,148.696z"/>
					</g>
				</g>
				<g>
					<g>
						<path style="fill:#838989;" d="M388.902,184.671c40.649-3.961,95.48-85.629,95.48-85.629S419.861,107.748,388.902,184.671z"/>
					</g>
				</g>
				<g>
					<g>
						<path style="fill:#929898;" d="M286.226,234.577c0,0,54.952-4.213,68.158-13.759c13.206-9.546,13.206-9.546,13.206-9.546
							S325.158,188.251,286.226,234.577z"/>
					</g>
				</g>
				<g>
					<g>
						<path style="fill:#838989;" d="M364.221,213.707c-17.267,1.185-59.025,5.571-77.996,20.87c0,0,54.952-4.213,68.158-13.759
							C359.224,217.318,362.279,215.111,364.221,213.707z"/>
					</g>
				</g>
				<g>
					<g>
						<path style="fill:#929898;" d="M411.707,218.702c-4.619-2.404-27.698,3.962-17.27,15.534
							c10.939,7.755,63.426,15.705,62.744,18.548c3.094-0.412-19.16-45.503-36.78-45.68
							C405.691,206.956,411.968,218.756,411.707,218.702z"/>
					</g>
				</g>
				<g>
					<g>
						<path style="fill:#838989;" d="M410.075,218.295c-6.793-0.824-25.157,5.377-15.637,15.942
							c10.171,7.211,56.238,14.588,62.11,17.874C449.747,245.132,422.871,226.854,410.075,218.295z"/>
					</g>
				</g>
				<g>
					<g>
						<path style="fill:#929898;" d="M357.667,245.758c0.114-0.427,18.638,2.666,11.621,10.453
							c-7.361,5.218-42.679,10.568-42.221,12.481c-2.082-0.277,16.84-35.397,27.257-32.055
							C365.474,240.529,357.491,245.795,357.667,245.758z"/>
					</g>
				</g>
				<g>
					<g>
						<path style="fill:#838989;" d="M327.066,268.693c-0.459-1.913,34.86-7.263,42.221-12.481
							c7.017-7.787-11.506-10.881-11.621-10.453c0,0-20.022,13.033-30.607,21.839C326.87,268.264,326.855,268.665,327.066,268.693z"
							/>
					</g>
				</g>
				<g>
					<g>
						<path d="M380.32,383.848l-1.5-0.876c0.126-0.216,12.376-22.3,11.394-106.415c-0.24-20.576-4.854-41.003-8.224-55.924
							c-1.685-7.462-3.016-13.357-3.287-17.061c-2.019-28.113-77.336-84.818-78.098-85.388l1.045-1.39
							c3.13,2.345,76.708,57.754,78.789,86.652c0.255,3.574,1.575,9.414,3.244,16.806c3.385,14.991,8.028,35.528,8.267,56.281
							C392.939,361.356,380.835,382.969,380.32,383.848z"/>
					</g>
				</g>
				<g>
					<g>
						<path d="M381.377,209.927l-1.689-0.416c15.015-60.723,63.775-95.155,64.266-95.497l0.99,1.43
							C444.456,115.777,396.227,149.86,381.377,209.927z"/>
					</g>
				</g>
				<g>
					<g>
						<path d="M426.515,232.342c-0.102-0.09-10.294-9.214-23.757-17.866c-13.035-8.377-21.735-4.03-21.821-3.986l-0.809-1.536
							c0.389-0.208,9.626-4.901,23.569,4.061c13.589,8.731,23.879,17.945,23.981,18.039L426.515,232.342z"/>
					</g>
				</g>
				<g>
					<g>
						<path d="M339.506,259.496l-1.155-1.296c1.104-0.982,27.19-23.911,48.12-22.854l-0.094,1.736
							C366.095,235.959,339.773,259.264,339.506,259.496z"/>
					</g>
				</g>
				<g>
					<g>
						<path d="M311.471,224.164l-0.628-1.618c2.561-0.986,62.679-23.863,73.11-1.453l-1.571,0.731
							C372.618,200.863,312.076,223.929,311.471,224.164z"/>
					</g>
				</g>
				<g>
					<g>
						<path d="M358.644,381.563l-1.524-0.833c40.39-73.754,29.535-138.758,29.421-139.406l1.712-0.302
							C388.368,241.677,399.341,307.247,358.644,381.563z"/>
					</g>
				</g>
				<g>
					<g>
						<path style="fill:#ABB2B2;" d="M398.06,143.775c1.667-8.427,16.056-19.969,24.605-23.986
							c8.55-4.017-13.516,20.233-18.48,24.081C399.222,147.718,397.763,145.277,398.06,143.775z"/>
					</g>
				</g>
				<g>
					<g>
						<path style="fill:#ABB2B2;" d="M346.479,133.63c0,0,23.419,16.156,22.934,25.59c-0.267,5.195-19.649-14.353-23.285-19.473
							C342.49,134.626,346.479,133.63,346.479,133.63z"/>
					</g>
				</g>
				<g>
					<g>
						<path style="fill:#ABB2B2;" d="M420.072,210.13c5.47,0.338,13.99,8.456,17.256,13.52c3.266,5.065-13.941-6.828-16.796-9.639
							C417.678,211.199,419.097,210.07,420.072,210.13z"/>
					</g>
				</g>
				<g>
					<g>
						<path style="fill:#ABB2B2;" d="M314.493,214.831c0,0,15.382-6.299,21.497-5.897c6.115,0.402-14.023,7.246-18.049,7.873
							C313.915,217.434,314.493,214.831,314.493,214.831z"/>
					</g>
				</g>
			</g>
			<g>
				<g>
					<rect x="273.503" y="364.682" style="fill:#7DB4F9;" width="212.898" height="20.937"/>
				</g>
			</g>
			<g>
				<g>
					<path style="fill:#B2D1F8;" d="M473.467,381.065h-188.86c-0.756,0-1.369-0.613-1.369-1.369v-9.089
						c0-0.756,0.613-1.369,1.369-1.369h188.86c0.756,0,1.369,0.613,1.369,1.369v9.089
						C474.836,380.452,474.223,381.065,473.467,381.065z"/>
				</g>
			</g>
			<g>
				<g>
					<g>
						<circle style="fill:#D6EFF4;" cx="438.058" cy="375.329" r="3.3"/>
					</g>
				</g>
				<g>
					<g>
						<circle style="fill:#D6EFF4;" cx="448.619" cy="375.329" r="3.3"/>
					</g>
				</g>
				<g>
					<g>
						<circle style="fill:#D6EFF4;" cx="459.18" cy="375.329" r="3.3"/>
					</g>
				</g>
			</g>
			<g>
				<g>
					<g>
						<path style="fill:#D6EFF4;" d="M128.577,385.619c0,1.823-1.478,3.3-3.3,3.3c-1.823,0-3.3-1.478-3.3-3.3
							c0-1.823,1.478-3.3,3.3-3.3C127.099,382.319,128.577,383.796,128.577,385.619z"/>
					</g>
				</g>
				<g>
					<g>
						<path style="fill:#D6EFF4;" d="M139.138,385.619c0,1.823-1.478,3.3-3.3,3.3c-1.823,0-3.3-1.478-3.3-3.3
							c0-1.823,1.478-3.3,3.3-3.3C137.66,382.319,139.138,383.796,139.138,385.619z"/>
					</g>
				</g>
				<g>
					<g>
						<path style="fill:#D6EFF4;" d="M149.699,385.619c0,1.823-1.478,3.3-3.3,3.3c-1.823,0-3.3-1.478-3.3-3.3
							c0-1.823,1.478-3.3,3.3-3.3C148.222,382.319,149.699,383.796,149.699,385.619z"/>
					</g>
				</g>
			</g>
			<g>
				<g>
					<path style="fill:#7DB4F9;" d="M258.269,84.793c-0.964,0-1.858,0.261-2.655,0.682l-11.22-11.008
						c0.654-0.93,1.044-2.057,1.044-3.28c0-3.16-2.562-5.721-5.721-5.721c-3.16,0-5.721,2.562-5.721,5.721
						c0,3.16,2.561,5.721,5.721,5.721c1.262,0,2.418-0.421,3.364-1.113l11.025,10.816c-0.96,1.023-1.558,2.39-1.558,3.903
						c0,1.707,0.763,3.222,1.948,4.27l-11.536,11.962c-0.922-0.636-2.037-1.013-3.242-1.013c-3.16,0-5.721,2.562-5.721,5.722
						c0,3.16,2.561,5.721,5.721,5.721c3.16,0,5.721-2.562,5.721-5.721c0-1.279-0.434-2.448-1.144-3.401l11.812-12.249
						c0.668,0.273,1.396,0.429,2.161,0.429c3.16,0,5.721-2.562,5.721-5.721C263.991,87.354,261.429,84.793,258.269,84.793z"/>
				</g>
			</g>
			<g>
				<g>
					<path style="fill:#7DB4F9;" d="M426.255,83.815c0.681-0.681,1.129-1.498,1.395-2.359l15.717-0.15
						c0.195,1.12,0.716,2.193,1.581,3.058c2.234,2.234,5.857,2.234,8.091,0c2.234-2.234,2.234-5.857,0-8.091
						c-2.234-2.234-5.857-2.234-8.091,0c-0.892,0.892-1.412,2.007-1.591,3.165l-15.444,0.148c-0.045-1.402-0.588-2.792-1.658-3.862
						c-1.207-1.207-2.818-1.739-4.397-1.642l-0.301-16.616c1.102-0.202,2.156-0.724,3.008-1.576c2.234-2.234,2.234-5.857,0-8.091
						c-2.234-2.234-5.857-2.235-8.091,0c-2.234,2.234-2.234,5.857,0,8.091c0.904,0.904,2.038,1.424,3.213,1.596l0.309,17.014
						c-0.665,0.279-1.29,0.683-1.832,1.225c-2.234,2.234-2.234,5.857,0,8.091C420.398,86.05,424.021,86.05,426.255,83.815z"/>
				</g>
			</g>
			<g>
				<g>
					<circle style="fill:#DDE8F9;" cx="437.739" cy="342.922" r="8.209"/>
				</g>
			</g>
			<g style="opacity:0.67;">
				<g>
					<circle style="fill:#DDE8F9;" cx="408.013" cy="328.833" r="14.71"/>
				</g>
			</g>
			<g>
				<g>
					<rect x="124.899" y="295.001" style="fill:#EFE4E4;" width="14.308" height="23.09"/>
				</g>
			</g>
			<g>
				<g>
					<polygon style="fill:#B1DDE6;" points="486.401,385.619 271.672,400.145 271.672,385.619 					"/>
				</g>
			</g>
			<g style="opacity:0.73;">
				<g>
					<g>
						<path style="fill:#DDE8F9;" d="M473.853,166.341L273.691,280.59v48.243L484.29,208.627
							C483.772,193.508,480.092,179.193,473.853,166.341z"/>
					</g>
				</g>
				<g>
					<g>
						<polygon style="fill:#DDE8F9;" points="484.382,236.856 484.382,218.02 273.691,338.279 273.691,357.115 						"/>
					</g>
				</g>
			</g>
			<g>
				<g>
					<rect x="248.993" y="138.944" style="fill:#7DB4F9;" width="34.701" height="5.63"/>
				</g>
			</g>
			<g>
				<g>
					<rect x="248.993" y="147.949" style="fill:#7DB4F9;" width="34.701" height="5.63"/>
				</g>
			</g>
			<g>
				<g>
					
						<ellipse transform="matrix(0.2713 -0.9625 0.9625 0.2713 188.33 580.5209)" style="fill:#7DB4F9;" cx="477.558" cy="165.882" rx="20.814" ry="20.814"/>
				</g>
			</g>
			<g>
				<g>
					<circle style="fill:#7DB4F9;" cx="139.138" cy="258.848" r="20.814"/>
				</g>
			</g>
			<g>
				<g>
					<rect x="249.836" y="240.278" style="fill:#7DB4F9;" width="72.779" height="46.879"/>
				</g>
			</g>
			<g>
				<g>
					<rect x="567.541" y="240.278" style="fill:#7DB4F9;" width="72.779" height="46.879"/>
				</g>
			</g>
			<g>
				<g>
					<polygon style="fill:#7DB4F9;" points="259.467,234.144 258.132,234.144 258.132,219.565 258.509,219.381 334.702,182.761 
						335.284,183.971 259.467,220.406 					"/>
				</g>
			</g>
			<g>
				<g>
					<polygon style="fill:#7DB4F9;" points="454.715,168.987 438.565,168.987 433.518,163.936 434.468,162.994 439.123,167.652 
						454.715,167.652 					"/>
				</g>
			</g>
			<g>
				<g>
					<polygon style="fill:#7DB4F9;" points="561.743,285.987 448.179,285.987 440.745,268.961 441.97,268.427 449.059,284.652 
						561.743,284.652 					"/>
				</g>
			</g>
			<g>
				<g>
					<polygon style="fill:#7DB4F9;" points="193.709,290.751 139.789,290.751 139.789,283.579 141.124,283.579 141.124,289.416 
						193.709,289.416 					"/>
				</g>
			</g>
		</g>
	</g>
</g>
</svg>
